<?xml version="1.0" encoding="utf-8"?>
<!DOCTYPE svg PUBLIC "-//W3C//DTD SVG 1.1 Basic//EN" "http://www.w3.org/Graphics/SVG/1.1/DTD/svg11-basic.dtd">
<svg version="1.1" baseProfile="basic" id="Layer_1"
	 xmlns="http://www.w3.org/2000/svg" xmlns:xlink="http://www.w3.org/1999/xlink" x="0px" y="0px" width="225.205px"
	 height="217.061px" viewBox="0 0 225.205 217.061" xml:space="preserve">
<g>
	<path d="M38.038,171.728l-5.623,37.333c0,0,2.41,8,14.459,8c12.049,0,20.081,0.001,18.475-6.666
		c-1.607-6.667-4.017-38.667-4.017-38.667H38.038z"/>
	<path fill="#FBBA6A" stroke="#000000" stroke-width="8" d="M40.397,161.728l-4.667,37.333c0,0,2,8,12,8s16.667,0.001,15.334-6.666
		c-1.334-6.667-3.334-38.667-3.334-38.667H40.397z"/>
	<path d="M137.608,171.728l-5.623,37.333c0,0,2.41,8,14.458,8c12.049,0,20.082,0.001,18.476-6.666
		c-1.606-6.667-4.017-38.667-4.017-38.667H137.608z"/>
	<path fill="#FBBA6A" stroke="#000000" stroke-width="8" d="M139.966,161.728l-4.667,37.333c0,0,2,8,12,8s16.667,0.001,15.333-6.666
		c-1.333-6.667-3.333-38.667-3.333-38.667H139.966z"/>
	<circle fill="#BFD549" stroke="#000000" stroke-width="8" cx="29.467" cy="104.088" r="25.467"/>
	<circle fill="#BFD549" stroke="#000000" stroke-width="8" cx="176.19" cy="136.342" r="25.467"/>
	<path fill="#BFD549" stroke="#000000" stroke-width="8" d="M132.896,17.628c-5.611,2.183-10.42,5.535-14.259,9.669
		C108.855,7.997,85.829-1.1,65.239,6.907c-21.918,8.524-32.777,33.204-24.253,55.122c8.524,21.92,33.204,32.778,55.122,24.254
		c7.184-2.793,13.178-7.321,17.692-12.919c9.47,15.852,29.255,23.038,47.04,16.122c19.842-7.717,29.672-30.059,21.955-49.9
		C175.079,19.742,152.737,9.913,132.896,17.628z"/>
	<path fill="#76B551" stroke="#000000" stroke-width="8" d="M221.205,93.999c0-26.189-21.23-47.42-47.42-47.42
		c-10.667,0-20.512,3.523-28.435,9.469c0.236-1.786,0.36-3.607,0.36-5.458c0-22.802-18.485-41.286-41.286-41.286
		c-14.283,0-26.871,7.254-34.285,18.277c-6.802-6.635-16.094-10.729-26.347-10.729c-20.847,0-37.747,16.9-37.747,37.748
		c0,13.471,7.062,25.286,17.68,31.966c-0.143,1.042-0.222,2.104-0.222,3.186c0,6.436,2.604,12.263,6.815,16.487
		c-10.911,7.061-18.139,19.328-18.139,33.292c0,21.89,17.745,39.635,39.635,39.635c7.623,0,14.741-2.157,20.784-5.888
		c-0.009,0.311-0.024,0.62-0.024,0.934c0,17.328,14.048,31.377,31.377,31.377c17.33,0,31.378-14.049,31.378-31.377
		c0-1.591-0.12-3.152-0.349-4.68c1.357,0.129,2.732,0.197,4.123,0.197c18.814,0,34.832-11.971,40.855-28.711
		C203.232,137.994,221.205,118.096,221.205,93.999z"/>
	<path fill="#F8D8E7" stroke="#000000" stroke-width="8" d="M69.696,121.768c0,0-17.48,51.996-12.551,65.893
		c4.932,13.895,20.172,21.067,46.619,21.067c26.445,0,44.376-11.206,42.135-25.55c-2.241-14.344-14.344-64.549-14.344-64.549
		l-5.828-16.585l-9.861-13.447l-34.963,2.241L69.696,121.768z"/>
	<polygon fill="#FFFFFF" points="104.955,92.822 107.613,102.195 113.209,111.148 119.784,115.764 127.339,119.122 138.81,119.262
		144.266,118.002 156.297,111.848 162.452,102.055 163.711,96.739 164.271,92.962 164.691,91.003 104.116,90.863 	"/>
	<polygon fill="#FBBA6A" points="104.955,87.786 107.613,78.413 113.209,69.459 119.784,64.843 127.339,61.486 138.81,61.345
		144.266,62.605 156.297,68.76 162.452,78.552 163.711,83.869 164.271,87.646 164.691,89.604 104.116,89.744 	"/>
	<polygon fill="#FFFFFF" points="43.396,92.822 46.054,102.195 51.65,111.148 58.225,115.764 65.778,119.122 77.25,119.262
		82.706,118.002 94.737,111.848 100.892,102.055 102.151,96.739 102.711,92.962 103.13,91.003 42.556,90.863 	"/>
	<circle fill="none" stroke="#000000" stroke-width="8" cx="135.142" cy="90.39" r="30.033"/>
	<polygon fill="#FBBA6A" points="43.396,87.786 46.054,78.413 51.65,69.459 58.225,64.843 65.778,61.486 77.25,61.345
		82.706,62.605 94.737,68.76 100.892,78.552 102.151,83.869 102.711,87.646 103.13,89.604 42.556,89.744 	"/>
	<line fill="none" stroke="#000000" stroke-width="8" x1="43.251" y1="90.39" x2="164.726" y2="90.39"/>
	<circle cx="72.386" cy="93.08" r="4.483"/>
	<circle cx="135.142" cy="93.08" r="4.482"/>
	<ellipse cx="84.265" cy="187.661" rx="2.101" ry="7.62"/>
	<ellipse cx="111.833" cy="188.332" rx="2.689" ry="8.293"/>
	<circle fill="none" stroke="#000000" stroke-width="8" cx="73.283" cy="90.39" r="30.032"/>
</g>
</svg>
