<svg id="svg" version="1.1" width="400" height="400" viewBox="0 0 400 400" xmlns="http://www.w3.org/2000/svg" xmlns:xlink="http://www.w3.org/1999/xlink" ><g id="svgg"><path id="path0" d="M0.000 200.000 L 0.000 400.000 200.000 400.000 L 400.000 400.000 400.000 200.000 L 400.000 0.000 200.000 0.000 L 0.000 0.000 0.000 200.000 M219.200 12.008 C 255.180 16.155,284.167 27.403,313.498 48.600 C 324.814 56.778,336.836 68.428,348.213 82.241 C 361.071 97.852,373.349 120.655,380.065 141.400 C 393.392 182.561,392.234 226.663,376.754 267.508 C 375.170 271.686,375.043 271.987,373.868 274.332 C 373.500 275.065,373.200 275.833,373.200 276.038 C 373.200 276.473,367.971 287.084,366.025 290.600 C 342.560 332.975,304.515 364.307,258.200 379.401 C 253.093 381.065,242.538 383.884,239.496 384.396 C 238.343 384.590,234.970 385.194,232.000 385.738 C 194.289 392.641,151.896 386.468,116.600 368.935 C 107.437 364.383,89.272 353.396,88.000 351.636 C 87.890 351.484,86.360 350.297,84.600 348.998 C 69.819 338.093,51.995 318.768,41.622 302.400 C 36.470 294.270,35.091 291.842,31.251 284.140 C 3.255 227.977,4.684 162.846,35.115 107.970 C 40.432 98.383,48.952 85.907,54.367 79.778 C 55.155 78.886,56.430 77.356,57.200 76.378 C 59.594 73.337,73.995 59.112,78.200 55.635 C 87.204 48.189,98.175 40.505,105.400 36.584 C 106.940 35.748,108.830 34.672,109.600 34.191 C 118.592 28.584,140.485 20.056,154.250 16.799 C 157.083 16.129,160.480 15.322,161.800 15.007 C 165.087 14.221,176.012 12.560,181.600 11.996 C 184.130 11.741,186.560 11.482,187.000 11.421 C 190.857 10.883,212.929 11.285,219.200 12.008 M210.991 86.172 C 209.254 87.910,210.446 91.200,212.813 91.200 C 214.136 91.200,216.115 89.006,215.786 87.903 C 215.065 85.488,212.574 84.589,210.991 86.172 M214.028 87.434 C 215.128 88.759,213.080 90.223,211.849 88.992 C 211.358 88.501,211.301 88.158,211.615 87.572 C 212.115 86.637,213.310 86.568,214.028 87.434 M176.108 88.281 C 175.046 88.486,173.801 90.130,173.438 91.807 C 173.268 92.593,172.797 93.184,172.089 93.498 C 165.791 96.294,155.221 105.596,151.391 111.711 C 150.809 112.640,149.732 114.362,148.997 115.539 C 146.030 120.291,142.749 129.452,143.863 129.879 C 144.571 130.151,144.457 130.344,145.559 127.000 C 147.533 121.009,150.016 116.389,151.114 116.664 C 153.284 117.209,155.613 118.829,155.237 119.532 C 152.736 124.218,150.499 130.778,149.639 135.952 C 149.108 139.146,148.870 139.818,148.229 139.940 C 143.662 140.806,145.072 148.400,149.800 148.400 C 154.356 148.400,155.768 143.123,151.965 140.311 C 149.869 138.761,151.694 129.980,155.709 122.300 C 157.038 119.757,157.332 119.643,159.589 120.794 C 161.649 121.845,161.735 122.059,160.819 123.862 C 157.709 129.981,155.313 138.848,156.172 141.063 C 156.661 142.325,157.461 140.736,157.767 137.893 C 158.123 134.579,159.666 129.845,161.892 125.235 C 163.958 120.954,164.026 121.197,160.300 119.480 C 157.465 118.174,158.176 116.586,164.379 110.375 C 173.546 101.196,184.202 96.569,197.200 96.123 C 202.619 95.937,203.092 95.834,202.396 94.995 C 201.427 93.827,193.313 94.363,186.400 96.051 C 174.482 98.962,163.878 106.595,156.562 117.528 C 156.438 117.714,151.633 115.176,151.402 114.804 C 151.296 114.632,151.477 114.268,151.804 113.996 C 152.132 113.724,152.400 113.319,152.400 113.096 C 152.400 112.038,158.784 104.904,162.600 101.697 C 168.844 96.450,173.508 93.937,175.176 94.922 C 178.419 96.838,182.547 93.227,180.567 90.205 C 179.913 89.207,177.998 87.939,177.320 88.054 C 177.144 88.084,176.599 88.186,176.108 88.281 M220.900 89.246 C 219.116 90.389,218.913 93.017,220.480 94.685 C 222.901 97.262,227.716 94.377,226.379 91.150 C 225.306 88.558,223.146 87.808,220.900 89.246 M178.800 90.400 C 179.763 91.363,179.800 91.936,178.977 93.111 C 177.539 95.165,174.273 93.439,175.164 91.096 C 175.789 89.452,177.521 89.121,178.800 90.400 M224.469 90.662 C 225.421 91.524,225.394 92.440,224.384 93.525 C 223.372 94.611,222.631 94.631,221.600 93.600 C 219.607 91.607,222.377 88.769,224.469 90.662 M229.772 94.386 C 224.966 96.331,228.394 103.731,233.453 102.334 C 235.598 101.742,240.599 106.847,245.617 114.750 C 248.028 118.549,248.000 118.775,244.943 120.174 L 242.629 121.234 241.923 120.317 C 241.535 119.813,241.214 119.271,241.209 119.113 C 241.188 118.431,237.839 114.000,237.344 114.000 C 236.428 114.000,236.717 114.791,238.851 118.118 C 243.868 125.938,246.395 134.570,246.398 143.900 C 246.400 147.826,246.436 148.000,247.259 148.000 C 248.109 148.000,248.115 147.941,247.868 142.300 C 247.583 135.803,246.672 131.242,244.615 126.024 C 243.298 122.683,243.278 122.782,245.559 121.500 C 248.781 119.691,249.319 120.229,251.577 127.526 L 252.473 130.422 251.037 132.012 C 248.153 135.204,249.802 139.430,253.907 139.372 C 259.019 139.300,260.071 132.977,255.302 130.985 C 254.580 130.683,253.926 130.203,253.850 129.918 C 251.874 122.532,247.606 113.895,243.441 108.853 C 241.863 106.941,238.603 103.453,237.312 102.294 C 236.106 101.212,236.030 100.985,236.112 98.738 C 236.249 94.987,233.296 92.960,229.772 94.386 M233.818 96.182 C 235.497 97.861,234.950 100.127,232.668 100.939 C 230.473 101.720,228.455 99.509,229.258 97.204 C 229.988 95.112,232.243 94.606,233.818 96.182 M201.089 101.844 C 200.930 102.003,200.798 102.778,200.795 103.567 C 200.783 106.517,200.547 106.800,198.086 106.800 C 196.865 106.800,194.726 106.999,193.332 107.241 C 190.806 107.681,190.796 107.679,189.386 106.441 C 187.846 105.090,187.406 104.989,185.760 105.615 C 181.713 107.154,182.667 112.652,186.965 112.562 C 188.823 112.523,190.400 111.417,190.400 110.153 C 190.400 109.164,192.088 108.727,196.142 108.663 L 200.200 108.600 200.084 111.104 C 199.950 113.993,200.049 114.078,204.165 114.583 C 209.122 115.192,216.339 119.097,220.119 123.216 C 222.196 125.480,223.600 126.229,223.600 125.073 C 223.600 122.093,211.010 114.166,204.660 113.148 C 201.682 112.670,201.511 112.522,201.673 110.553 L 201.800 109.000 204.200 109.034 C 205.701 109.054,207.684 109.456,209.493 110.107 C 211.455 110.812,212.472 111.007,212.654 110.712 C 213.225 109.789,208.638 107.946,204.281 107.349 C 202.222 107.067,202.044 106.828,202.304 104.700 C 202.554 102.658,203.118 102.651,210.200 104.610 C 214.529 105.808,217.927 107.465,222.225 110.475 C 232.524 117.687,239.600 130.669,239.600 142.355 L 239.600 144.444 237.700 144.322 L 235.800 144.200 235.536 141.000 C 234.950 133.892,230.745 123.095,229.175 124.665 C 228.920 124.920,229.223 125.880,230.045 127.421 C 232.107 131.284,233.633 136.373,234.178 141.200 C 234.549 144.482,234.513 144.502,228.839 144.170 L 223.959 143.884 222.793 142.190 C 219.643 137.611,212.837 140.685,214.947 145.734 C 216.314 149.007,219.902 149.598,222.281 146.942 L 223.561 145.512 228.463 145.575 C 234.209 145.650,234.388 145.738,233.972 148.299 C 232.836 155.304,230.404 161.264,226.964 165.467 C 224.784 168.132,225.544 169.159,227.876 166.700 C 230.934 163.476,233.996 156.411,235.070 150.100 L 235.768 146.000 237.497 146.000 C 239.661 146.000,239.809 146.356,239.204 150.088 C 238.421 154.912,235.342 163.496,233.773 165.230 C 233.458 165.578,233.200 166.009,233.200 166.187 C 233.200 167.663,224.943 175.885,220.700 178.634 C 216.449 181.389,217.280 182.303,221.671 179.703 C 226.439 176.881,233.610 169.088,236.402 163.698 C 237.585 161.412,237.634 161.399,240.499 162.619 C 243.376 163.844,245.158 164.535,247.350 165.274 C 249.446 165.981,249.476 166.272,247.799 169.603 C 244.177 176.794,235.806 186.567,234.066 185.635 C 229.636 183.265,225.470 189.625,229.226 193.023 C 232.073 195.600,237.808 191.800,236.357 188.297 C 235.903 187.200,235.994 187.051,238.926 184.080 C 240.598 182.386,242.639 180.100,243.461 179.000 C 244.282 177.900,245.077 176.910,245.226 176.800 C 245.704 176.447,248.618 171.485,249.995 168.679 C 251.677 165.253,251.792 165.382,244.551 162.590 C 238.010 160.068,237.985 160.043,239.115 156.945 C 246.053 137.911,235.598 114.045,216.512 105.347 C 211.426 103.030,202.036 100.897,201.089 101.844 M188.577 107.689 C 189.370 108.821,189.368 109.775,188.571 110.571 C 187.211 111.932,184.700 110.945,184.700 109.049 C 184.700 106.984,187.416 106.031,188.577 107.689 M256.177 133.289 C 257.624 135.355,256.364 138.000,253.931 138.000 C 251.485 138.000,250.197 134.971,251.862 133.131 C 252.839 132.052,255.376 132.145,256.177 133.289 M166.692 137.453 C 165.185 138.243,164.922 139.663,165.958 141.418 C 166.465 142.278,166.800 143.535,166.800 144.579 C 166.800 153.810,173.883 166.595,181.074 170.344 C 183.270 171.490,183.454 170.149,181.300 168.690 C 172.437 162.683,164.934 145.808,169.400 141.925 C 171.890 139.760,169.578 135.941,166.692 137.453 M169.200 139.800 C 169.200 140.639,167.834 141.274,167.261 140.701 C 166.240 139.680,167.213 138.165,168.461 138.833 C 168.868 139.050,169.200 139.485,169.200 139.800 M161.467 141.067 C 159.922 142.611,162.579 155.911,165.466 161.080 C 166.698 163.288,166.793 163.167,160.975 166.799 C 155.608 170.149,155.812 169.541,158.737 173.465 C 169.545 187.965,189.100 195.921,206.353 192.838 L 209.306 192.310 209.026 182.855 L 208.745 173.400 210.240 172.600 C 215.942 169.549,213.779 161.007,207.338 161.136 C 200.451 161.274,198.873 170.529,205.317 172.990 C 207.424 173.794,207.440 173.877,207.581 184.651 L 207.665 191.102 203.713 191.605 C 198.455 192.275,190.298 191.691,186.000 190.336 C 174.726 186.782,167.782 182.181,160.854 173.679 C 158.610 170.925,158.318 169.789,159.700 169.191 C 160.195 168.976,162.009 167.901,163.731 166.800 C 167.525 164.377,167.167 164.383,169.037 166.700 C 175.811 175.094,185.481 180.320,195.400 180.949 C 197.981 181.113,195.909 179.755,192.645 179.144 C 190.689 178.777,188.656 178.280,188.126 178.039 C 187.596 177.798,186.851 177.600,186.470 177.600 C 185.857 177.600,183.242 176.377,180.391 174.757 C 176.755 172.689,168.800 165.215,168.800 163.865 C 168.800 163.728,168.173 162.636,167.408 161.439 C 164.781 157.333,162.818 150.021,162.807 144.300 C 162.800 140.930,162.450 140.084,161.467 141.067 M151.971 142.254 C 153.324 143.974,153.008 145.665,151.155 146.623 C 148.135 148.185,145.352 144.593,147.670 142.126 C 148.899 140.817,150.887 140.876,151.971 142.254 M221.171 142.254 C 223.425 145.120,219.954 148.652,217.094 146.402 C 214.979 144.739,216.276 141.200,219.000 141.200 C 219.973 141.200,220.570 141.490,221.171 142.254 M251.955 143.000 C 247.956 145.173,251.267 151.052,255.384 149.088 C 257.689 147.989,257.816 144.146,255.587 142.993 C 254.175 142.263,253.308 142.265,251.955 143.000 M148.872 144.100 C 148.956 144.691,149.275 145.000,149.800 145.000 C 150.325 145.000,150.644 144.691,150.728 144.100 C 150.833 143.362,150.666 143.200,149.800 143.200 C 148.934 143.200,148.767 143.362,148.872 144.100 M217.836 143.851 C 217.587 144.499,218.207 145.600,218.820 145.600 C 219.460 145.600,220.361 144.364,220.140 143.788 C 219.835 142.994,218.147 143.039,217.836 143.851 M255.440 145.004 C 256.144 146.072,255.353 147.747,254.057 147.932 C 252.977 148.087,251.600 146.985,251.600 145.967 C 251.600 144.092,254.378 143.395,255.440 145.004 M150.991 153.227 C 150.814 153.784,150.911 154.224,151.257 154.443 C 152.087 154.968,152.600 154.635,152.600 153.572 C 152.600 152.310,151.366 152.045,150.991 153.227 M249.616 154.875 C 248.535 156.036,248.581 157.655,249.726 158.730 C 251.569 160.462,254.400 159.293,254.400 156.800 C 254.400 154.299,251.310 153.056,249.616 154.875 M252.600 156.800 C 252.600 157.533,252.359 157.834,251.698 157.928 C 250.715 158.068,250.157 157.210,250.555 156.172 C 250.961 155.116,252.600 155.619,252.600 156.800 M152.688 158.915 C 152.371 159.742,152.990 160.499,153.848 160.334 C 154.911 160.129,154.832 158.633,153.751 158.479 C 153.284 158.412,152.806 158.609,152.688 158.915 M209.858 163.236 C 211.580 164.300,212.000 165.110,212.000 167.367 C 212.000 172.121,205.889 173.706,203.454 169.584 C 201.005 165.438,205.773 160.711,209.858 163.236 M154.952 164.581 C 154.642 165.389,155.103 166.000,156.024 166.000 C 156.585 166.000,156.800 165.723,156.800 165.000 C 156.800 163.874,155.350 163.545,154.952 164.581 M170.381 175.236 C 169.904 175.550,170.015 175.803,171.000 176.646 C 176.417 181.282,185.530 185.384,192.290 186.229 C 194.086 186.453,194.820 186.765,195.654 187.658 C 197.992 190.160,201.724 187.480,199.861 184.637 C 198.997 183.318,197.882 183.161,195.997 184.094 C 192.352 185.897,181.307 182.466,174.600 177.448 C 170.997 174.751,171.063 174.786,170.381 175.236 M155.219 178.847 C 151.659 181.012,153.216 185.807,157.395 185.550 C 159.017 185.450,159.395 185.614,161.295 187.239 C 169.393 194.161,179.382 198.724,189.748 200.236 C 192.921 200.699,194.306 201.070,194.568 201.529 C 197.099 205.954,203.530 203.459,201.601 198.802 C 200.542 196.245,196.189 195.869,195.109 198.240 C 194.726 199.081,194.363 199.331,193.600 199.282 C 192.266 199.195,186.719 198.294,185.802 198.016 C 185.141 197.816,183.790 197.444,182.800 197.190 C 176.853 195.666,168.712 191.368,162.925 186.698 L 160.450 184.701 160.525 182.584 C 160.648 179.099,157.940 177.192,155.219 178.847 M158.873 181.000 C 159.599 182.595,158.764 184.000,157.089 184.000 C 155.491 184.000,154.800 183.397,154.800 182.000 C 154.800 179.832,157.984 179.050,158.873 181.000 M198.735 185.752 C 198.878 186.499,198.218 187.182,197.343 187.194 C 196.747 187.202,196.360 186.169,196.663 185.379 C 196.989 184.531,198.556 184.813,198.735 185.752 M233.311 186.766 C 233.841 186.968,234.497 187.669,234.769 188.325 C 235.970 191.224,232.138 193.803,230.016 191.525 C 227.834 189.183,230.301 185.622,233.311 186.766 M199.669 198.662 C 200.646 199.547,200.622 201.453,199.626 201.986 C 197.123 203.326,194.806 200.782,196.662 198.731 C 197.485 197.822,198.709 197.794,199.669 198.662 M157.046 233.786 C 156.691 234.328,156.400 234.847,156.400 234.939 C 156.400 235.031,154.266 239.493,151.657 244.853 C 149.049 250.214,146.143 256.220,145.200 258.200 C 144.257 260.180,142.341 264.128,140.943 266.974 C 137.679 273.615,137.686 273.707,141.365 273.407 C 143.797 273.209,143.833 273.176,145.472 269.663 C 147.317 265.712,146.234 266.017,158.317 266.045 L 168.834 266.070 169.728 267.535 C 170.220 268.341,171.056 269.950,171.585 271.111 C 172.641 273.428,173.189 273.722,175.932 273.445 C 178.211 273.215,178.285 273.088,177.297 271.097 C 176.252 268.991,169.564 255.184,166.206 248.200 C 158.000 231.135,158.386 231.742,157.046 233.786 M299.120 233.196 C 293.525 234.184,289.793 238.441,289.823 243.800 C 289.853 249.151,293.505 252.416,303.923 256.404 C 308.864 258.295,310.562 260.041,310.318 262.980 C 309.783 269.436,300.156 270.609,293.922 264.977 C 292.192 263.414,291.872 263.487,289.811 265.913 L 288.623 267.313 290.411 268.868 C 299.704 276.944,314.281 274.067,315.813 263.854 C 316.574 258.781,313.379 254.989,305.525 251.643 C 295.719 247.465,294.055 245.947,295.277 242.300 C 297.027 237.083,303.810 236.429,310.272 240.855 C 312.347 242.276,312.098 242.316,313.565 240.321 C 315.137 238.185,315.160 238.303,312.801 236.438 C 309.306 233.676,303.796 232.370,299.120 233.196 M85.600 253.153 C 85.600 272.631,85.619 273.112,86.384 273.312 C 87.296 273.550,90.072 273.246,90.479 272.863 C 90.632 272.718,90.798 266.435,90.848 258.900 C 90.938 245.370,91.103 243.797,92.205 245.983 C 92.897 247.356,99.435 258.114,101.817 261.800 C 102.528 262.900,103.501 264.520,103.981 265.400 C 108.744 274.146,107.884 274.575,117.634 258.600 C 122.065 251.340,125.760 245.325,125.845 245.233 C 126.337 244.703,126.437 246.790,126.515 259.238 L 126.600 272.981 127.639 273.346 C 128.211 273.547,129.333 273.589,130.132 273.439 L 131.585 273.167 131.693 253.852 C 131.820 230.880,132.078 233.200,129.399 233.200 C 126.864 233.200,128.296 231.292,117.094 249.596 C 112.853 256.524,109.096 262.248,108.743 262.316 C 108.133 262.433,107.646 261.786,105.496 258.000 C 104.551 256.334,100.060 249.063,98.152 246.106 C 97.408 244.955,96.800 243.911,96.800 243.787 C 96.800 243.663,96.080 242.477,95.200 241.152 C 94.320 239.827,93.600 238.650,93.600 238.536 C 93.600 238.423,92.835 237.178,91.900 235.770 L 90.200 233.210 87.900 233.205 L 85.600 233.200 85.600 253.153 M183.621 251.900 C 183.570 274.206,183.433 273.021,186.111 273.339 C 189.295 273.716,189.200 274.034,189.200 262.951 C 189.200 252.807,189.267 252.456,190.842 254.356 C 191.369 254.992,194.590 258.436,198.000 262.009 C 201.410 265.582,205.190 269.554,206.400 270.836 C 208.678 273.249,209.523 273.520,213.900 273.233 C 215.135 273.152,214.106 271.541,210.314 267.623 C 200.251 257.222,196.936 253.753,196.447 253.112 C 195.805 252.271,196.015 251.981,201.733 245.810 C 203.970 243.396,206.949 240.156,208.354 238.610 C 209.758 237.065,211.243 235.501,211.654 235.136 C 213.235 233.728,212.634 233.200,209.449 233.200 L 206.499 233.200 202.950 237.100 C 200.998 239.245,199.301 241.090,199.178 241.200 C 199.056 241.310,196.865 243.680,194.311 246.466 C 191.756 249.253,189.561 251.428,189.433 251.300 C 189.305 251.172,189.200 247.395,189.200 242.907 C 189.200 233.158,189.214 233.200,186.018 233.200 L 183.664 233.200 183.621 251.900 M220.800 253.156 L 220.800 273.112 222.300 273.293 C 225.241 273.646,245.269 273.554,246.247 273.182 C 247.157 272.836,247.232 272.625,247.121 270.702 L 247.000 268.600 236.600 268.400 L 226.200 268.200 226.200 262.200 L 226.200 256.200 232.295 256.090 C 239.013 255.968,239.001 255.973,238.634 253.200 C 238.562 252.650,238.479 251.980,238.451 251.710 C 238.414 251.353,236.749 251.191,232.300 251.110 L 226.200 251.000 226.200 244.600 L 226.200 238.200 236.600 238.000 L 247.000 237.800 247.129 236.445 C 247.201 235.699,247.152 234.664,247.022 234.145 L 246.785 233.200 233.792 233.200 L 220.800 233.200 220.800 253.156 M253.843 233.833 C 253.447 234.864,253.576 272.142,253.977 272.777 C 254.356 273.376,258.167 273.566,258.721 273.013 C 258.951 272.783,259.049 270.195,259.193 260.500 C 259.198 260.127,260.457 260.000,264.130 260.000 C 269.944 260.000,268.999 259.331,274.189 267.122 C 278.090 272.977,278.468 273.307,281.287 273.307 C 284.183 273.307,284.172 272.712,281.209 268.800 C 280.626 268.030,278.948 265.650,277.481 263.510 L 274.814 259.620 277.233 257.978 C 286.455 251.715,284.848 237.582,274.498 233.932 C 271.730 232.955,254.212 232.871,253.843 233.833 M273.397 239.204 C 279.071 242.032,279.564 250.028,274.281 253.527 C 272.368 254.794,259.220 255.497,259.183 254.334 C 259.055 250.244,259.239 238.660,259.437 238.340 C 260.015 237.404,271.171 238.095,273.397 239.204 M159.689 245.905 C 160.288 247.167,161.388 249.550,162.134 251.200 C 162.879 252.850,164.144 255.525,164.945 257.144 C 167.107 261.517,167.634 261.200,158.200 261.200 C 148.467 261.200,149.056 262.013,152.923 253.919 C 154.531 250.553,156.273 246.855,156.795 245.700 C 157.991 243.049,158.345 243.074,159.689 245.905 M100.502 287.700 C 100.041 288.635,97.917 293.000,95.784 297.400 C 93.651 301.800,90.486 308.326,88.753 311.901 C 87.019 315.477,85.600 318.501,85.600 318.621 C 85.600 318.741,86.625 318.786,87.877 318.720 L 90.154 318.600 91.404 316.057 C 93.000 312.809,92.355 312.981,102.453 313.115 L 111.106 313.230 112.352 316.015 L 113.597 318.800 115.798 318.800 C 118.518 318.800,118.573 319.289,115.048 312.150 C 113.424 308.862,111.551 305.008,110.885 303.586 C 102.363 285.395,101.952 284.765,100.502 287.700 M122.285 286.398 L 121.192 286.600 123.152 290.600 C 125.571 295.536,127.928 300.491,134.803 315.100 C 137.129 320.042,137.470 320.016,139.957 314.700 C 141.012 312.445,142.966 308.350,144.299 305.600 C 153.142 287.349,153.546 286.428,152.727 286.350 C 148.477 285.945,148.568 285.867,145.472 292.600 C 144.056 295.680,142.224 299.640,141.402 301.400 C 140.579 303.160,139.389 305.737,138.758 307.127 C 137.406 310.102,137.162 310.052,135.522 306.456 C 134.855 304.995,133.806 302.720,133.189 301.400 C 132.573 300.080,131.513 297.785,130.834 296.300 C 130.155 294.815,129.040 292.385,128.355 290.900 C 127.671 289.415,126.963 287.815,126.782 287.345 C 126.431 286.429,124.414 286.005,122.285 286.398 M159.126 286.272 C 157.795 286.490,157.695 288.293,158.000 306.600 L 158.200 318.600 168.649 318.707 L 179.097 318.813 179.327 317.666 C 179.904 314.782,180.035 314.828,170.855 314.708 L 162.600 314.600 162.600 309.800 L 162.600 305.000 167.500 304.888 L 172.400 304.775 172.400 302.788 L 172.400 300.800 167.400 300.800 L 162.400 300.800 162.400 295.608 L 162.400 290.416 170.700 290.308 L 179.000 290.200 179.120 288.348 C 179.227 286.697,179.140 286.474,178.320 286.286 C 177.216 286.034,160.657 286.022,159.126 286.272 M185.900 286.318 C 185.247 286.449,185.200 287.549,185.200 302.636 L 185.200 318.814 195.300 318.707 L 205.400 318.600 205.400 316.800 L 205.400 315.000 197.618 314.891 C 192.006 314.813,189.749 314.645,189.524 314.291 C 189.353 314.021,189.209 307.635,189.206 300.100 C 189.203 292.565,189.065 286.377,188.900 286.348 C 188.085 286.208,186.524 286.192,185.900 286.318 M211.500 286.314 C 210.847 286.449,210.800 287.551,210.800 302.629 L 210.800 318.800 221.022 318.800 L 231.244 318.800 231.122 316.900 L 231.000 315.000 223.200 314.800 L 215.400 314.600 215.295 300.500 C 215.197 287.433,215.139 286.398,214.495 286.367 C 214.113 286.348,213.440 286.296,213.000 286.251 C 212.560 286.206,211.885 286.234,211.500 286.314 M272.564 286.693 C 272.105 287.152,272.000 289.373,272.000 298.629 C 272.000 310.859,271.985 310.928,269.938 308.246 C 268.729 306.661,264.232 301.429,254.497 290.280 C 251.241 286.550,251.004 286.365,249.637 286.480 L 248.200 286.600 248.200 302.600 L 248.200 318.600 250.300 318.721 L 252.400 318.842 252.400 307.221 C 252.400 293.979,252.294 294.291,255.493 298.105 C 256.644 299.477,258.084 301.157,258.693 301.838 C 259.302 302.519,260.790 304.212,262.000 305.600 C 263.210 306.988,265.100 309.155,266.200 310.415 C 267.300 311.676,269.190 313.884,270.400 315.323 C 272.627 317.971,274.137 318.986,275.468 318.730 C 276.585 318.515,276.819 286.419,275.705 286.367 C 275.317 286.348,274.579 286.287,274.064 286.231 C 273.550 286.175,272.875 286.382,272.564 286.693 M295.079 286.438 C 282.397 289.423,278.101 305.211,287.487 314.343 C 296.975 323.573,312.845 318.621,315.647 305.555 C 318.105 294.094,306.880 283.661,295.079 286.438 M237.295 302.500 L 237.400 318.600 239.160 318.726 C 241.549 318.897,241.413 319.948,241.291 302.239 L 241.182 286.400 239.186 286.400 L 237.191 286.400 237.295 302.500 M304.967 291.583 C 312.402 295.845,313.786 305.077,307.902 311.165 C 300.043 319.299,286.800 313.626,286.800 302.126 C 286.800 293.217,297.244 287.156,304.967 291.583 M102.985 296.100 C 103.285 296.815,104.715 299.893,106.163 302.941 C 107.612 305.988,108.697 308.643,108.575 308.841 C 108.180 309.480,95.610 309.291,95.361 308.641 C 95.243 308.334,96.294 305.679,97.696 302.741 C 99.098 299.804,100.504 296.815,100.820 296.100 C 101.137 295.385,101.631 294.800,101.918 294.800 C 102.206 294.800,102.686 295.385,102.985 296.100 " stroke="none" fill="#f7fafa" fill-rule="evenodd"></path><path id="path1" d="M189.200 11.836 C 186.253 11.998,177.405 13.020,173.800 13.614 C 172.480 13.832,170.050 14.194,168.400 14.417 C 165.276 14.841,159.081 16.135,156.990 16.801 C 156.325 17.013,154.795 17.371,153.590 17.597 C 148.444 18.561,134.878 23.104,127.688 26.270 C 126.527 26.782,125.481 27.200,125.364 27.200 C 124.588 27.200,111.472 33.791,106.877 36.490 C 104.965 37.613,102.680 38.920,101.800 39.394 C 100.392 40.153,98.020 41.694,92.861 45.200 C 79.772 54.096,61.915 70.682,53.836 81.447 C 53.156 82.354,51.156 84.964,49.392 87.247 C 46.336 91.202,40.000 100.430,40.000 100.926 C 40.000 101.055,39.485 101.934,38.855 102.880 C 38.225 103.826,37.211 105.500,36.602 106.600 C 35.992 107.700,34.708 110.017,33.747 111.749 C 32.786 113.480,32.000 114.960,32.000 115.036 C 32.000 115.112,31.293 116.621,30.429 118.389 C 25.616 128.238,20.184 143.017,17.781 152.800 C 15.738 161.118,15.872 160.438,13.636 173.800 C 12.429 181.015,12.200 185.209,12.210 200.000 C 12.222 216.676,12.414 219.178,14.604 231.200 C 14.905 232.850,15.264 235.100,15.402 236.200 C 15.541 237.300,15.812 238.830,16.005 239.600 C 18.054 247.764,18.714 250.185,20.263 255.200 C 22.617 262.823,26.402 272.908,27.236 273.780 C 27.436 273.989,27.600 274.423,27.600 274.744 C 27.600 275.296,30.054 280.628,32.314 284.987 C 35.754 291.620,35.724 291.567,39.437 297.745 C 66.355 342.537,117.029 377.221,166.600 384.781 C 167.920 384.982,171.160 385.512,173.800 385.958 C 193.247 389.244,226.421 387.824,243.000 382.995 C 244.100 382.675,246.530 382.040,248.400 381.584 C 250.270 381.129,254.140 380.026,257.000 379.133 C 262.459 377.430,262.910 377.272,265.260 376.241 C 266.064 375.888,266.998 375.600,267.337 375.600 C 267.676 375.600,268.050 375.443,268.168 375.252 C 268.286 375.060,268.906 374.799,269.546 374.671 C 270.185 374.543,271.818 373.901,273.175 373.243 C 274.533 372.586,276.299 371.831,277.101 371.567 C 277.903 371.302,279.431 370.571,280.497 369.943 C 281.563 369.314,282.601 368.800,282.804 368.800 C 283.007 368.800,285.372 367.630,288.061 366.200 C 290.749 364.770,293.095 363.600,293.274 363.600 C 293.453 363.600,293.600 363.420,293.600 363.200 C 293.600 362.980,293.794 362.800,294.031 362.800 C 294.470 362.800,301.777 358.450,303.600 357.104 C 304.150 356.698,305.590 355.713,306.800 354.915 C 308.010 354.118,310.689 352.191,312.754 350.633 C 314.819 349.075,316.979 347.450,317.554 347.022 C 323.051 342.934,335.607 330.995,341.346 324.401 C 343.356 322.091,345.393 319.751,345.874 319.201 C 346.354 318.650,347.254 317.533,347.874 316.718 C 348.493 315.903,350.286 313.551,351.858 311.490 C 354.731 307.723,359.330 300.830,362.193 296.000 C 363.040 294.570,364.120 292.770,364.592 292.000 C 366.748 288.482,375.600 269.714,375.600 268.659 C 375.600 268.473,376.384 266.313,377.342 263.860 C 389.435 232.887,392.100 188.356,383.742 156.906 C 383.171 154.758,382.558 152.280,382.380 151.400 C 381.978 149.414,379.568 141.738,377.923 137.200 C 377.246 135.330,376.376 132.900,375.990 131.800 C 374.409 127.287,366.565 110.623,364.786 108.000 C 364.414 107.450,363.674 106.190,363.143 105.200 C 362.064 103.186,361.293 101.971,356.547 94.800 C 353.367 89.996,348.485 83.399,345.853 80.347 C 345.164 79.548,343.880 78.018,343.000 76.947 C 340.150 73.478,333.417 66.622,325.800 59.432 C 320.602 54.525,300.467 39.600,299.044 39.600 C 298.919 39.600,297.860 38.989,296.692 38.242 C 293.808 36.397,284.131 31.256,279.780 29.258 C 269.043 24.327,255.310 19.435,247.000 17.582 C 245.240 17.189,242.270 16.483,240.400 16.014 C 236.802 15.110,229.133 13.808,223.800 13.196 C 222.040 12.994,219.340 12.639,217.800 12.407 C 214.995 11.985,194.089 11.568,189.200 11.836 M215.364 86.031 C 216.721 87.643,216.681 88.981,215.231 90.431 C 213.017 92.645,209.600 91.428,209.600 88.425 C 209.600 84.930,213.185 83.441,215.364 86.031 M178.974 87.990 C 180.269 88.482,181.597 90.625,181.599 92.225 C 181.601 94.679,177.713 96.954,175.558 95.759 C 174.033 94.914,173.290 95.087,170.051 97.037 C 163.494 100.986,154.933 109.089,152.646 113.511 L 152.053 114.657 154.236 115.828 C 156.098 116.828,156.471 116.912,156.776 116.400 C 160.238 110.582,173.739 98.800,176.944 98.800 C 177.072 98.800,178.160 98.350,179.363 97.800 C 180.565 97.250,181.794 96.800,182.094 96.800 C 182.394 96.800,182.811 96.637,183.020 96.438 C 184.463 95.063,200.122 93.304,202.567 94.243 C 203.314 94.529,203.427 96.387,202.700 96.428 C 202.425 96.443,200.310 96.490,198.000 96.531 C 183.209 96.797,166.045 105.766,159.680 116.555 C 158.712 118.195,158.541 117.960,162.000 119.736 C 164.370 120.953,164.390 121.531,162.203 125.815 C 160.071 129.991,159.426 131.959,158.426 137.333 C 157.650 141.504,157.269 142.265,156.169 141.843 C 154.787 141.313,156.594 130.845,158.738 126.960 C 158.968 126.542,159.596 125.281,160.133 124.158 L 161.109 122.115 159.293 121.233 C 157.294 120.262,157.398 120.209,155.986 122.880 C 153.129 128.285,150.622 138.303,151.869 139.331 C 155.673 142.468,155.714 146.680,151.960 148.621 C 146.811 151.284,142.454 144.454,146.729 140.420 C 148.517 138.734,148.693 138.392,149.121 135.774 C 149.809 131.567,151.350 126.585,153.191 122.620 C 154.091 120.681,154.776 119.050,154.714 118.996 C 154.344 118.678,151.169 117.200,150.855 117.200 C 150.046 117.200,146.960 123.832,145.772 128.123 C 145.178 130.273,145.050 130.437,144.065 130.323 C 142.799 130.177,142.773 127.857,144.005 125.000 C 144.195 124.560,144.964 122.760,145.714 121.000 C 146.464 119.240,147.460 117.170,147.928 116.400 C 148.396 115.630,149.168 114.280,149.643 113.400 C 150.119 112.520,150.619 111.710,150.756 111.600 C 150.893 111.490,151.803 110.320,152.778 109.000 C 156.899 103.424,164.687 96.831,171.364 93.267 C 172.518 92.651,172.959 92.144,173.046 91.337 C 173.340 88.572,176.223 86.944,178.974 87.990 M212.076 88.300 C 212.150 88.685,212.476 89.000,212.800 89.000 C 213.124 89.000,213.450 88.685,213.524 88.300 C 213.618 87.809,213.402 87.600,212.800 87.600 C 212.198 87.600,211.982 87.809,212.076 88.300 M225.971 89.491 C 229.340 93.578,223.638 98.873,220.018 95.019 C 218.218 93.104,218.958 88.869,221.200 88.257 C 223.389 87.658,224.751 88.011,225.971 89.491 M176.238 90.522 C 174.739 91.619,176.333 94.339,177.900 93.357 C 178.768 92.813,179.022 91.349,178.382 90.578 C 177.787 89.862,177.164 89.846,176.238 90.522 M221.850 91.250 C 221.097 92.325,221.765 93.600,223.082 93.600 C 224.349 93.600,224.923 92.354,224.158 91.262 C 223.394 90.170,222.609 90.166,221.850 91.250 M235.400 94.852 C 236.467 95.887,236.601 96.281,236.609 98.407 L 236.617 100.798 239.649 103.899 C 245.975 110.370,250.473 117.680,253.050 125.681 C 254.424 129.945,254.524 130.141,255.461 130.391 C 260.729 131.793,259.764 139.455,254.262 139.912 C 249.804 140.281,247.403 135.275,250.400 131.861 C 251.967 130.076,251.909 129.525,249.503 123.400 C 248.427 120.660,248.347 120.618,246.267 121.671 C 243.871 122.884,243.881 122.816,245.484 127.000 C 248.156 133.969,249.531 147.987,247.604 148.599 C 246.260 149.025,246.133 148.610,245.878 142.970 C 245.393 132.250,242.597 124.072,236.556 115.706 C 235.737 114.572,236.094 113.600,237.329 113.600 C 238.266 113.600,240.479 116.312,241.982 119.300 C 242.658 120.645,242.739 120.647,245.222 119.389 C 247.481 118.244,247.502 118.521,244.856 114.452 C 239.935 106.883,235.595 102.595,233.254 102.991 C 228.657 103.768,225.473 99.648,227.698 95.800 C 229.311 93.009,233.027 92.551,235.400 94.852 M230.229 96.629 C 228.808 98.050,229.891 100.400,231.967 100.400 C 233.134 100.400,234.400 99.338,234.400 98.358 C 234.400 96.393,231.618 95.239,230.229 96.629 M209.503 102.205 C 217.966 104.378,226.285 109.754,231.803 116.614 C 232.681 117.706,233.535 118.660,233.700 118.733 C 233.865 118.807,234.000 119.023,234.000 119.213 C 234.000 119.404,234.537 120.356,235.194 121.329 C 241.395 130.517,243.401 145.970,239.772 156.589 C 238.693 159.744,238.634 159.607,241.600 160.807 C 242.810 161.296,244.563 162.035,245.496 162.448 C 246.428 162.862,247.293 163.200,247.418 163.200 C 248.133 163.200,251.276 164.932,251.468 165.432 C 252.311 167.630,245.054 179.035,239.306 184.544 C 236.968 186.785,236.826 187.024,237.035 188.367 C 237.708 192.701,233.068 195.867,229.383 193.589 C 224.892 190.814,228.166 183.318,233.274 184.682 C 236.105 185.437,242.763 178.185,247.250 169.458 C 248.806 166.430,248.811 166.438,243.945 164.623 C 241.665 163.772,239.629 162.924,239.420 162.738 C 238.485 161.906,237.603 162.482,236.417 164.700 C 231.533 173.835,217.200 185.780,217.200 180.715 C 217.200 180.251,218.835 178.834,219.400 178.809 C 220.019 178.782,224.275 175.483,226.762 173.103 C 230.870 169.172,233.722 164.903,236.317 158.800 C 237.509 155.996,237.615 155.618,238.231 152.000 C 238.549 150.130,238.915 148.093,239.043 147.474 C 239.269 146.378,239.233 146.351,237.738 146.474 C 236.243 146.596,236.193 146.651,235.955 148.400 C 235.556 151.327,234.437 155.992,233.760 157.550 C 231.235 163.362,227.642 168.600,226.183 168.600 C 224.886 168.600,225.049 167.112,226.563 165.130 C 229.814 160.872,231.808 156.263,233.002 150.250 C 233.839 146.030,234.373 146.501,228.391 146.185 L 223.400 145.920 222.717 147.164 C 220.493 151.209,214.200 148.989,214.200 144.159 C 214.200 139.187,220.276 137.411,223.033 141.578 C 224.269 143.446,224.737 143.588,229.700 143.595 L 233.600 143.600 233.600 141.880 C 233.600 138.203,231.780 131.781,229.572 127.669 C 228.169 125.055,228.211 123.861,229.698 124.072 C 231.403 124.314,234.631 131.795,235.622 137.800 C 236.700 144.331,236.506 143.800,237.813 143.800 L 239.000 143.800 238.901 141.200 C 238.220 123.283,222.174 105.585,205.270 104.107 L 202.741 103.886 202.870 105.225 C 202.995 106.517,203.084 106.581,205.400 107.048 C 212.382 108.455,214.561 109.610,213.064 111.108 C 212.511 111.660,212.135 111.620,209.325 110.702 C 203.375 108.759,202.022 108.831,202.006 111.092 C 202.002 111.747,202.293 112.045,203.100 112.211 C 212.464 114.135,224.446 121.658,223.929 125.288 C 223.698 126.905,222.653 126.469,219.600 123.484 C 217.050 120.991,212.528 117.600,211.753 117.600 C 211.625 117.600,210.954 117.350,210.260 117.044 C 207.424 115.792,205.665 115.266,203.393 114.990 C 199.693 114.541,199.507 114.365,199.665 111.467 L 199.800 109.000 197.800 108.873 C 194.516 108.665,191.163 109.587,190.735 110.815 C 189.635 113.971,184.633 113.959,182.998 110.796 C 181.001 106.935,186.177 102.981,189.532 105.804 C 190.702 106.789,190.813 106.803,195.362 106.543 L 200.000 106.278 200.030 105.239 C 200.064 104.025,200.323 102.435,200.615 101.641 C 200.874 100.937,205.772 101.247,209.503 102.205 M185.900 107.632 C 184.227 108.607,185.613 111.079,187.444 110.386 C 188.678 109.920,188.909 108.909,187.991 107.991 C 187.096 107.096,186.883 107.060,185.900 107.632 M252.489 133.423 C 251.353 134.218,251.347 135.733,252.475 136.784 C 253.582 137.815,254.580 137.820,255.600 136.800 C 257.090 135.310,256.087 132.800,254.000 132.800 C 253.658 132.800,252.978 133.080,252.489 133.423 M169.217 136.800 C 171.250 136.800,171.722 140.423,169.930 142.272 L 168.660 143.583 169.167 147.461 C 169.634 151.034,171.462 156.875,172.591 158.400 C 172.835 158.730,173.268 159.469,173.554 160.041 C 174.244 161.426,179.810 167.139,181.697 168.400 C 184.286 170.129,183.524 172.154,180.800 170.786 C 174.305 167.523,168.333 157.936,166.807 148.324 C 166.343 145.396,165.701 142.522,165.381 141.938 C 163.918 139.265,165.785 135.918,168.333 136.648 C 168.626 136.731,169.024 136.800,169.217 136.800 M167.469 139.363 C 167.244 139.950,167.504 140.400,168.067 140.400 C 168.513 140.400,168.494 139.305,168.042 139.026 C 167.845 138.904,167.587 139.056,167.469 139.363 M162.567 140.243 C 163.064 140.433,163.200 141.111,163.200 143.399 C 163.200 161.403,175.789 175.924,193.900 178.810 C 196.546 179.232,196.800 179.354,196.800 180.213 C 196.800 181.549,196.625 181.580,192.400 181.006 C 183.238 179.762,175.135 174.981,168.507 166.909 L 167.118 165.218 165.387 166.409 C 164.435 167.064,163.525 167.600,163.366 167.600 C 163.206 167.600,162.486 168.050,161.764 168.600 C 161.043 169.150,160.272 169.600,160.050 169.600 C 155.791 169.600,169.080 182.406,177.861 186.762 C 185.937 190.770,199.229 192.646,205.753 190.700 L 207.306 190.237 207.055 187.018 C 206.918 185.248,206.804 181.676,206.802 179.080 L 206.800 174.359 205.397 173.773 C 198.343 170.826,200.019 160.400,207.546 160.400 C 214.584 160.400,216.658 170.188,210.297 173.379 C 209.369 173.845,209.168 180.590,209.825 189.200 C 210.089 192.670,209.936 192.822,205.541 193.443 C 193.451 195.152,178.442 191.574,169.600 184.874 C 168.830 184.291,167.840 183.540,167.400 183.207 C 165.975 182.126,159.964 176.061,158.979 174.712 C 155.773 170.314,155.530 169.694,156.700 168.904 C 159.899 166.744,162.949 164.798,163.153 164.786 C 163.289 164.778,163.917 164.348,164.550 163.831 L 165.699 162.891 164.293 159.945 C 162.242 155.649,161.125 150.966,160.896 145.702 C 160.676 140.656,160.988 139.637,162.567 140.243 M148.045 142.552 C 146.583 144.108,147.191 145.342,150.085 146.696 C 150.681 146.974,152.000 145.151,152.000 144.049 C 152.000 141.901,149.533 140.968,148.045 142.552 M217.062 142.731 C 216.243 143.636,216.223 144.416,216.993 145.424 C 217.546 146.148,217.570 146.113,217.343 144.901 C 216.956 142.830,218.930 141.490,220.320 142.880 C 221.502 144.062,220.583 146.000,218.840 146.000 C 218.112 146.000,217.960 146.120,218.281 146.441 C 219.722 147.882,222.113 144.182,220.778 142.574 C 220.102 141.759,217.856 141.855,217.062 142.731 M256.369 143.036 C 257.867 144.296,258.127 147.261,256.875 148.807 C 255.857 150.064,252.547 150.383,251.363 149.338 C 247.061 145.544,251.985 139.346,256.369 143.036 M151.120 142.880 C 152.208 143.968,150.887 146.229,149.338 145.931 C 148.333 145.738,147.706 143.836,148.380 143.024 C 148.995 142.283,150.446 142.206,151.120 142.880 M252.497 145.263 C 251.708 146.052,251.915 146.787,253.049 147.218 C 254.332 147.706,255.295 147.063,255.119 145.835 C 254.980 144.858,253.274 144.486,252.497 145.263 M153.120 153.766 C 152.961 155.404,151.003 155.815,150.450 154.327 C 150.011 153.148,150.225 152.603,151.323 152.100 C 152.534 151.545,153.270 152.228,153.120 153.766 M254.597 155.289 C 255.987 157.885,253.342 161.042,250.638 160.014 C 246.748 158.536,247.840 153.411,251.987 153.682 C 253.622 153.788,253.878 153.947,254.597 155.289 M251.075 156.258 C 250.553 156.780,250.802 157.200,251.633 157.200 C 252.099 157.200,252.397 156.990,252.308 156.725 C 252.113 156.140,251.446 155.888,251.075 156.258 M155.138 159.178 C 155.299 160.320,154.315 161.208,153.209 160.918 C 152.303 160.681,151.893 159.767,152.225 158.721 C 152.610 157.510,154.954 157.877,155.138 159.178 M157.600 164.826 C 157.600 165.227,157.212 165.826,156.738 166.158 C 155.528 167.006,154.308 166.322,154.476 164.889 C 154.694 163.029,157.600 162.971,157.600 164.826 M205.244 163.758 C 201.507 165.830,203.221 171.170,207.630 171.191 C 210.200 171.204,211.400 169.911,211.400 167.130 C 211.400 163.884,208.190 162.125,205.244 163.758 M172.646 175.286 C 173.281 175.774,173.890 176.269,174.000 176.386 C 174.395 176.808,179.166 180.000,179.402 180.000 C 179.535 180.000,180.399 180.337,181.322 180.749 C 188.053 183.752,193.321 184.800,195.756 183.621 C 199.420 181.848,202.967 185.515,200.099 188.110 C 198.387 189.660,194.800 189.330,194.800 187.624 C 194.800 187.411,194.125 187.130,193.300 187.001 C 185.111 185.716,176.839 182.130,171.615 177.600 C 168.700 175.072,169.635 172.973,172.646 175.286 M159.989 179.043 C 160.779 179.805,160.995 180.444,161.063 182.229 C 161.160 184.772,161.206 184.826,166.600 188.761 C 174.831 194.766,192.786 200.712,194.650 198.050 C 197.397 194.127,203.788 196.996,202.257 201.464 C 201.078 204.905,197.172 205.501,194.708 202.616 C 193.832 201.591,193.174 201.200,192.324 201.200 C 187.758 201.200,177.461 198.021,171.613 194.807 C 170.005 193.923,168.625 193.200,168.546 193.200 C 168.467 193.200,167.525 192.570,166.453 191.800 C 165.381 191.030,164.367 190.400,164.199 190.400 C 164.031 190.400,163.603 190.084,163.247 189.698 C 161.184 187.461,158.851 186.010,157.691 186.242 C 155.357 186.709,152.800 184.478,152.800 181.976 C 152.800 178.173,157.217 176.371,159.989 179.043 M155.680 180.880 C 154.604 181.956,155.442 183.600,157.066 183.600 C 158.251 183.600,158.981 182.286,158.400 181.200 C 157.925 180.313,156.424 180.136,155.680 180.880 M197.364 185.750 C 197.025 186.633,197.476 187.084,198.087 186.473 C 198.447 186.113,198.449 185.889,198.093 185.533 C 197.737 185.177,197.564 185.229,197.364 185.750 M230.238 188.198 C 229.404 189.471,229.757 190.961,231.029 191.541 C 232.779 192.338,234.400 191.211,234.400 189.196 C 234.400 187.185,231.377 186.460,230.238 188.198 M197.477 198.861 C 196.633 199.333,196.596 200.933,197.414 201.611 C 198.370 202.405,200.076 201.353,199.919 200.065 C 199.782 198.942,198.480 198.299,197.477 198.861 M90.828 233.425 C 91.286 233.840,92.309 235.338,93.101 236.755 C 93.893 238.171,95.095 240.192,95.771 241.247 C 96.447 242.301,97.675 244.219,98.500 245.508 C 99.325 246.798,100.000 247.984,100.000 248.146 C 100.000 248.307,100.696 249.465,101.547 250.720 C 103.526 253.639,106.045 257.707,107.275 259.973 C 108.766 262.719,108.693 262.794,115.200 251.793 C 115.750 250.864,116.830 249.045,117.600 247.751 C 118.370 246.458,119.180 245.097,119.400 244.726 C 120.103 243.540,124.860 235.855,125.853 234.300 C 127.075 232.388,131.978 231.911,132.022 233.700 C 132.181 240.189,132.010 273.261,131.815 273.575 C 131.428 274.203,126.991 274.112,126.454 273.466 C 126.154 273.104,125.977 268.615,125.905 259.566 L 125.800 246.200 124.800 247.886 C 124.250 248.813,122.651 251.423,121.246 253.686 C 119.841 255.949,116.887 260.770,114.680 264.400 C 110.456 271.350,109.394 272.800,108.533 272.800 C 107.997 272.800,105.600 269.786,105.600 269.113 C 105.600 268.912,105.150 268.157,104.600 267.436 C 104.050 266.714,103.600 265.916,103.600 265.662 C 103.600 265.408,103.432 265.200,103.227 265.200 C 103.022 265.200,102.731 264.795,102.581 264.300 C 102.430 263.805,101.878 262.827,101.354 262.127 C 100.829 261.426,100.400 260.734,100.400 260.589 C 100.400 260.443,99.615 259.126,98.656 257.662 C 96.865 254.928,96.467 254.277,93.544 249.300 C 92.607 247.705,91.699 246.400,91.525 246.400 C 91.351 246.400,91.215 252.434,91.222 259.809 C 91.238 275.218,91.500 274.000,88.166 274.000 C 84.616 274.000,84.800 275.170,84.800 252.582 L 84.800 233.215 85.900 232.973 C 86.505 232.839,87.176 232.687,87.391 232.635 C 88.453 232.376,90.082 232.750,90.828 233.425 M161.207 236.700 C 162.323 239.065,163.529 241.540,163.888 242.200 C 165.021 244.283,165.132 244.507,167.233 249.000 C 169.189 253.183,173.819 262.785,177.292 269.862 C 179.237 273.825,179.156 274.000,175.370 274.000 L 172.388 274.000 170.783 270.717 C 168.719 266.493,169.782 266.813,157.791 266.806 L 147.382 266.800 145.687 270.400 L 143.992 274.000 141.429 274.000 C 136.388 274.000,136.036 275.743,144.617 258.200 C 146.877 253.580,150.624 245.885,152.945 241.100 C 158.217 230.226,158.167 230.253,161.207 236.700 M212.300 233.016 C 213.270 233.324,212.781 234.730,211.100 236.470 C 210.165 237.438,208.230 239.508,206.800 241.070 C 205.370 242.632,202.670 245.567,200.800 247.592 C 196.916 251.798,196.641 252.194,197.080 252.951 C 197.256 253.254,201.360 257.579,206.200 262.563 C 216.875 273.555,217.085 274.000,211.592 274.000 L 208.882 274.000 204.306 269.300 C 201.789 266.715,198.396 263.169,196.765 261.420 C 195.134 259.671,192.858 257.273,191.707 256.092 L 189.614 253.944 189.507 263.872 L 189.400 273.800 186.763 273.917 C 182.968 274.085,183.242 275.686,183.180 252.980 L 183.126 233.000 185.799 232.881 C 189.756 232.705,189.598 232.321,189.613 242.149 L 189.625 250.600 192.913 247.161 C 196.405 243.506,202.193 237.216,204.416 234.658 C 206.187 232.621,209.127 232.009,212.300 233.016 M247.208 233.005 C 247.903 233.434,247.693 238.279,246.967 238.557 C 246.619 238.691,241.849 238.800,236.367 238.800 L 226.400 238.800 226.400 244.600 L 226.400 250.400 232.026 250.400 C 239.001 250.400,239.200 250.489,239.200 253.600 C 239.200 256.621,239.119 256.660,232.800 256.721 C 230.050 256.747,227.485 256.776,227.100 256.784 C 226.469 256.798,226.400 257.330,226.400 262.200 L 226.400 267.600 227.700 267.635 C 228.415 267.654,232.958 267.668,237.795 267.665 C 243.343 267.662,246.777 267.815,247.095 268.079 C 247.878 268.729,247.772 273.448,246.967 273.757 C 245.543 274.304,220.917 274.023,220.445 273.454 C 220.118 273.061,220.021 267.357,220.096 252.954 L 220.200 233.000 222.000 232.800 C 224.479 232.525,246.724 232.706,247.208 233.005 M275.755 233.982 C 283.016 237.367,285.852 245.468,282.405 252.977 C 281.591 254.749,277.840 258.800,277.013 258.800 C 275.331 258.800,275.531 259.978,277.741 263.085 C 278.959 264.798,280.370 266.792,280.878 267.516 C 281.385 268.240,282.397 269.641,283.127 270.628 C 284.962 273.110,284.743 273.769,282.035 273.923 C 279.076 274.092,275.600 272.100,275.600 270.237 C 275.600 269.878,269.589 261.240,269.151 260.970 C 268.657 260.665,261.755 260.454,260.500 260.706 C 259.614 260.884,259.600 260.982,259.600 266.963 C 259.600 273.973,259.588 274.000,256.400 274.000 C 255.168 274.000,253.944 273.784,253.680 273.520 C 252.909 272.749,252.996 233.354,253.770 232.920 C 255.486 231.957,273.252 232.815,275.755 233.982 M308.348 233.391 C 314.629 235.684,316.396 238.131,313.771 240.900 C 312.131 242.631,311.681 242.717,310.361 241.551 C 305.930 237.638,298.684 237.560,296.337 241.400 C 294.334 244.676,296.326 247.438,302.302 249.672 C 303.566 250.144,305.392 250.951,306.360 251.465 C 307.327 251.979,308.343 252.400,308.616 252.400 C 311.488 252.400,316.390 258.772,316.396 262.513 C 316.415 273.899,300.645 278.178,290.370 269.575 C 287.949 267.548,287.929 267.029,290.185 264.815 L 291.970 263.063 294.285 264.679 C 299.351 268.215,302.812 268.926,306.589 267.205 C 312.689 264.426,310.195 258.440,302.000 256.191 C 289.175 252.672,284.956 240.833,294.258 234.466 C 297.262 232.410,304.210 231.880,308.348 233.391 M259.691 246.472 L 259.800 254.200 265.333 254.268 C 274.274 254.378,278.064 251.770,277.500 245.899 C 277.005 240.752,274.147 239.051,265.691 238.872 L 259.583 238.743 259.691 246.472 M157.600 244.737 C 157.600 245.157,156.475 247.652,152.633 255.756 C 151.393 258.371,150.456 260.589,150.552 260.685 C 150.802 260.935,165.606 260.927,165.856 260.677 C 165.971 260.562,165.831 260.048,165.545 259.534 C 165.259 259.020,163.568 255.461,161.788 251.625 C 158.969 245.552,157.600 243.301,157.600 244.737 M302.975 285.813 C 319.818 288.497,320.801 313.709,304.264 318.871 C 284.286 325.107,272.673 296.232,291.510 287.158 C 295.025 285.466,298.346 285.076,302.975 285.813 M107.168 294.500 C 109.547 299.395,111.911 304.390,112.423 305.600 C 112.935 306.810,113.769 308.471,114.277 309.292 C 114.784 310.113,115.200 310.874,115.200 310.985 C 115.200 311.095,115.935 312.710,116.833 314.574 C 118.877 318.816,118.814 319.366,116.269 319.505 C 113.723 319.645,113.343 319.373,111.861 316.362 L 110.600 313.800 101.909 313.692 L 93.218 313.584 91.808 316.385 C 90.171 319.635,89.857 319.783,85.700 319.263 C 84.983 319.173,85.083 318.131,85.968 316.454 C 86.391 315.655,87.570 313.200,88.588 311.000 C 89.607 308.800,90.580 306.730,90.750 306.400 C 92.552 302.918,99.014 289.687,99.980 287.500 C 101.643 283.738,102.205 284.285,107.168 294.500 M126.869 286.500 C 127.142 286.995,128.418 289.740,129.704 292.600 C 130.990 295.460,132.643 299.060,133.377 300.600 C 134.111 302.140,135.295 304.657,136.007 306.193 L 137.302 308.986 138.424 306.593 C 141.962 299.045,143.186 296.395,143.962 294.600 C 144.438 293.500,145.586 291.070,146.514 289.200 L 148.200 285.800 150.764 285.679 C 154.738 285.492,154.789 285.076,149.505 296.000 C 146.249 302.734,144.549 306.288,140.876 314.050 C 137.762 320.630,137.031 321.025,135.222 317.104 C 133.971 314.391,128.415 302.738,126.400 298.600 C 119.912 285.272,119.978 285.600,123.786 285.600 C 126.054 285.600,126.433 285.711,126.869 286.500 M179.820 286.538 C 179.950 287.054,179.998 288.179,179.928 289.038 L 179.800 290.600 171.287 290.708 L 162.775 290.816 162.887 295.496 L 163.000 300.175 166.429 300.056 C 168.315 299.991,170.520 300.061,171.329 300.213 L 172.800 300.489 172.800 302.801 C 172.800 305.602,172.624 305.684,166.842 305.567 L 163.000 305.490 163.000 309.845 L 163.000 314.200 171.400 314.400 L 179.800 314.600 179.800 316.771 C 179.800 318.834,179.742 318.958,178.628 319.256 C 176.334 319.869,158.016 319.472,157.591 318.800 C 156.997 317.859,157.081 286.679,157.680 286.080 C 158.029 285.731,161.074 285.600,168.872 285.600 L 179.585 285.600 179.820 286.538 M190.000 299.993 L 190.200 314.187 192.000 314.261 C 192.990 314.303,196.545 314.351,199.900 314.368 L 206.000 314.400 206.000 316.586 C 206.000 319.529,206.211 319.472,194.924 319.560 C 185.651 319.632,185.229 319.602,184.824 318.844 C 184.364 317.986,184.201 287.383,184.650 286.215 C 184.850 285.693,185.384 285.588,187.350 285.682 L 189.800 285.800 190.000 299.993 M215.502 299.600 C 215.625 316.245,214.569 314.441,224.150 314.381 C 231.994 314.331,231.983 314.328,231.994 316.726 C 232.007 319.542,232.393 319.447,221.013 319.422 C 212.519 319.404,210.710 319.301,210.413 318.821 C 209.841 317.895,209.880 286.826,210.454 286.135 C 210.786 285.735,211.598 285.599,213.164 285.682 L 215.400 285.800 215.502 299.600 M241.556 286.147 C 241.881 286.539,241.980 291.252,241.905 302.837 L 241.800 318.981 240.761 319.346 C 240.189 319.547,239.064 319.588,238.261 319.438 L 236.800 319.164 236.800 302.649 C 236.800 293.565,236.920 286.013,237.067 285.867 C 237.566 285.367,241.091 285.587,241.556 286.147 M256.730 292.000 C 259.661 295.410,262.721 298.986,263.530 299.947 C 264.338 300.908,265.360 302.092,265.800 302.579 C 267.771 304.757,270.612 308.142,270.733 308.456 C 271.378 310.120,271.600 307.355,271.600 297.680 C 271.600 285.374,271.553 285.596,274.180 285.606 C 276.934 285.617,276.782 284.725,276.915 301.622 C 277.051 318.885,277.062 318.720,275.725 319.228 C 274.335 319.757,272.931 318.905,270.364 315.977 C 269.174 314.619,267.750 313.000,267.200 312.379 C 266.650 311.758,265.480 310.392,264.600 309.343 C 258.458 302.023,253.213 296.440,253.195 297.200 C 253.186 297.530,253.139 302.510,253.090 308.267 C 253.040 314.023,252.876 318.858,252.723 319.010 C 252.259 319.474,248.633 319.557,248.100 319.116 C 247.376 318.516,247.374 286.786,248.098 286.062 C 249.666 284.494,251.161 285.522,256.730 292.000 M297.392 290.833 C 285.864 292.309,283.621 308.333,294.254 313.254 C 297.802 314.896,300.849 314.854,304.310 313.115 C 316.441 307.019,310.880 289.107,297.392 290.833 M100.218 298.600 C 99.438 300.250,98.127 302.995,97.304 304.700 C 96.482 306.405,95.807 307.970,95.804 308.178 C 95.799 308.669,107.484 308.912,107.783 308.428 C 108.033 308.023,102.364 295.636,101.918 295.614 C 101.763 295.606,100.998 296.950,100.218 298.600 " stroke="none" fill="#1264b8" fill-rule="evenodd"></path><path id="path2" d="M187.000 11.421 C 186.560 11.482,184.130 11.741,181.600 11.996 C 176.012 12.560,165.087 14.221,161.800 15.007 C 160.480 15.322,157.083 16.129,154.250 16.799 C 140.485 20.056,118.592 28.584,109.600 34.191 C 108.830 34.672,106.940 35.748,105.400 36.584 C 98.175 40.505,87.204 48.189,78.200 55.635 C 73.995 59.112,59.594 73.337,57.200 76.378 C 56.430 77.356,55.155 78.886,54.367 79.778 C 43.253 92.356,30.107 115.044,23.183 133.600 C 3.685 185.846,8.518 245.762,36.068 293.340 C 44.967 308.709,55.902 322.856,67.650 334.200 C 73.547 339.894,80.566 346.022,84.600 348.998 C 86.360 350.297,87.890 351.484,88.000 351.636 C 88.481 352.302,103.521 362.013,107.268 364.076 C 127.496 375.217,145.692 381.674,168.400 385.768 C 187.926 389.289,212.664 389.277,232.000 385.738 C 234.970 385.194,238.343 384.590,239.496 384.396 C 242.538 383.884,253.093 381.065,258.200 379.401 C 304.515 364.307,342.560 332.975,366.025 290.600 C 367.971 287.084,373.200 276.473,373.200 276.038 C 373.200 275.833,373.500 275.065,373.868 274.332 C 384.710 252.695,391.013 215.223,388.793 185.600 C 387.116 163.219,381.213 140.657,371.682 120.200 C 366.641 109.381,359.914 97.972,353.049 88.600 C 342.092 73.641,326.930 58.307,313.498 48.600 C 284.167 27.403,255.180 16.155,219.200 12.008 C 212.929 11.285,190.857 10.883,187.000 11.421 M217.800 12.407 C 219.340 12.639,222.040 12.994,223.800 13.196 C 229.133 13.808,236.802 15.110,240.400 16.014 C 242.270 16.483,245.240 17.189,247.000 17.582 C 255.310 19.435,269.043 24.327,279.780 29.258 C 284.131 31.256,293.808 36.397,296.692 38.242 C 297.860 38.989,298.919 39.600,299.044 39.600 C 300.467 39.600,320.602 54.525,325.800 59.432 C 333.417 66.622,340.150 73.478,343.000 76.947 C 343.880 78.018,345.164 79.548,345.853 80.347 C 348.485 83.399,353.367 89.996,356.547 94.800 C 361.293 101.971,362.064 103.186,363.143 105.200 C 363.674 106.190,364.414 107.450,364.786 108.000 C 366.565 110.623,374.409 127.287,375.990 131.800 C 376.376 132.900,377.246 135.330,377.923 137.200 C 379.568 141.738,381.978 149.414,382.380 151.400 C 382.558 152.280,383.171 154.758,383.742 156.906 C 392.100 188.356,389.435 232.887,377.342 263.860 C 376.384 266.313,375.600 268.473,375.600 268.659 C 375.600 269.714,366.748 288.482,364.592 292.000 C 364.120 292.770,363.040 294.570,362.193 296.000 C 359.330 300.830,354.731 307.723,351.858 311.490 C 350.286 313.551,348.493 315.903,347.874 316.718 C 347.254 317.533,346.354 318.650,345.874 319.201 C 345.393 319.751,343.356 322.091,341.346 324.401 C 335.607 330.995,323.051 342.934,317.554 347.022 C 316.979 347.450,314.819 349.075,312.754 350.633 C 310.689 352.191,308.010 354.118,306.800 354.915 C 305.590 355.713,304.150 356.698,303.600 357.104 C 301.777 358.450,294.470 362.800,294.031 362.800 C 293.794 362.800,293.600 362.980,293.600 363.200 C 293.600 363.420,293.453 363.600,293.274 363.600 C 293.095 363.600,290.749 364.770,288.061 366.200 C 285.372 367.630,283.007 368.800,282.804 368.800 C 282.601 368.800,281.563 369.314,280.497 369.943 C 279.431 370.571,277.903 371.302,277.101 371.567 C 276.299 371.831,274.533 372.586,273.175 373.243 C 271.818 373.901,270.185 374.543,269.546 374.671 C 268.906 374.799,268.286 375.060,268.168 375.252 C 268.050 375.443,267.676 375.600,267.337 375.600 C 266.998 375.600,266.064 375.888,265.260 376.241 C 262.910 377.272,262.459 377.430,257.000 379.133 C 254.140 380.026,250.270 381.129,248.400 381.584 C 246.530 382.040,244.100 382.675,243.000 382.995 C 226.421 387.824,193.247 389.244,173.800 385.958 C 171.160 385.512,167.920 384.982,166.600 384.781 C 117.029 377.221,66.355 342.537,39.437 297.745 C 35.724 291.567,35.754 291.620,32.314 284.987 C 30.054 280.628,27.600 275.296,27.600 274.744 C 27.600 274.423,27.436 273.989,27.236 273.780 C 26.402 272.908,22.617 262.823,20.263 255.200 C 18.714 250.185,18.054 247.764,16.005 239.600 C 15.812 238.830,15.541 237.300,15.402 236.200 C 15.264 235.100,14.905 232.850,14.604 231.200 C 12.414 219.178,12.222 216.676,12.210 200.000 C 12.200 185.209,12.429 181.015,13.636 173.800 C 15.375 163.410,15.865 160.695,16.414 158.400 C 19.476 145.615,21.926 138.104,26.885 126.301 C 27.970 123.717,29.566 120.156,30.429 118.389 C 31.293 116.621,32.000 115.112,32.000 115.036 C 32.000 114.960,32.786 113.480,33.747 111.749 C 34.708 110.017,35.992 107.700,36.602 106.600 C 37.211 105.500,38.225 103.826,38.855 102.880 C 39.485 101.934,40.000 101.055,40.000 100.926 C 40.000 100.430,46.336 91.202,49.392 87.247 C 51.156 84.964,53.156 82.354,53.836 81.447 C 61.915 70.682,79.772 54.096,92.861 45.200 C 98.020 41.694,100.392 40.153,101.800 39.394 C 102.680 38.920,104.965 37.613,106.877 36.490 C 111.472 33.791,124.588 27.200,125.364 27.200 C 125.481 27.200,126.527 26.782,127.688 26.270 C 134.878 23.104,148.444 18.561,153.590 17.597 C 154.795 17.371,156.325 17.013,156.990 16.801 C 159.081 16.135,165.276 14.841,168.400 14.417 C 170.050 14.194,172.480 13.832,173.800 13.614 C 185.384 11.703,208.842 11.060,217.800 12.407 M210.429 85.854 C 207.625 89.419,212.037 93.625,215.231 90.431 C 216.681 88.981,216.721 87.643,215.364 86.031 C 213.966 84.369,211.662 84.286,210.429 85.854 M214.834 86.287 C 217.403 88.972,213.608 92.844,210.982 90.218 C 209.728 88.964,209.731 87.433,210.991 86.172 C 212.119 85.044,213.690 85.091,214.834 86.287 M211.615 87.572 C 211.301 88.158,211.358 88.501,211.849 88.992 C 213.080 90.223,215.128 88.759,214.028 87.434 C 213.310 86.568,212.115 86.637,211.615 87.572 M175.636 87.949 C 174.183 88.356,171.967 92.000,173.173 92.000 C 173.408 92.000,173.600 91.713,173.600 91.362 C 173.600 88.001,178.580 87.174,180.567 90.205 C 182.547 93.227,178.419 96.838,175.176 94.922 C 173.508 93.937,168.844 96.450,162.600 101.697 C 158.784 104.904,152.400 112.038,152.400 113.096 C 152.400 113.319,152.132 113.724,151.804 113.996 C 151.477 114.268,151.296 114.632,151.402 114.804 C 151.633 115.176,156.438 117.714,156.562 117.528 C 163.878 106.595,174.482 98.962,186.400 96.051 C 193.313 94.363,201.427 93.827,202.396 94.995 C 203.092 95.834,202.619 95.937,197.200 96.123 C 184.202 96.569,173.546 101.196,164.379 110.375 C 158.176 116.586,157.465 118.174,160.300 119.480 C 164.026 121.197,163.958 120.954,161.892 125.235 C 159.666 129.845,158.123 134.579,157.767 137.893 C 157.461 140.736,156.661 142.325,156.172 141.063 C 155.313 138.848,157.709 129.981,160.819 123.862 C 161.735 122.059,161.649 121.845,159.589 120.794 C 157.332 119.643,157.038 119.757,155.709 122.300 C 151.694 129.980,149.869 138.761,151.965 140.311 C 155.768 143.123,154.356 148.400,149.800 148.400 C 145.072 148.400,143.662 140.806,148.229 139.940 C 148.870 139.818,149.108 139.146,149.639 135.952 C 150.499 130.778,152.736 124.218,155.237 119.532 C 155.613 118.829,153.284 117.209,151.114 116.664 C 150.016 116.389,147.533 121.009,145.559 127.000 C 144.457 130.344,144.571 130.151,143.863 129.879 C 142.749 129.452,146.030 120.291,148.997 115.539 C 149.732 114.362,150.809 112.640,151.391 111.711 C 155.224 105.590,165.792 96.294,172.100 93.493 C 173.296 92.962,173.641 92.263,172.500 92.682 C 167.467 94.531,157.250 103.005,152.736 109.073 C 151.784 110.353,150.893 111.490,150.756 111.600 C 150.619 111.710,150.119 112.520,149.643 113.400 C 149.168 114.280,148.396 115.630,147.928 116.400 C 147.460 117.170,146.464 119.240,145.714 121.000 C 144.964 122.760,144.195 124.560,144.005 125.000 C 142.773 127.857,142.799 130.177,144.065 130.323 C 145.050 130.437,145.178 130.273,145.772 128.123 C 146.960 123.832,150.046 117.200,150.855 117.200 C 151.169 117.200,154.344 118.678,154.714 118.996 C 154.776 119.050,154.091 120.681,153.191 122.620 C 151.350 126.585,149.809 131.567,149.121 135.774 C 148.693 138.392,148.517 138.734,146.729 140.420 C 142.454 144.454,146.811 151.284,151.960 148.621 C 155.714 146.680,155.673 142.468,151.869 139.331 C 150.622 138.303,153.129 128.285,155.986 122.880 C 157.398 120.209,157.294 120.262,159.293 121.233 L 161.109 122.115 160.133 124.158 C 159.596 125.281,158.968 126.542,158.738 126.960 C 156.594 130.845,154.787 141.313,156.169 141.843 C 157.269 142.265,157.650 141.504,158.426 137.333 C 159.426 131.959,160.071 129.991,162.203 125.815 C 164.390 121.531,164.370 120.953,162.000 119.736 C 158.541 117.960,158.712 118.195,159.680 116.555 C 166.045 105.766,183.209 96.797,198.000 96.531 C 200.310 96.490,202.425 96.443,202.700 96.428 C 203.427 96.387,203.314 94.529,202.567 94.243 C 200.122 93.304,184.463 95.063,183.020 96.438 C 182.811 96.637,182.394 96.800,182.094 96.800 C 181.794 96.800,180.565 97.250,179.363 97.800 C 178.160 98.350,177.072 98.800,176.944 98.800 C 173.739 98.800,160.238 110.582,156.776 116.400 C 156.471 116.912,156.098 116.828,154.236 115.828 L 152.053 114.657 152.646 113.511 C 154.933 109.089,163.494 100.986,170.051 97.037 C 173.290 95.087,174.033 94.914,175.558 95.759 C 177.713 96.954,181.601 94.679,181.599 92.225 C 181.595 89.026,178.843 87.052,175.636 87.949 M213.524 88.300 C 213.450 88.685,213.124 89.000,212.800 89.000 C 212.476 89.000,212.150 88.685,212.076 88.300 C 211.982 87.809,212.198 87.600,212.800 87.600 C 213.402 87.600,213.618 87.809,213.524 88.300 M221.200 88.257 C 219.969 88.593,218.679 91.097,218.932 92.658 C 219.569 96.582,224.289 97.615,226.349 94.282 C 228.537 90.742,225.426 87.102,221.200 88.257 M224.892 89.186 C 226.999 90.844,227.133 92.784,225.287 94.900 C 224.357 95.965,221.565 95.840,220.480 94.685 C 217.525 91.539,221.532 86.544,224.892 89.186 M176.074 89.874 C 175.091 90.267,174.719 92.017,175.399 93.054 C 176.543 94.801,179.600 93.824,179.600 91.711 C 179.600 90.367,177.533 89.290,176.074 89.874 M178.382 90.578 C 179.022 91.349,178.768 92.813,177.900 93.357 C 176.333 94.339,174.739 91.619,176.238 90.522 C 177.164 89.846,177.787 89.862,178.382 90.578 M221.423 90.889 C 219.830 93.163,222.504 95.543,224.384 93.525 C 225.394 92.440,225.421 91.524,224.469 90.662 C 223.450 89.740,222.160 89.836,221.423 90.889 M224.158 91.262 C 224.923 92.354,224.349 93.600,223.082 93.600 C 221.765 93.600,221.097 92.325,221.850 91.250 C 222.609 90.166,223.394 90.170,224.158 91.262 M230.011 93.723 C 224.292 95.686,227.205 104.013,233.254 102.991 C 235.595 102.595,239.935 106.883,244.856 114.452 C 247.502 118.521,247.481 118.244,245.222 119.389 C 242.739 120.647,242.658 120.645,241.982 119.300 C 240.479 116.312,238.266 113.600,237.329 113.600 C 236.094 113.600,235.737 114.572,236.556 115.706 C 242.597 124.072,245.393 132.250,245.878 142.970 C 246.133 148.610,246.260 149.025,247.604 148.599 C 249.531 147.987,248.156 133.969,245.484 127.000 C 243.881 122.816,243.871 122.884,246.267 121.671 C 248.347 120.618,248.427 120.660,249.503 123.400 C 251.909 129.525,251.967 130.076,250.400 131.861 C 247.403 135.275,249.804 140.281,254.262 139.912 C 259.764 139.455,260.729 131.793,255.461 130.391 C 254.524 130.141,254.424 129.945,253.050 125.681 C 250.473 117.680,245.975 110.370,239.649 103.899 L 236.617 100.798 236.609 98.407 C 236.595 94.585,233.631 92.481,230.011 93.723 M234.894 95.169 C 236.120 96.266,236.195 96.484,236.112 98.738 C 236.030 100.985,236.106 101.212,237.312 102.294 C 238.603 103.453,241.863 106.941,243.441 108.853 C 247.606 113.895,251.874 122.532,253.850 129.918 C 253.926 130.203,254.580 130.683,255.302 130.985 C 260.071 132.977,259.019 139.300,253.907 139.372 C 249.802 139.430,248.153 135.204,251.037 132.012 L 252.473 130.422 251.577 127.526 C 249.319 120.229,248.781 119.691,245.559 121.500 C 243.278 122.782,243.298 122.683,244.615 126.024 C 246.672 131.242,247.583 135.803,247.868 142.300 C 248.115 147.941,248.109 148.000,247.259 148.000 C 246.436 148.000,246.400 147.826,246.398 143.900 C 246.395 134.570,243.868 125.938,238.851 118.118 C 236.717 114.791,236.428 114.000,237.344 114.000 C 237.839 114.000,241.188 118.431,241.209 119.113 C 241.214 119.271,241.535 119.813,241.923 120.317 L 242.629 121.234 244.943 120.174 C 248.000 118.775,248.028 118.549,245.617 114.750 C 240.599 106.847,235.598 101.742,233.453 102.334 C 230.373 103.185,227.600 101.238,227.600 98.224 C 227.600 94.376,231.964 92.548,234.894 95.169 M230.550 95.594 C 228.433 96.449,228.730 100.395,230.954 100.953 C 234.029 101.725,236.029 98.393,233.818 96.182 C 232.796 95.159,231.987 95.014,230.550 95.594 M233.777 96.889 C 234.575 98.027,234.564 98.756,233.738 99.669 C 232.360 101.192,229.600 100.212,229.600 98.200 C 229.600 96.083,232.562 95.154,233.777 96.889 M200.615 101.641 C 200.323 102.435,200.064 104.025,200.030 105.239 L 200.000 106.278 195.362 106.543 C 190.813 106.803,190.702 106.789,189.532 105.804 C 186.177 102.981,181.001 106.935,182.998 110.796 C 184.633 113.959,189.635 113.971,190.735 110.815 C 191.163 109.587,194.516 108.665,197.800 108.873 L 199.800 109.000 199.665 111.467 C 199.507 114.365,199.693 114.541,203.393 114.990 C 205.665 115.266,207.424 115.792,210.260 117.044 C 210.954 117.350,211.625 117.600,211.753 117.600 C 212.528 117.600,217.050 120.991,219.600 123.484 C 222.653 126.469,223.698 126.905,223.929 125.288 C 224.446 121.658,212.464 114.135,203.100 112.211 C 202.293 112.045,202.002 111.747,202.006 111.092 C 202.022 108.831,203.375 108.759,209.325 110.702 C 212.135 111.620,212.511 111.660,213.064 111.108 C 214.561 109.610,212.382 108.455,205.400 107.048 C 203.084 106.581,202.995 106.517,202.870 105.225 L 202.741 103.886 205.270 104.107 C 222.174 105.585,238.220 123.283,238.901 141.200 L 239.000 143.800 237.813 143.800 C 236.506 143.800,236.700 144.331,235.622 137.800 C 234.631 131.795,231.403 124.314,229.698 124.072 C 228.211 123.861,228.169 125.055,229.572 127.669 C 231.780 131.781,233.600 138.203,233.600 141.880 L 233.600 143.600 229.700 143.595 C 224.737 143.588,224.269 143.446,223.033 141.578 C 220.276 137.411,214.200 139.187,214.200 144.159 C 214.200 148.989,220.493 151.209,222.717 147.164 L 223.400 145.920 228.391 146.185 C 234.373 146.501,233.839 146.030,233.002 150.250 C 231.808 156.263,229.814 160.872,226.563 165.130 C 225.049 167.112,224.886 168.600,226.183 168.600 C 227.642 168.600,231.235 163.362,233.760 157.550 C 234.437 155.992,235.556 151.327,235.955 148.400 C 236.193 146.651,236.243 146.596,237.738 146.474 C 239.233 146.351,239.269 146.378,239.043 147.474 C 238.915 148.093,238.549 150.130,238.231 152.000 C 237.615 155.618,237.509 155.996,236.317 158.800 C 233.722 164.903,230.870 169.172,226.762 173.103 C 224.275 175.483,220.019 178.782,219.400 178.809 C 218.835 178.834,217.200 180.251,217.200 180.715 C 217.200 185.780,231.533 173.835,236.417 164.700 C 237.603 162.482,238.485 161.906,239.420 162.738 C 239.629 162.924,241.665 163.772,243.945 164.623 C 248.811 166.438,248.806 166.430,247.250 169.458 C 242.763 178.185,236.105 185.437,233.274 184.682 C 228.166 183.318,224.892 190.814,229.383 193.589 C 233.068 195.867,237.708 192.701,237.035 188.367 C 236.826 187.024,236.968 186.785,239.306 184.544 C 245.054 179.035,252.311 167.630,251.468 165.432 C 251.276 164.932,248.133 163.200,247.418 163.200 C 247.293 163.200,246.428 162.862,245.496 162.448 C 244.563 162.035,242.810 161.296,241.600 160.807 C 238.634 159.607,238.693 159.744,239.772 156.589 C 243.401 145.970,241.395 130.517,235.194 121.329 C 234.537 120.356,234.000 119.404,234.000 119.213 C 234.000 119.023,233.865 118.807,233.700 118.733 C 233.535 118.660,232.681 117.706,231.803 116.614 C 224.896 108.027,214.111 102.114,203.910 101.323 C 201.468 101.133,200.777 101.200,200.615 101.641 M210.082 103.032 C 233.069 109.450,246.999 135.317,239.115 156.945 C 237.985 160.043,238.010 160.068,244.551 162.590 C 251.792 165.382,251.677 165.253,249.995 168.679 C 248.618 171.485,245.704 176.447,245.226 176.800 C 245.077 176.910,244.282 177.900,243.461 179.000 C 242.639 180.100,240.598 182.386,238.926 184.080 C 235.994 187.051,235.903 187.200,236.357 188.297 C 237.808 191.800,232.073 195.600,229.226 193.023 C 225.470 189.625,229.636 183.265,234.066 185.635 C 235.806 186.567,244.177 176.794,247.799 169.603 C 249.476 166.272,249.446 165.981,247.350 165.274 C 245.158 164.535,243.376 163.844,240.499 162.619 C 237.634 161.399,237.585 161.412,236.402 163.698 C 233.610 169.088,226.439 176.881,221.671 179.703 C 217.280 182.303,216.449 181.389,220.700 178.634 C 224.943 175.885,233.200 167.663,233.200 166.187 C 233.200 166.009,233.458 165.578,233.773 165.230 C 235.342 163.496,238.421 154.912,239.204 150.088 C 239.809 146.356,239.661 146.000,237.497 146.000 L 235.768 146.000 235.070 150.100 C 233.996 156.411,230.934 163.476,227.876 166.700 C 225.544 169.159,224.784 168.132,226.964 165.467 C 230.404 161.264,232.836 155.304,233.972 148.299 C 234.388 145.738,234.209 145.650,228.463 145.575 L 223.561 145.512 222.281 146.942 C 220.626 148.790,218.739 149.161,216.876 148.004 C 213.123 145.675,214.348 140.000,218.603 140.000 C 220.986 140.000,221.455 140.245,222.793 142.190 L 223.959 143.884 228.839 144.170 C 234.513 144.502,234.549 144.482,234.178 141.200 C 233.633 136.373,232.107 131.284,230.045 127.421 C 229.223 125.880,228.920 124.920,229.175 124.665 C 230.745 123.095,234.950 133.892,235.536 141.000 L 235.800 144.200 237.700 144.322 L 239.600 144.444 239.600 142.355 C 239.600 133.294,235.403 123.381,228.383 115.865 C 223.371 110.498,216.816 106.441,210.200 104.610 C 203.118 102.651,202.554 102.658,202.304 104.700 C 202.044 106.828,202.222 107.067,204.281 107.349 C 208.638 107.946,213.225 109.789,212.654 110.712 C 212.472 111.007,211.455 110.812,209.493 110.107 C 207.684 109.456,205.701 109.054,204.200 109.034 L 201.800 109.000 201.673 110.553 C 201.511 112.522,201.682 112.670,204.660 113.148 C 211.010 114.166,223.600 122.093,223.600 125.073 C 223.600 126.229,222.196 125.480,220.119 123.216 C 216.339 119.097,209.122 115.192,204.165 114.583 C 200.049 114.078,199.950 113.993,200.084 111.104 L 200.200 108.600 196.142 108.663 C 192.088 108.727,190.400 109.164,190.400 110.153 C 190.400 111.417,188.823 112.523,186.965 112.562 C 182.667 112.652,181.713 107.154,185.760 105.615 C 187.406 104.989,187.846 105.090,189.386 106.441 C 190.796 107.679,190.806 107.681,193.332 107.241 C 194.726 106.999,196.865 106.800,198.086 106.800 C 200.547 106.800,200.783 106.517,200.795 103.567 C 200.803 101.216,203.105 101.084,210.082 103.032 M185.450 107.393 C 184.494 108.117,184.481 109.977,185.426 110.669 C 186.919 111.760,189.200 110.909,189.200 109.260 C 189.200 107.274,187.033 106.195,185.450 107.393 M187.991 107.991 C 189.330 109.330,187.626 111.243,185.900 110.339 C 184.579 109.647,185.338 107.276,186.900 107.212 C 187.065 107.205,187.556 107.556,187.991 107.991 M251.862 133.131 C 250.197 134.971,251.485 138.000,253.931 138.000 C 256.364 138.000,257.624 135.355,256.177 133.289 C 255.376 132.145,252.839 132.052,251.862 133.131 M255.511 133.423 C 257.126 134.554,256.079 137.600,254.075 137.600 C 253.015 137.600,251.600 136.118,251.600 135.007 C 251.600 134.006,252.911 132.800,254.000 132.800 C 254.342 132.800,255.022 133.080,255.511 133.423 M167.000 136.683 C 165.060 137.140,164.230 139.835,165.381 141.938 C 165.701 142.522,166.343 145.396,166.807 148.324 C 168.333 157.936,174.305 167.523,180.800 170.786 C 183.524 172.154,184.286 170.129,181.697 168.400 C 179.810 167.139,174.244 161.426,173.554 160.041 C 173.268 159.469,172.835 158.730,172.591 158.400 C 171.462 156.875,169.634 151.034,169.167 147.461 L 168.660 143.583 169.930 142.272 C 171.722 140.423,171.250 136.800,169.217 136.800 C 169.024 136.800,168.626 136.731,168.333 136.648 C 168.040 136.564,167.440 136.580,167.000 136.683 M170.086 138.125 C 170.744 139.160,170.402 141.054,169.400 141.925 C 164.934 145.808,172.437 162.683,181.300 168.690 C 183.454 170.149,183.270 171.490,181.074 170.344 C 173.883 166.595,166.800 153.810,166.800 144.579 C 166.800 143.535,166.465 142.278,165.958 141.418 C 164.140 138.338,168.175 135.119,170.086 138.125 M167.261 138.899 C 166.240 139.920,167.213 141.435,168.461 140.767 C 168.868 140.550,169.200 140.115,169.200 139.800 C 169.200 138.961,167.834 138.326,167.261 138.899 M168.400 139.824 C 168.400 140.413,167.923 140.590,167.494 140.161 C 167.134 139.800,167.630 138.771,168.042 139.026 C 168.239 139.148,168.400 139.507,168.400 139.824 M161.199 140.602 C 159.681 142.430,161.571 154.243,164.293 159.945 L 165.699 162.891 164.550 163.831 C 163.917 164.348,163.289 164.778,163.153 164.786 C 162.949 164.798,159.899 166.744,156.700 168.904 C 155.530 169.694,155.773 170.314,158.979 174.712 C 159.964 176.061,165.975 182.126,167.400 183.207 C 167.840 183.540,168.830 184.291,169.600 184.874 C 178.442 191.574,193.451 195.152,205.541 193.443 C 209.936 192.822,210.089 192.670,209.825 189.200 C 209.168 180.590,209.369 173.845,210.297 173.379 C 216.658 170.188,214.584 160.400,207.546 160.400 C 200.019 160.400,198.343 170.826,205.397 173.773 L 206.800 174.359 206.802 179.080 C 206.804 181.676,206.918 185.248,207.055 187.018 L 207.306 190.237 205.753 190.700 C 199.229 192.646,185.937 190.770,177.861 186.762 C 169.080 182.406,155.791 169.600,160.050 169.600 C 160.272 169.600,161.043 169.150,161.764 168.600 C 162.486 168.050,163.206 167.600,163.366 167.600 C 163.525 167.600,164.435 167.064,165.387 166.409 L 167.118 165.218 168.507 166.909 C 174.975 174.786,184.066 180.194,192.200 181.001 C 195.830 181.361,195.427 180.962,191.583 180.388 C 183.337 179.158,175.013 174.104,169.037 166.700 C 167.167 164.383,167.525 164.377,163.731 166.800 C 162.009 167.901,160.195 168.976,159.700 169.191 C 158.318 169.789,158.610 170.925,160.854 173.679 C 167.782 182.181,174.726 186.782,186.000 190.336 C 190.298 191.691,198.455 192.275,203.713 191.605 L 207.665 191.102 207.581 184.651 C 207.440 173.877,207.424 173.794,205.317 172.990 C 198.873 170.529,200.451 161.274,207.338 161.136 C 213.779 161.007,215.942 169.549,210.240 172.600 L 208.745 173.400 209.026 182.855 L 209.306 192.310 206.353 192.838 C 189.100 195.921,169.545 187.965,158.737 173.465 C 155.812 169.541,155.608 170.149,160.975 166.799 C 166.793 163.167,166.698 163.288,165.466 161.080 C 162.069 154.997,159.790 141.315,162.100 140.875 C 162.723 140.756,162.801 141.127,162.807 144.271 C 162.818 150.020,164.776 157.324,167.408 161.439 C 168.173 162.636,168.800 163.728,168.800 163.865 C 168.800 165.215,176.755 172.689,180.391 174.757 C 183.201 176.354,185.852 177.600,186.440 177.600 C 186.804 177.600,187.709 177.845,188.451 178.144 C 189.193 178.443,191.201 178.919,192.913 179.202 C 196.282 179.760,196.946 180.201,195.761 181.097 C 195.018 181.658,195.019 181.669,195.800 181.533 C 198.206 181.113,196.951 179.297,193.923 178.814 C 175.787 175.923,163.200 161.413,163.200 143.399 C 163.200 141.111,163.064 140.433,162.567 140.243 C 161.731 139.922,161.771 139.911,161.199 140.602 M147.670 142.126 C 145.352 144.593,148.135 148.185,151.155 146.623 C 153.008 145.665,153.324 143.974,151.971 142.254 C 150.887 140.876,148.899 140.817,147.670 142.126 M216.829 142.254 C 214.331 145.430,218.720 149.062,221.300 145.954 C 222.834 144.107,221.428 141.200,219.000 141.200 C 218.027 141.200,217.430 141.490,216.829 142.254 M151.435 142.429 C 152.589 143.387,151.355 147.289,150.085 146.696 C 147.191 145.342,146.583 144.108,148.045 142.552 C 148.974 141.564,150.333 141.514,151.435 142.429 M220.778 142.574 C 222.113 144.182,219.722 147.882,218.281 146.441 C 217.960 146.120,218.112 146.000,218.840 146.000 C 220.061 146.000,220.800 145.321,220.800 144.200 C 220.800 143.118,220.070 142.400,218.969 142.400 C 217.697 142.400,217.059 143.381,217.343 144.901 C 217.570 146.113,217.546 146.148,216.993 145.424 C 215.329 143.245,219.025 140.462,220.778 142.574 M251.608 142.514 C 247.733 144.474,249.763 150.308,254.175 149.890 C 256.718 149.649,257.600 148.646,257.600 145.991 C 257.600 142.800,254.546 141.027,251.608 142.514 M148.380 143.024 C 147.706 143.836,148.333 145.738,149.338 145.931 C 150.213 146.100,151.600 144.926,151.600 144.018 C 151.600 142.495,149.386 141.812,148.380 143.024 M255.587 142.993 C 257.816 144.146,257.689 147.989,255.384 149.088 C 251.267 151.052,247.956 145.173,251.955 143.000 C 253.308 142.265,254.175 142.263,255.587 142.993 M150.728 144.100 C 150.644 144.691,150.325 145.000,149.800 145.000 C 149.275 145.000,148.956 144.691,148.872 144.100 C 148.767 143.362,148.934 143.200,149.800 143.200 C 150.666 143.200,150.833 143.362,150.728 144.100 M220.140 143.788 C 220.361 144.364,219.460 145.600,218.820 145.600 C 218.207 145.600,217.587 144.499,217.836 143.851 C 218.147 143.039,219.835 142.994,220.140 143.788 M252.250 144.607 C 251.384 145.473,251.429 146.521,252.367 147.370 C 254.037 148.882,256.663 146.859,255.440 145.004 C 254.761 143.976,253.090 143.768,252.250 144.607 M255.119 145.835 C 255.295 147.063,254.332 147.706,253.049 147.218 C 252.472 146.999,252.000 146.581,252.000 146.290 C 252.000 144.700,254.897 144.278,255.119 145.835 M151.323 152.100 C 150.225 152.603,150.011 153.148,150.450 154.327 C 151.003 155.815,152.961 155.404,153.120 153.766 C 153.270 152.228,152.534 151.545,151.323 152.100 M152.600 153.572 C 152.600 154.635,152.087 154.968,151.257 154.443 C 150.911 154.224,150.814 153.784,150.991 153.227 C 151.366 152.045,152.600 152.310,152.600 153.572 M249.317 154.482 C 247.974 155.920,247.814 157.256,248.830 158.547 C 250.637 160.845,253.297 160.671,254.645 158.167 C 256.369 154.968,251.808 151.813,249.317 154.482 M253.600 154.800 C 255.282 156.482,254.064 159.600,251.726 159.600 C 250.325 159.600,248.800 158.144,248.800 156.806 C 248.800 154.402,251.904 153.104,253.600 154.800 M250.555 156.172 C 250.157 157.210,250.715 158.068,251.698 157.928 C 252.359 157.834,252.600 157.533,252.600 156.800 C 252.600 155.619,250.961 155.116,250.555 156.172 M252.308 156.725 C 252.397 156.990,252.099 157.200,251.633 157.200 C 250.802 157.200,250.553 156.780,251.075 156.258 C 251.446 155.888,252.113 156.140,252.308 156.725 M152.225 158.721 C 151.893 159.767,152.303 160.681,153.209 160.918 C 154.315 161.208,155.299 160.320,155.138 159.178 C 154.954 157.877,152.610 157.510,152.225 158.721 M154.600 159.395 C 154.600 160.310,153.257 160.740,152.785 159.976 C 152.290 159.175,152.825 158.347,153.751 158.479 C 154.291 158.556,154.600 158.889,154.600 159.395 M204.353 163.953 C 201.043 167.263,203.543 172.488,208.141 171.872 C 212.448 171.294,213.591 165.543,209.858 163.236 C 207.739 161.926,206.176 162.130,204.353 163.953 M155.600 163.579 C 154.899 163.756,154.563 164.148,154.476 164.889 C 154.308 166.322,155.528 167.006,156.738 166.158 C 158.373 165.013,157.525 163.094,155.600 163.579 M210.200 164.164 C 211.823 165.463,211.942 168.559,210.430 170.168 C 208.633 172.081,204.912 171.400,203.647 168.926 C 201.678 165.076,206.741 161.397,210.200 164.164 M156.800 165.000 C 156.800 165.723,156.585 166.000,156.024 166.000 C 155.103 166.000,154.642 165.389,154.952 164.581 C 155.350 163.545,156.800 163.874,156.800 165.000 M169.812 175.100 C 168.684 177.992,183.398 185.447,193.300 187.001 C 194.125 187.130,194.800 187.411,194.800 187.624 C 194.800 189.330,198.387 189.660,200.099 188.110 C 202.967 185.515,199.420 181.848,195.756 183.621 C 193.321 184.800,188.053 183.752,181.322 180.749 C 180.399 180.337,179.535 180.000,179.402 180.000 C 179.166 180.000,174.395 176.808,174.000 176.386 C 172.288 174.557,170.267 173.936,169.812 175.100 M174.600 177.448 C 181.307 182.466,192.352 185.897,195.997 184.094 C 197.882 183.161,198.997 183.318,199.861 184.637 C 201.724 187.480,197.992 190.160,195.654 187.658 C 194.820 186.765,194.086 186.453,192.290 186.229 C 185.530 185.384,176.417 181.282,171.000 176.646 C 170.015 175.803,169.904 175.550,170.381 175.236 C 171.063 174.786,170.997 174.751,174.600 177.448 M155.183 178.038 C 150.853 179.627,153.153 187.149,157.691 186.242 C 158.851 186.010,161.184 187.461,163.247 189.698 C 163.603 190.084,164.031 190.400,164.199 190.400 C 164.367 190.400,165.381 191.030,166.453 191.800 C 167.525 192.570,168.467 193.200,168.546 193.200 C 168.625 193.200,170.005 193.923,171.613 194.807 C 177.461 198.021,187.758 201.200,192.324 201.200 C 193.174 201.200,193.832 201.591,194.708 202.616 C 197.172 205.501,201.078 204.905,202.257 201.464 C 203.788 196.996,197.397 194.127,194.650 198.050 C 192.786 200.712,174.831 194.766,166.600 188.761 C 161.206 184.826,161.160 184.772,161.063 182.229 C 160.934 178.837,158.239 176.917,155.183 178.038 M159.669 179.474 C 160.429 180.285,160.586 180.856,160.525 182.584 L 160.450 184.701 162.925 186.698 C 168.712 191.368,176.853 195.666,182.800 197.190 C 183.790 197.444,185.141 197.816,185.802 198.016 C 186.719 198.294,192.266 199.195,193.600 199.282 C 194.363 199.331,194.726 199.081,195.109 198.240 C 196.189 195.869,200.542 196.245,201.601 198.802 C 203.530 203.459,197.099 205.954,194.568 201.529 C 194.306 201.070,192.921 200.699,189.748 200.236 C 179.382 198.724,169.393 194.161,161.295 187.239 C 159.395 185.614,159.017 185.450,157.395 185.550 C 154.365 185.736,152.282 182.863,153.626 180.352 C 154.818 178.125,157.972 177.666,159.669 179.474 M155.280 180.480 C 153.914 181.846,155.020 184.000,157.089 184.000 C 158.764 184.000,159.599 182.595,158.873 181.000 C 158.368 179.892,156.184 179.576,155.280 180.480 M158.400 181.200 C 158.704 181.768,158.704 182.232,158.400 182.800 C 157.644 184.212,155.200 183.601,155.200 182.000 C 155.200 180.399,157.644 179.788,158.400 181.200 M196.663 185.379 C 196.360 186.169,196.747 187.202,197.343 187.194 C 198.218 187.182,198.878 186.499,198.735 185.752 C 198.556 184.813,196.989 184.531,196.663 185.379 M198.087 186.473 C 197.476 187.084,197.025 186.633,197.364 185.750 C 197.564 185.229,197.737 185.177,198.093 185.533 C 198.449 185.889,198.447 186.113,198.087 186.473 M230.182 187.382 C 228.975 188.589,228.905 190.332,230.016 191.525 C 232.138 193.803,235.970 191.224,234.769 188.325 C 233.929 186.298,231.720 185.844,230.182 187.382 M233.771 187.829 C 234.914 188.971,234.462 191.044,232.944 191.621 C 230.749 192.456,228.944 190.173,230.238 188.198 C 231.000 187.035,232.791 186.848,233.771 187.829 M196.662 198.731 C 194.806 200.782,197.123 203.326,199.626 201.986 C 200.622 201.453,200.646 199.547,199.669 198.662 C 198.709 197.794,197.485 197.822,196.662 198.731 M199.919 200.065 C 200.076 201.353,198.370 202.405,197.414 201.611 C 196.596 200.933,196.633 199.333,197.477 198.861 C 198.480 198.299,199.782 198.942,199.919 200.065 M87.391 232.635 C 87.176 232.687,86.505 232.839,85.900 232.973 L 84.800 233.215 84.800 252.582 C 84.800 275.170,84.616 274.000,88.166 274.000 C 89.589 274.000,90.860 273.827,90.990 273.615 C 91.286 273.137,91.309 252.375,91.014 252.081 C 90.896 251.963,90.800 256.582,90.800 262.346 C 90.800 270.373,90.683 272.865,90.300 272.994 C 85.312 274.675,85.600 275.891,85.600 253.153 L 85.600 233.200 87.900 233.205 L 90.200 233.210 91.900 235.770 C 92.835 237.178,93.600 238.423,93.600 238.536 C 93.600 238.650,94.320 239.827,95.200 241.152 C 96.080 242.477,96.800 243.663,96.800 243.787 C 96.800 243.911,97.408 244.955,98.152 246.106 C 100.060 249.063,104.551 256.334,105.496 258.000 C 107.646 261.786,108.133 262.433,108.743 262.316 C 109.096 262.248,112.853 256.524,117.094 249.596 C 128.296 231.292,126.864 233.200,129.399 233.200 C 132.078 233.200,131.820 230.880,131.693 253.852 L 131.585 273.167 130.132 273.439 C 129.333 273.589,128.211 273.547,127.639 273.346 L 126.600 272.981 126.515 259.238 C 126.437 246.790,126.337 244.703,125.845 245.233 C 125.760 245.325,122.065 251.340,117.634 258.600 C 107.884 274.575,108.744 274.146,103.981 265.400 C 103.501 264.520,102.528 262.900,101.817 261.800 C 99.435 258.114,92.897 247.356,92.205 245.983 C 91.740 245.060,90.800 244.938,90.800 245.800 C 90.800 246.130,91.034 246.400,91.320 246.400 C 91.607 246.400,92.607 247.705,93.544 249.300 C 96.467 254.277,96.865 254.928,98.656 257.662 C 99.615 259.126,100.400 260.443,100.400 260.589 C 100.400 260.734,100.829 261.426,101.354 262.127 C 101.878 262.827,102.430 263.805,102.581 264.300 C 102.731 264.795,103.022 265.200,103.227 265.200 C 103.432 265.200,103.600 265.408,103.600 265.662 C 103.600 265.916,104.050 266.714,104.600 267.436 C 105.150 268.157,105.600 268.912,105.600 269.113 C 105.600 269.786,107.997 272.800,108.533 272.800 C 109.394 272.800,110.456 271.350,114.680 264.400 C 116.887 260.770,119.841 255.949,121.246 253.686 C 122.651 251.423,124.250 248.813,124.800 247.886 L 125.800 246.200 125.905 259.566 C 125.977 268.615,126.154 273.104,126.454 273.466 C 126.991 274.112,131.428 274.203,131.815 273.575 C 132.010 273.261,132.181 240.189,132.022 233.700 C 131.978 231.911,127.075 232.388,125.853 234.300 C 124.860 235.855,120.103 243.540,119.400 244.726 C 119.180 245.097,118.370 246.458,117.600 247.751 C 116.830 249.045,115.750 250.864,115.200 251.793 C 108.693 262.794,108.766 262.719,107.275 259.973 C 106.045 257.707,103.526 253.639,101.547 250.720 C 100.696 249.465,100.000 248.307,100.000 248.146 C 100.000 247.984,99.325 246.798,98.500 245.508 C 97.675 244.219,96.447 242.301,95.771 241.247 C 95.095 240.192,93.893 238.171,93.101 236.755 C 91.073 233.128,89.632 232.088,87.391 232.635 M152.945 241.100 C 150.624 245.885,146.877 253.580,144.617 258.200 C 136.036 275.743,136.388 274.000,141.429 274.000 L 143.992 274.000 145.687 270.400 L 147.382 266.800 157.791 266.806 C 169.782 266.813,168.719 266.493,170.783 270.717 L 172.388 274.000 175.370 274.000 C 179.156 274.000,179.237 273.825,177.292 269.862 C 173.819 262.785,169.189 253.183,167.233 249.000 C 165.132 244.507,165.021 244.283,163.888 242.200 C 163.529 241.540,162.323 239.065,161.207 236.700 C 158.167 230.253,158.217 230.226,152.945 241.100 M206.531 232.830 C 206.105 232.987,205.153 233.810,204.416 234.658 C 202.193 237.216,196.405 243.506,192.913 247.161 L 189.625 250.600 189.613 242.149 C 189.598 232.321,189.756 232.705,185.799 232.881 L 183.126 233.000 183.180 252.980 C 183.242 275.686,182.968 274.085,186.763 273.917 L 189.400 273.800 189.507 263.872 L 189.614 253.944 191.707 256.092 C 192.858 257.273,195.134 259.671,196.765 261.420 C 198.396 263.169,201.789 266.715,204.306 269.300 L 208.882 274.000 211.592 274.000 C 217.085 274.000,216.875 273.555,206.200 262.563 C 201.360 257.579,197.256 253.254,197.080 252.951 C 196.641 252.194,196.916 251.798,200.800 247.592 C 202.670 245.567,205.370 242.632,206.800 241.070 C 208.230 239.508,210.165 237.438,211.100 236.470 C 212.781 234.730,213.270 233.324,212.300 233.016 C 211.254 232.684,207.273 232.555,206.531 232.830 M222.000 232.800 L 220.200 233.000 220.096 252.954 C 220.021 267.357,220.118 273.061,220.445 273.454 C 220.917 274.023,245.543 274.304,246.967 273.757 C 247.772 273.448,247.878 268.729,247.095 268.079 C 246.777 267.815,243.343 267.662,237.795 267.665 C 232.958 267.668,228.415 267.654,227.700 267.635 L 226.400 267.600 226.400 262.200 C 226.400 257.330,226.469 256.798,227.100 256.784 C 227.485 256.776,230.050 256.747,232.800 256.721 C 239.119 256.660,239.200 256.621,239.200 253.600 C 239.200 250.489,239.001 250.400,232.026 250.400 L 226.400 250.400 226.400 244.600 L 226.400 238.800 236.367 238.800 C 241.849 238.800,246.619 238.691,246.967 238.557 C 247.693 238.279,247.903 233.434,247.208 233.005 C 246.724 232.706,224.479 232.525,222.000 232.800 M253.770 232.920 C 252.996 233.354,252.909 272.749,253.680 273.520 C 253.944 273.784,255.168 274.000,256.400 274.000 C 259.588 274.000,259.600 273.973,259.600 266.963 C 259.600 260.982,259.614 260.884,260.500 260.706 C 261.755 260.454,268.657 260.665,269.151 260.970 C 269.589 261.240,275.600 269.878,275.600 270.237 C 275.600 272.100,279.076 274.092,282.035 273.923 C 284.743 273.769,284.962 273.110,283.127 270.628 C 282.397 269.641,281.385 268.240,280.878 267.516 C 280.370 266.792,278.959 264.798,277.741 263.085 C 275.531 259.978,275.331 258.800,277.013 258.800 C 277.840 258.800,281.591 254.749,282.405 252.977 C 285.852 245.468,283.016 237.367,275.755 233.982 C 273.252 232.815,255.486 231.957,253.770 232.920 M297.658 233.003 C 284.510 236.697,287.410 252.187,302.000 256.191 C 310.195 258.440,312.689 264.426,306.589 267.205 C 302.812 268.926,299.351 268.215,294.285 264.679 L 291.970 263.063 290.185 264.815 C 287.929 267.029,287.949 267.548,290.370 269.575 C 300.645 278.178,316.415 273.899,316.396 262.513 C 316.390 258.772,311.488 252.400,308.616 252.400 C 308.343 252.400,307.327 251.979,306.360 251.465 C 305.392 250.951,303.566 250.144,302.302 249.672 C 296.326 247.438,294.334 244.676,296.337 241.400 C 298.684 237.560,305.930 237.638,310.361 241.551 C 311.681 242.717,312.131 242.631,313.771 240.900 C 315.566 239.006,315.571 238.009,313.795 236.449 C 309.943 233.067,302.834 231.549,297.658 233.003 M161.242 237.900 C 162.597 240.705,164.831 245.340,166.206 248.200 C 169.564 255.184,176.252 268.991,177.297 271.097 C 178.285 273.088,178.211 273.215,175.932 273.445 C 173.189 273.722,172.641 273.428,171.585 271.111 C 171.056 269.950,170.220 268.341,169.728 267.535 L 168.834 266.070 158.317 266.045 C 146.234 266.017,147.317 265.712,145.472 269.663 C 143.833 273.176,143.797 273.209,141.365 273.407 C 137.686 273.707,137.679 273.615,140.943 266.974 C 142.341 264.128,144.257 260.180,145.200 258.200 C 146.143 256.220,149.049 250.214,151.657 244.853 C 154.266 239.493,156.400 235.031,156.400 234.939 C 156.400 234.406,157.778 232.800,158.235 232.800 C 158.536 232.800,159.879 235.079,161.242 237.900 M308.701 234.076 C 310.710 234.824,314.800 237.677,314.800 238.331 C 314.800 238.708,312.411 242.000,312.137 242.000 C 312.031 242.000,311.192 241.485,310.272 240.855 C 303.810 236.429,297.027 237.083,295.277 242.300 C 294.055 245.947,295.719 247.465,305.525 251.643 C 313.379 254.989,316.574 258.781,315.813 263.854 C 314.281 274.067,299.704 276.944,290.411 268.868 L 288.623 267.313 289.811 265.913 C 291.872 263.487,292.192 263.414,293.922 264.977 C 300.156 270.609,309.783 269.436,310.318 262.980 C 310.562 260.041,308.864 258.295,303.923 256.404 C 293.505 252.416,289.853 249.151,289.823 243.800 C 289.775 235.343,299.143 230.518,308.701 234.076 M188.786 233.974 C 189.033 234.435,189.200 238.047,189.200 242.907 C 189.200 247.395,189.305 251.172,189.433 251.300 C 189.561 251.428,191.756 249.253,194.311 246.466 C 196.865 243.680,199.056 241.310,199.178 241.200 C 199.301 241.090,200.998 239.245,202.950 237.100 L 206.499 233.200 209.449 233.200 C 212.634 233.200,213.235 233.728,211.654 235.136 C 211.243 235.501,209.758 237.065,208.354 238.610 C 206.949 240.156,203.970 243.396,201.733 245.810 C 196.015 251.981,195.805 252.271,196.447 253.112 C 196.936 253.753,200.251 257.222,210.314 267.623 C 214.106 271.541,215.135 273.152,213.900 273.233 C 209.523 273.520,208.678 273.249,206.400 270.836 C 205.190 269.554,201.410 265.582,198.000 262.009 C 194.590 258.436,191.369 254.992,190.842 254.356 C 189.267 252.456,189.200 252.807,189.200 262.951 C 189.200 274.034,189.295 273.716,186.111 273.339 C 183.433 273.021,183.570 274.206,183.621 251.900 L 183.664 233.200 186.018 233.200 C 187.936 233.200,188.449 233.343,188.786 233.974 M247.022 234.145 C 247.152 234.664,247.201 235.699,247.129 236.445 L 247.000 237.800 236.600 238.000 L 226.200 238.200 226.200 244.600 L 226.200 251.000 232.300 251.110 C 236.749 251.191,238.414 251.353,238.451 251.710 C 238.479 251.980,238.562 252.650,238.634 253.200 C 239.001 255.973,239.013 255.968,232.295 256.090 L 226.200 256.200 226.200 262.200 L 226.200 268.200 236.600 268.400 L 247.000 268.600 247.121 270.702 C 247.232 272.625,247.157 272.836,246.247 273.182 C 245.269 273.554,225.241 273.646,222.300 273.293 L 220.800 273.112 220.800 253.156 L 220.800 233.200 233.792 233.200 L 246.785 233.200 247.022 234.145 M274.498 233.932 C 284.848 237.582,286.455 251.715,277.233 257.978 L 274.814 259.620 277.481 263.510 C 278.948 265.650,280.626 268.030,281.209 268.800 C 284.172 272.712,284.183 273.307,281.287 273.307 C 278.468 273.307,278.090 272.977,274.189 267.122 C 268.999 259.331,269.944 260.000,264.130 260.000 C 260.457 260.000,259.198 260.127,259.193 260.500 C 259.049 270.195,258.951 272.783,258.721 273.013 C 258.167 273.566,254.356 273.376,253.977 272.777 C 253.576 272.142,253.447 234.864,253.843 233.833 C 254.212 232.871,271.730 232.955,274.498 233.932 M259.437 238.340 C 259.239 238.660,259.055 250.244,259.183 254.334 C 259.220 255.497,272.368 254.794,274.281 253.527 C 279.564 250.028,279.071 242.032,273.397 239.204 C 271.171 238.095,260.015 237.404,259.437 238.340 M273.384 239.801 C 277.092 241.672,278.547 246.159,276.655 249.892 C 274.762 253.626,272.864 254.360,265.333 254.268 L 259.800 254.200 259.691 246.472 L 259.583 238.743 265.691 238.872 C 270.834 238.981,272.050 239.128,273.384 239.801 M156.795 245.700 C 156.273 246.855,154.531 250.553,152.923 253.919 C 150.023 259.988,149.607 261.200,150.424 261.200 C 150.657 261.200,150.746 261.036,150.622 260.836 C 150.498 260.635,151.407 258.340,152.642 255.736 C 156.474 247.653,157.600 245.156,157.600 244.737 C 157.600 243.301,158.969 245.552,161.788 251.625 C 163.568 255.461,165.263 259.028,165.554 259.551 C 165.994 260.343,165.992 260.559,165.541 260.845 C 165.121 261.111,165.156 261.189,165.700 261.194 C 166.717 261.203,166.575 260.442,164.945 257.144 C 164.144 255.525,162.879 252.850,162.134 251.200 C 158.197 242.489,158.229 242.522,156.795 245.700 M153.900 261.096 C 155.275 261.174,157.525 261.174,158.900 261.096 C 160.275 261.018,159.150 260.954,156.400 260.954 C 153.650 260.954,152.525 261.018,153.900 261.096 M162.305 261.083 C 162.802 261.179,163.522 261.175,163.905 261.075 C 164.287 260.975,163.880 260.896,163.000 260.901 C 162.120 260.905,161.807 260.987,162.305 261.083 M296.510 285.627 C 289.272 286.565,282.909 292.832,282.038 299.881 C 279.743 318.452,303.821 327.259,313.744 311.479 C 321.585 299.010,311.379 283.699,296.510 285.627 M99.980 287.500 C 99.014 289.687,92.552 302.918,90.750 306.400 C 90.580 306.730,89.607 308.800,88.588 311.000 C 87.570 313.200,86.391 315.655,85.968 316.454 C 85.083 318.131,84.983 319.173,85.700 319.263 C 89.857 319.783,90.171 319.635,91.808 316.385 L 93.218 313.584 101.909 313.692 L 110.600 313.800 111.861 316.362 C 113.343 319.373,113.723 319.645,116.269 319.505 C 118.814 319.366,118.877 318.816,116.833 314.574 C 115.935 312.710,115.200 311.095,115.200 310.985 C 115.200 310.874,114.784 310.113,114.277 309.292 C 113.769 308.471,112.935 306.810,112.423 305.600 C 108.551 296.442,102.810 285.600,101.832 285.600 C 101.009 285.600,100.663 285.955,99.980 287.500 M121.153 286.100 C 121.030 287.397,121.552 288.642,126.400 298.600 C 128.415 302.738,133.971 314.391,135.222 317.104 C 137.031 321.025,137.762 320.630,140.876 314.050 C 144.549 306.288,146.249 302.734,149.505 296.000 C 154.789 285.076,154.738 285.492,150.764 285.679 L 148.200 285.800 146.514 289.200 C 145.586 291.070,144.438 293.500,143.962 294.600 C 143.186 296.395,141.962 299.045,138.424 306.593 L 137.302 308.986 136.007 306.193 C 135.295 304.657,134.111 302.140,133.377 300.600 C 132.643 299.060,130.990 295.460,129.704 292.600 C 126.279 284.981,126.802 285.600,123.786 285.600 C 122.009 285.600,121.185 285.756,121.153 286.100 M157.680 286.080 C 157.081 286.679,156.997 317.859,157.591 318.800 C 158.016 319.472,176.334 319.869,178.628 319.256 C 179.742 318.958,179.800 318.834,179.800 316.771 L 179.800 314.600 171.400 314.400 L 163.000 314.200 163.000 309.845 L 163.000 305.490 166.842 305.567 C 172.624 305.684,172.800 305.602,172.800 302.801 L 172.800 300.489 171.329 300.213 C 170.520 300.061,168.315 299.991,166.429 300.056 L 163.000 300.175 162.887 295.496 L 162.775 290.816 171.287 290.708 L 179.800 290.600 179.928 289.038 C 179.998 288.179,179.950 287.054,179.820 286.538 L 179.585 285.600 168.872 285.600 C 161.074 285.600,158.029 285.731,157.680 286.080 M184.650 286.215 C 184.201 287.383,184.364 317.986,184.824 318.844 C 185.229 319.602,185.651 319.632,194.924 319.560 C 206.211 319.472,206.000 319.529,206.000 316.586 L 206.000 314.400 199.900 314.368 C 196.545 314.351,192.990 314.303,192.000 314.261 L 190.200 314.187 190.000 299.993 L 189.800 285.800 187.350 285.682 C 185.384 285.588,184.850 285.693,184.650 286.215 M210.454 286.135 C 209.880 286.826,209.841 317.895,210.413 318.821 C 210.710 319.301,212.519 319.404,221.013 319.422 C 232.393 319.447,232.007 319.542,231.994 316.726 C 231.983 314.328,231.994 314.331,224.150 314.381 C 214.569 314.441,215.625 316.245,215.502 299.600 L 215.400 285.800 213.164 285.682 C 211.598 285.599,210.786 285.735,210.454 286.135 M237.067 285.867 C 236.920 286.013,236.800 293.565,236.800 302.649 L 236.800 319.164 238.261 319.438 C 239.064 319.588,240.189 319.547,240.761 319.346 L 241.800 318.981 241.905 302.837 C 241.980 291.252,241.881 286.539,241.556 286.147 C 241.091 285.587,237.566 285.367,237.067 285.867 M248.098 286.062 C 247.374 286.786,247.376 318.516,248.100 319.116 C 248.633 319.557,252.259 319.474,252.723 319.010 C 252.876 318.858,253.040 314.023,253.090 308.267 C 253.139 302.510,253.186 297.530,253.195 297.200 C 253.213 296.440,258.458 302.023,264.600 309.343 C 265.480 310.392,266.650 311.758,267.200 312.379 C 267.750 313.000,269.174 314.619,270.364 315.977 C 272.931 318.905,274.335 319.757,275.725 319.228 C 277.062 318.720,277.051 318.885,276.915 301.622 C 276.782 284.725,276.934 285.617,274.180 285.606 C 271.553 285.596,271.600 285.374,271.600 297.680 C 271.600 307.355,271.378 310.120,270.733 308.456 C 270.612 308.142,267.771 304.757,265.800 302.579 C 265.360 302.092,264.338 300.908,263.530 299.947 C 251.416 285.553,249.937 284.223,248.098 286.062 M106.061 293.500 C 108.048 297.625,110.218 302.164,110.885 303.586 C 111.551 305.008,113.424 308.862,115.048 312.150 C 118.573 319.289,118.518 318.800,115.798 318.800 L 113.597 318.800 112.352 316.015 L 111.106 313.230 102.453 313.115 C 92.355 312.981,93.000 312.809,91.404 316.057 L 90.154 318.600 87.877 318.720 C 86.625 318.786,85.600 318.741,85.600 318.621 C 85.600 318.501,87.019 315.477,88.753 311.901 C 90.486 308.326,93.651 301.800,95.784 297.400 C 97.917 293.000,100.041 288.635,100.502 287.700 C 101.813 285.046,102.167 285.415,106.061 293.500 M126.782 287.345 C 126.963 287.815,127.671 289.415,128.355 290.900 C 129.040 292.385,130.155 294.815,130.834 296.300 C 131.513 297.785,132.573 300.080,133.189 301.400 C 133.806 302.720,134.855 304.995,135.522 306.456 C 137.162 310.052,137.406 310.102,138.758 307.127 C 139.389 305.737,140.579 303.160,141.402 301.400 C 142.224 299.640,144.056 295.680,145.472 292.600 C 148.568 285.867,148.477 285.945,152.727 286.350 C 153.546 286.428,153.142 287.349,144.299 305.600 C 142.966 308.350,141.012 312.445,139.957 314.700 C 137.470 320.016,137.129 320.042,134.803 315.100 C 127.928 300.491,125.571 295.536,123.152 290.600 L 121.192 286.600 122.285 286.398 C 124.414 286.005,126.431 286.429,126.782 287.345 M178.320 286.286 C 179.140 286.474,179.227 286.697,179.120 288.348 L 179.000 290.200 170.700 290.308 L 162.400 290.416 162.400 295.608 L 162.400 300.800 167.400 300.800 L 172.400 300.800 172.400 302.788 L 172.400 304.775 167.500 304.888 L 162.600 305.000 162.600 309.800 L 162.600 314.600 170.855 314.708 C 180.035 314.828,179.904 314.782,179.327 317.666 L 179.097 318.813 168.649 318.707 L 158.200 318.600 158.000 306.600 C 157.695 288.293,157.795 286.490,159.126 286.272 C 160.657 286.022,177.216 286.034,178.320 286.286 M188.900 286.348 C 189.065 286.377,189.203 292.565,189.206 300.100 C 189.209 307.635,189.353 314.021,189.524 314.291 C 189.749 314.645,192.006 314.813,197.618 314.891 L 205.400 315.000 205.400 316.800 L 205.400 318.600 195.300 318.707 L 185.200 318.814 185.200 302.636 C 185.200 284.422,184.918 285.664,188.900 286.348 M214.495 286.367 C 215.139 286.398,215.197 287.433,215.295 300.500 L 215.400 314.600 223.200 314.800 L 231.000 315.000 231.122 316.900 L 231.244 318.800 221.022 318.800 L 210.800 318.800 210.800 302.629 C 210.800 284.957,210.659 286.010,213.000 286.251 C 213.440 286.296,214.113 286.348,214.495 286.367 M275.705 286.367 C 276.819 286.419,276.585 318.515,275.468 318.730 C 274.137 318.986,272.627 317.971,270.400 315.323 C 269.190 313.884,267.300 311.676,266.200 310.415 C 265.100 309.155,263.210 306.988,262.000 305.600 C 260.790 304.212,259.302 302.519,258.693 301.838 C 258.084 301.157,256.644 299.477,255.493 298.105 C 252.294 294.291,252.400 293.979,252.400 307.221 L 252.400 318.842 250.300 318.721 L 248.200 318.600 248.200 302.600 L 248.200 286.600 249.637 286.480 C 251.004 286.365,251.241 286.550,254.497 290.280 C 264.232 301.429,268.729 306.661,269.938 308.246 C 271.985 310.928,272.000 310.859,272.000 298.629 C 272.000 286.390,272.063 286.012,274.064 286.231 C 274.579 286.287,275.317 286.348,275.705 286.367 M302.880 286.450 C 315.687 289.170,320.284 304.983,310.946 314.196 C 300.362 324.639,282.409 317.218,282.409 302.400 C 282.409 291.764,292.153 284.172,302.880 286.450 M241.291 302.239 C 241.413 319.948,241.549 318.897,239.160 318.726 L 237.400 318.600 237.295 302.500 L 237.191 286.400 239.186 286.400 L 241.182 286.400 241.291 302.239 M296.600 290.250 C 285.010 293.226,283.250 308.436,293.888 313.673 C 308.180 320.709,318.808 299.517,304.967 291.583 C 302.937 290.420,298.619 289.731,296.600 290.250 M304.385 291.792 C 315.412 297.495,311.565 314.400,299.241 314.400 C 286.861 314.400,282.793 297.612,293.792 291.915 C 296.730 290.393,301.571 290.337,304.385 291.792 M100.820 296.100 C 100.504 296.815,99.098 299.804,97.696 302.741 C 96.294 305.679,95.243 308.334,95.361 308.641 C 95.610 309.291,108.180 309.480,108.575 308.841 C 108.697 308.643,107.612 305.988,106.163 302.941 C 104.715 299.893,103.285 296.815,102.985 296.100 C 102.686 295.385,102.206 294.800,101.918 294.800 C 101.631 294.800,101.137 295.385,100.820 296.100 M105.104 301.846 C 106.701 305.266,107.907 308.228,107.783 308.428 C 107.484 308.912,95.799 308.669,95.804 308.178 C 95.807 307.970,96.482 306.405,97.304 304.700 C 98.127 302.995,99.438 300.250,100.218 298.600 C 102.022 294.785,101.710 294.578,105.104 301.846 " stroke="none" fill="#6996b8" fill-rule="evenodd"></path></g></svg>