<?xml version="1.0" encoding="UTF-8" standalone="no"?>
<svg
   xmlns:dc="http://purl.org/dc/elements/1.1/"
   xmlns:cc="http://creativecommons.org/ns#"
   xmlns:rdf="http://www.w3.org/1999/02/22-rdf-syntax-ns#"
   xmlns:svg="http://www.w3.org/2000/svg"
   xmlns="http://www.w3.org/2000/svg"
   xmlns:sodipodi="http://sodipodi.sourceforge.net/DTD/sodipodi-0.dtd"
   xmlns:inkscape="http://www.inkscape.org/namespaces/inkscape"
   xml:space="preserve"
   enable-background="new 0 0 488.122 215.085"
   viewBox="0 0 95.109228 123.96945"
   height="123.96945"
   width="95.10923"
   y="0px"
   x="0px"
   id="Layer_1"
   version="1.1"
   inkscape:version="0.91 r13725"
   sodipodi:docname="bg.svg"><sodipodi:namedview
     pagecolor="#ffffff"
     bordercolor="#666666"
     borderopacity="1"
     objecttolerance="10"
     gridtolerance="10"
     guidetolerance="10"
     inkscape:pageopacity="0"
     inkscape:pageshadow="2"
     inkscape:window-width="1436"
     inkscape:window-height="855"
     id="namedview55"
     showgrid="false"
     inkscape:zoom="1.7962976"
     inkscape:cx="182.53449"
     inkscape:cy="56.66596"
     inkscape:window-x="4"
     inkscape:window-y="0"
     inkscape:window-maximized="1"
     inkscape:current-layer="Layer_1"
     fit-margin-top="0"
     fit-margin-left="0"
     fit-margin-right="0"
     fit-margin-bottom="0" /><metadata
     id="metadata3550"><rdf:RDF><cc:Work
         rdf:about=""><dc:format>image/svg+xml</dc:format><dc:type
           rdf:resource="http://purl.org/dc/dcmitype/StillImage" /><dc:title></dc:title></cc:Work></rdf:RDF></metadata><defs
     id="defs3548" /><linearGradient
     gradientTransform="matrix(0.7092,0,0,-0.7437,193.8556,272.8231)"
     y2="135.5956"
     x2="-92.416"
     y1="340.63351"
     x1="-152.57291"
     gradientUnits="userSpaceOnUse"
     id="path10371_1_"><stop
       id="stop3467"
       style="stop-color:#FFDA01"
       offset="0" /><stop
       id="stop3469"
       style="stop-color:#FF9E01"
       offset="1" /></linearGradient><linearGradient
     gradientTransform="matrix(1,0,0,-1,553.41567,230.72168)"
     y2="109.2187"
     x2="-225.23779"
     y1="158.7679"
     x1="-233.6564"
     gradientUnits="userSpaceOnUse"
     id="path13898_1_"><stop
       id="stop3474"
       style="stop-color:#FFFFFF"
       offset="0" /><stop
       id="stop3476"
       style="stop-color:#FFFFFF;stop-opacity:0"
       offset="1" /></linearGradient><radialGradient
     gradientUnits="userSpaceOnUse"
     gradientTransform="matrix(1.1609,0,0,-0.592,308.1707,138.283)"
     r="41.8522"
     cy="-4.0836"
     cx="-174.2735"
     id="path14783_1_"><stop
       id="stop3480"
       style="stop-color:#F8A900"
       offset="0" /><stop
       id="stop3482"
       style="stop-color:#FFCE02;stop-opacity:0.498"
       offset="0.8571" /><stop
       id="stop3484"
       style="stop-color:#FFDA01;stop-opacity:0"
       offset="1" /></radialGradient><path
     d="m 53.882482,123.95299 c 19.36,-2.56 14.219,-23.69 19.507,-41.260005 5.452,-18.115 28.630998,-45.464 19.691,-56.059 -10.432,-12.363 -18.335,-6.34 -24.341,-10.461 -6.006,-4.121 -9.483,-16.48399974 -23.076,-16.16699974 -13.593,0.317 -15.173,16.16699974 -21.18,16.16699974 -6.006,0 -14.8570005,-8.2419997 -22.4440005,6.34 -5.363,10.307 0.678,43.206 8.5350005,61.181 10.116,23.141005 21.496,40.893005 43.308,40.259005 l 0,0 z"
     id="path9492"
     inkscape:connector-curvature="0" /><radialGradient
     gradientUnits="userSpaceOnUse"
     gradientTransform="matrix(2.4421,0.7612,0.5059,-1.623,-52.063518,226.91829)"
     r="45.389599"
     cy="121.797"
     cx="7.9354"
     id="path21800_1_"><stop
       id="stop3489"
       style="stop-color:#FFB904"
       offset="0" /><stop
       id="stop3491"
       style="stop-color:#F89900"
       offset="1" /></radialGradient><path
     d="m 52.771482,121.53999 c 18.479,-2.471 13.572,-22.862005 18.619,-39.819005 5.204,-17.482 27.328,-43.876 18.795,-54.101 -9.957,-11.931 -17.5,-6.119 -23.233,-10.096 -5.733,-3.977 -9.052,-15.9079997 -22.026,-15.6019997 -12.974,0.305 -14.483,15.6019997 -20.215,15.6019997 -5.733,0 -14.181,-7.9539997 -21.4220005,6.119 -5.119,9.947 0.647,41.698 8.1470005,59.045 9.654,22.332005 20.516,39.464005 41.335,38.852005 l 0,0 z"
     id="path21800"
     inkscape:connector-curvature="0"
     style="fill:url(#path21800_1_)" /></svg>