<?xml version="1.0" encoding="utf-8"?>
<!-- Generator: Adobe Illustrator 16.0.0, SVG Export Plug-In . SVG Version: 6.00 Build 0)  -->
<!DOCTYPE svg PUBLIC "-//W3C//DTD SVG 1.1//EN" "http://www.w3.org/Graphics/SVG/1.1/DTD/svg11.dtd">
<svg version="1.1" id="Livello_1" xmlns="http://www.w3.org/2000/svg" xmlns:xlink="http://www.w3.org/1999/xlink" x="0px" y="0px"
	 width="661.276px" height="907.89px" viewBox="0 0 661.276 907.89" enable-background="new 0 0 661.276 907.89"
	 xml:space="preserve">
<polygon fill="#E75300" points="586.464,629.685 520.472,650.423 89.775,650.423 59.418,662.222 33.061,680.72 33.061,883.394 
	636.779,883.394 636.779,615.565 625.699,610.466 "/>
<g>
	<defs>
		<rect id="SVGID_1_" x="24.496" y="24.496" width="612.284" height="858.898"/>
	</defs>
	<clipPath id="SVGID_2_">
		<use xlink:href="#SVGID_1_"  overflow="visible"/>
	</clipPath>
	<path clip-path="url(#SVGID_2_)" fill="none" stroke="#007481" stroke-width="8.492" stroke-miterlimit="10" d="M728.689,465.779
		h-0.05c-1.262-31.149-26.902-56.01-58.351-56.01c-31.48,0-57.123,24.861-58.383,56.01v-0.083c0,7.697,6.17,13.982,13.834,13.982
		c7.678,0,13.866-6.235,13.866-13.899c-1.246-31.149-26.903-56.01-58.353-56.01c-31.446,0-57.105,24.861-58.349,56.01h-0.066
		c0,0-7.994,67.39,107.578,144.682c0,0,54.701,36.207,98.272,38.43"/>
	<path clip-path="url(#SVGID_2_)" fill="none" stroke="#007481" stroke-width="8.492" stroke-miterlimit="10" d="M620.996,610.46
		c0,0-54.701,36.207-98.289,38.43"/>
	<path clip-path="url(#SVGID_2_)" fill="none" stroke="#007481" stroke-width="8.492" stroke-miterlimit="10" d="M728.508,465.779
		h0.065c0,0,7.995,67.39-107.578,144.682"/>
	<path clip-path="url(#SVGID_2_)" fill="#FFFFFF" d="M190.52,720.027c4.793-0.065,9.454-0.579,13.964-1.524
		c28.828-3.153,91.989-9.687,117.166-9.687c24.813-0.034,86.613,6.353,115.654,9.504c5.025,1.095,10.185,1.759,15.542,1.759
		c38.877,0,70.425-31.531,70.425-70.442c0-38.895-31.548-70.408-70.425-70.408c-5.225,0-10.284,0.598-15.177,1.692
		c-28.859,3.135-91.107,9.553-116.02,9.587c-25.079,0-87.875-6.469-116.833-9.587c-4.876-1.095-9.919-1.692-15.128-1.692
		c-38.91,0-70.423,31.514-70.423,70.408c0,38.911,30.402,70.325,69.296,70.325l1.127,0.166
		C189.688,720.127,190.104,720.079,190.52,720.027"/>
	<path clip-path="url(#SVGID_2_)" fill="none" stroke="#8C7965" stroke-width="8.492" stroke-miterlimit="10" d="M190.52,720.027
		c4.793-0.065,9.454-0.579,13.964-1.524c28.828-3.153,91.989-9.687,117.166-9.687c24.813-0.034,86.613,6.353,115.654,9.504
		c5.025,1.095,10.185,1.759,15.542,1.759c38.877,0,70.425-31.531,70.425-70.442c0-38.895-31.548-70.408-70.425-70.408
		c-5.225,0-10.284,0.598-15.177,1.692c-28.859,3.135-91.107,9.553-116.02,9.587c-25.079,0-87.875-6.469-116.833-9.587
		c-4.876-1.095-9.919-1.692-15.128-1.692c-38.91,0-70.423,31.514-70.423,70.408c0,38.911,30.402,70.325,69.296,70.325l1.127,0.166
		C189.688,720.127,190.104,720.079,190.52,720.027z"/>
	<path clip-path="url(#SVGID_2_)" fill="none" stroke="#007481" stroke-width="8.492" stroke-miterlimit="10" d="M-11.467,775.051
		v0.185c2.903-71.687,61.933-128.927,134.347-128.893"/>
	
		<line clip-path="url(#SVGID_2_)" fill="none" stroke="#8C7965" stroke-width="8.492" stroke-miterlimit="10" x1="452.846" y1="580.157" x2="452.846" y2="719.215"/>
	
		<line clip-path="url(#SVGID_2_)" fill="none" stroke="#E75300" stroke-width="8.492" stroke-miterlimit="10" x1="180.236" y1="716.992" x2="180.236" y2="582.379"/>
	
		<line clip-path="url(#SVGID_2_)" fill="none" stroke="#8C7965" stroke-width="8.492" stroke-miterlimit="10" x1="204.916" y1="580.919" x2="204.916" y2="718.501"/>
	
		<line clip-path="url(#SVGID_2_)" fill="none" stroke="#007481" stroke-width="8.492" stroke-miterlimit="10" x1="278.393" y1="588.931" x2="278.393" y2="710.789"/>
	<path clip-path="url(#SVGID_2_)" fill="none" stroke="#8C7965" stroke-width="8.492" stroke-miterlimit="10" d="M190.52,720.027
		c4.793-0.065,9.454-0.579,13.964-1.524c28.828-3.153,91.989-9.687,117.166-9.687c24.813-0.034,86.613,6.353,115.654,9.504
		c5.025,1.095,10.185,1.759,15.542,1.759c38.877,0,70.425-31.531,70.425-70.442c0-38.895-31.548-70.408-70.425-70.408
		c-5.225,0-10.284,0.598-15.177,1.692c-28.859,3.135-91.107,9.553-116.02,9.587c-25.079,0-87.875-6.469-116.833-9.587
		c-4.876-1.095-9.919-1.692-15.128-1.692c-38.91,0-70.423,31.514-70.423,70.408c0,38.911,30.402,70.325,69.296,70.325l1.127,0.166
		C189.688,720.127,190.104,720.079,190.52,720.027z"/>
	<path clip-path="url(#SVGID_2_)" fill="#007481" d="M326.825,657.614c3.084-3.052,3.05-8.027,0-11.128
		c-3.069-3.053-8.029-3.053-11.13,0c-3.069,3.101-3.069,8.076,0,11.128C318.764,660.714,323.756,660.714,326.825,657.614"/>
	<path clip-path="url(#SVGID_2_)" fill="#E75300" d="M252.384,640.928c-6.136-6.136-16.055-6.136-22.257,0
		c-6.137,6.17-6.137,16.139,0,22.26c6.136,6.168,16.121,6.168,22.257,0C258.571,657.017,258.522,647.098,252.384,640.928
		 M241.273,659.969l-7.896-7.895l7.896-7.861l7.86,7.861L241.273,659.969z"/>
	<path clip-path="url(#SVGID_2_)" fill="#E75300" d="M412.376,640.928c-6.121-6.136-16.056-6.136-22.26,0
		c-6.119,6.17-6.119,16.139,0,22.26c6.171,6.168,16.139,6.168,22.26,0C418.578,657.017,418.513,647.098,412.376,640.928
		 M401.263,659.969l-7.862-7.895l7.862-7.861l7.895,7.861L401.263,659.969z"/>
</g>
<g>
	<defs>
		<rect id="SVGID_3_" x="24.496" y="24.496" width="612.284" height="858.898"/>
	</defs>
	<clipPath id="SVGID_4_">
		<use xlink:href="#SVGID_3_"  overflow="visible"/>
	</clipPath>
	<polyline clip-path="url(#SVGID_4_)" fill="none" stroke="#8C7965" stroke-width="2.4" stroke-miterlimit="10" points="
		633.998,189.467 633.998,284.941 650.156,284.941 	"/>
</g>
<polyline fill="none" stroke="#8C7965" stroke-width="2.4" stroke-miterlimit="10" points="602.028,189.467 602.028,273.089 
	565.013,273.089 "/>
<rect x="551.386" y="144.539" fill="none" stroke="#EDAA00" stroke-width="2.4" stroke-miterlimit="10" width="11.766" height="16.74"/>
<rect x="551.386" y="161.28" fill="none" stroke="#EDAA00" stroke-width="2.4" stroke-miterlimit="10" width="11.766" height="16.74"/>
<rect x="563.152" y="144.539" fill="none" stroke="#EDAA00" stroke-width="2.4" stroke-miterlimit="10" width="11.765" height="16.74"/>
<rect x="563.152" y="161.28" fill="none" stroke="#EDAA00" stroke-width="2.4" stroke-miterlimit="10" width="11.765" height="16.74"/>
<rect x="574.917" y="144.539" fill="none" stroke="#EDAA00" stroke-width="2.4" stroke-miterlimit="10" width="11.765" height="16.74"/>
<rect x="574.917" y="161.28" fill="none" stroke="#EDAA00" stroke-width="2.4" stroke-miterlimit="10" width="11.765" height="16.74"/>
<rect x="586.682" y="144.539" fill="none" stroke="#EDAA00" stroke-width="2.4" stroke-miterlimit="10" width="11.766" height="16.74"/>
<rect x="586.682" y="161.28" fill="none" stroke="#EDAA00" stroke-width="2.4" stroke-miterlimit="10" width="11.766" height="16.74"/>
<rect x="598.446" y="144.539" fill="none" stroke="#EDAA00" stroke-width="2.4" stroke-miterlimit="10" width="11.765" height="16.74"/>
<rect x="598.446" y="161.28" fill="none" stroke="#EDAA00" stroke-width="2.4" stroke-miterlimit="10" width="11.765" height="16.74"/>
<rect x="610.212" y="144.539" fill="none" stroke="#EDAA00" stroke-width="2.4" stroke-miterlimit="10" width="11.765" height="16.74"/>
<rect x="610.212" y="161.28" fill="none" stroke="#EDAA00" stroke-width="2.4" stroke-miterlimit="10" width="11.765" height="16.74"/>
<g>
	<defs>
		<rect id="SVGID_5_" x="24.496" y="24.496" width="612.284" height="858.898"/>
	</defs>
	<clipPath id="SVGID_6_">
		<use xlink:href="#SVGID_5_"  overflow="visible"/>
	</clipPath>
	
		<rect x="621.977" y="144.539" clip-path="url(#SVGID_6_)" fill="none" stroke="#EDAA00" stroke-width="2.4" stroke-miterlimit="10" width="11.766" height="16.74"/>
	
		<rect x="621.977" y="161.28" clip-path="url(#SVGID_6_)" fill="none" stroke="#EDAA00" stroke-width="2.4" stroke-miterlimit="10" width="11.766" height="16.74"/>
	
		<rect x="633.742" y="144.539" clip-path="url(#SVGID_6_)" fill="none" stroke="#EDAA00" stroke-width="2.4" stroke-miterlimit="10" width="11.765" height="16.74"/>
	
		<rect x="633.742" y="161.28" clip-path="url(#SVGID_6_)" fill="none" stroke="#EDAA00" stroke-width="2.4" stroke-miterlimit="10" width="11.765" height="16.74"/>
	<path clip-path="url(#SVGID_6_)" fill="#E75300" d="M617.211,135.89c0.622-0.617,0.615-1.62,0-2.247
		c-0.616-0.62-1.614-0.62-2.237,0c-0.616,0.627-0.616,1.634,0,2.247C615.594,136.516,616.595,136.516,617.211,135.89"/>
	<path clip-path="url(#SVGID_6_)" fill="#8C7965" d="M603.94,132.523c-1.229-1.247-3.225-1.247-4.472,0
		c-1.232,1.243-1.232,3.259,0,4.5c1.237,1.247,3.242,1.247,4.472,0C605.188,135.773,605.176,133.767,603.94,132.523
		 M601.711,136.364l-1.585-1.59l1.585-1.594l1.582,1.594L601.711,136.364z"/>
	<path clip-path="url(#SVGID_6_)" fill="#8C7965" d="M632.716,132.523c-1.234-1.247-3.23-1.247-4.478,0
		c-1.231,1.243-1.231,3.259,0,4.5c1.238,1.247,3.243,1.247,4.478,0C633.957,135.773,633.946,133.767,632.716,132.523
		 M630.479,136.364l-1.583-1.59l1.583-1.594l1.583,1.594L630.479,136.364z"/>
	
		<rect x="539.618" y="126.18" clip-path="url(#SVGID_6_)" fill="none" stroke="#E75300" stroke-width="2.4" stroke-miterlimit="10" width="155.009" height="63.973"/>
	<path clip-path="url(#SVGID_6_)" fill="none" stroke="#8C7965" stroke-width="2.4" stroke-miterlimit="10" d="M612.651,335.703
		c-16.937,0.003-30.754-13.386-31.43-30.165c0-4.129,3.338-7.479,7.468-7.479c4.137,0,7.455,3.396,7.455,7.526v-0.047
		c-0.679,16.779-14.488,30.168-31.434,30.165"/>
	<path clip-path="url(#SVGID_6_)" fill="none" stroke="#8C7965" stroke-width="2.556" stroke-miterlimit="10" d="M539.618,158.626
		c-18.138,0.003-32.934-14.335-33.657-32.302c0-4.423,3.574-8.01,7.996-8.01c4.432,0,7.984,3.637,7.984,8.059v-0.049
		c-0.728,17.967-15.516,32.305-33.66,32.302"/>
	<path clip-path="url(#SVGID_6_)" fill="none" stroke="#8C7965" stroke-width="2.705" stroke-miterlimit="10" d="M501.094,332.486
		c-19.09,0.004-34.662-15.087-35.423-33.997c0-4.654,3.762-8.429,8.416-8.429c4.663,0,8.402,3.827,8.402,8.482v-0.053
		c-0.766,18.91-16.328,34.001-35.427,33.997"/>
	<polyline clip-path="url(#SVGID_6_)" fill="none" stroke="#8C7965" stroke-width="2.4" stroke-miterlimit="10" points="
		443.289,202.575 443.289,273.089 501.266,273.089 	"/>
	<polyline clip-path="url(#SVGID_6_)" fill="none" stroke="#8C7965" stroke-width="2.4" stroke-miterlimit="10" points="
		437.93,202.575 437.93,273.089 429.137,273.089 	"/>
	<path clip-path="url(#SVGID_6_)" fill="none" stroke="#EDAA00" stroke-width="2.4" stroke-miterlimit="10" d="M483.617,137.319
		h-11.335v-14.868h11.335c1.951,0,3.533,1.582,3.533,3.533v7.802C487.15,135.737,485.568,137.319,483.617,137.319z"/>
	<path clip-path="url(#SVGID_6_)" fill="none" stroke="#EDAA00" stroke-width="2.4" stroke-miterlimit="10" d="M483.617,165.632
		h-11.335v-14.869h11.335c1.951,0,3.533,1.582,3.533,3.534v7.801C487.15,164.05,485.568,165.632,483.617,165.632z"/>
	<path clip-path="url(#SVGID_6_)" fill="none" stroke="#EDAA00" stroke-width="2.4" stroke-miterlimit="10" d="M483.617,193.945
		h-11.335v-14.869h11.335c1.951,0,3.533,1.582,3.533,3.534v7.801C487.15,192.363,485.568,193.945,483.617,193.945z"/>
	<path clip-path="url(#SVGID_6_)" fill="none" stroke="#EDAA00" stroke-width="2.4" stroke-miterlimit="10" d="M395.699,137.319
		h11.335v-14.868h-11.335c-1.952,0-3.534,1.582-3.534,3.533v7.802C392.165,135.737,393.747,137.319,395.699,137.319z"/>
	<path clip-path="url(#SVGID_6_)" fill="none" stroke="#EDAA00" stroke-width="2.4" stroke-miterlimit="10" d="M395.699,165.632
		h11.335v-14.869h-11.335c-1.952,0-3.534,1.582-3.534,3.534v7.801C392.165,164.05,393.747,165.632,395.699,165.632z"/>
	<path clip-path="url(#SVGID_6_)" fill="none" stroke="#EDAA00" stroke-width="2.4" stroke-miterlimit="10" d="M395.699,193.945
		h11.335v-14.869h-11.335c-1.952,0-3.534,1.582-3.534,3.534v7.801C392.165,192.363,393.747,193.945,395.699,193.945z"/>
	<path clip-path="url(#SVGID_6_)" fill="#E75300" d="M441.6,146.359c1.08-1.072,1.069-2.815,0-3.905
		c-1.071-1.077-2.807-1.077-3.89,0c-1.069,1.09-1.069,2.839,0,3.905C438.787,147.448,440.528,147.448,441.6,146.359"/>
	<path clip-path="url(#SVGID_6_)" fill="#8C7965" d="M423.68,140.508c-2.138-2.167-5.604-2.167-7.771,0
		c-2.141,2.161-2.141,5.665,0,7.82c2.149,2.167,5.634,2.167,7.771,0C425.847,146.156,425.826,142.669,423.68,140.508
		 M419.805,147.182l-2.755-2.764l2.755-2.769l2.748,2.769L419.805,147.182z"/>
	<path clip-path="url(#SVGID_6_)" fill="#8C7965" d="M463.402,140.508c-2.145-2.167-5.614-2.167-7.78,0
		c-2.141,2.161-2.141,5.665,0,7.82c2.152,2.167,5.636,2.167,7.78,0C465.559,146.156,465.542,142.669,463.402,140.508
		 M459.515,147.182l-2.752-2.764l2.752-2.769l2.753,2.769L459.515,147.182z"/>
	
		<rect x="407.034" y="113.753" clip-path="url(#SVGID_6_)" fill="none" stroke="#007481" stroke-width="2.4" stroke-miterlimit="10" width="65.248" height="88.889"/>
	<path clip-path="url(#SVGID_6_)" fill="none" stroke="#8C7965" stroke-width="2.746" stroke-miterlimit="10" d="M332.471,275.821
		c-19.491,0.004-35.39-15.404-36.167-34.71c0-4.752,3.841-8.606,8.593-8.606c4.761,0,8.579,3.908,8.579,8.659v-0.053
		c-0.782,19.306-16.672,34.714-36.17,34.71"/>
	<polyline clip-path="url(#SVGID_6_)" fill="none" stroke="#8C7965" stroke-width="2.4" stroke-miterlimit="10" points="
		264.75,289.565 264.75,379.22 260.254,379.22 	"/>
	<polyline clip-path="url(#SVGID_6_)" fill="none" stroke="#8C7965" stroke-width="2.4" stroke-miterlimit="10" points="
		227.324,289.565 227.324,360.92 201.925,360.92 	"/>
	<path clip-path="url(#SVGID_6_)" fill="none" stroke="#E75300" stroke-width="2.4" stroke-miterlimit="10" d="M277.352,282.705
		c0,4.067-3.297,7.369-7.364,7.369h-48.533c-4.067,0-7.364-3.302-7.364-7.369v-61.786c0-4.074,3.297-7.372,7.364-7.372h48.533
		c4.067,0,7.364,3.298,7.364,7.372V282.705z"/>
	
		<line clip-path="url(#SVGID_6_)" fill="none" stroke="#E75300" stroke-width="2.4" stroke-miterlimit="10" x1="214.09" y1="224.08" x2="277.351" y2="224.08"/>
	<rect x="223.312" y="269.17" clip-path="url(#SVGID_6_)" fill="#E75300" width="7.411" height="2.381"/>
	<rect x="260.715" y="269.17" clip-path="url(#SVGID_6_)" fill="#E75300" width="7.411" height="2.381"/>
	<path clip-path="url(#SVGID_6_)" fill="#EDAA00" d="M242.013,270.365c-0.008,2.041,1.647,3.692,3.7,3.7
		c2.052-0.004,3.703-1.663,3.703-3.704"/>
	<path clip-path="url(#SVGID_6_)" fill="none" stroke="#8C7965" stroke-width="2.4" stroke-miterlimit="10" d="M429.137,273.088
		c-17.031,0.004-30.925-13.46-31.604-30.332c0-4.152,3.356-7.52,7.509-7.52c4.16,0,7.496,3.415,7.496,7.567v-0.047
		c-0.682,16.872-14.233,30.336-31.272,30.332"/>
	
		<line clip-path="url(#SVGID_6_)" fill="none" stroke="#8C7965" stroke-width="2.4" stroke-miterlimit="10" x1="268.364" y1="135.425" x2="268.384" y2="143.9"/>
	
		<line clip-path="url(#SVGID_6_)" fill="none" stroke="#8C7965" stroke-width="2.4" stroke-miterlimit="10" x1="279.25" y1="135.425" x2="279.269" y2="143.9"/>
	<path clip-path="url(#SVGID_6_)" fill="none" stroke="#8C7965" stroke-width="2.4" stroke-miterlimit="10" d="M182.35,235.616
		v6.919c0.679,16.867,14.572,30.339,31.604,30.335"/>
	<path clip-path="url(#SVGID_6_)" fill="none" stroke="#8C7965" stroke-width="2.4" stroke-miterlimit="10" d="M701.796,367.509
		c0,5.875-4.756,10.631-10.626,10.631h-58.737c-5.864,0-10.625-4.756-10.625-10.631v-64.674c0-5.859,4.761-10.619,10.625-10.619
		h58.737c5.87,0,10.626,4.76,10.626,10.619V367.509z"/>
	<polyline clip-path="url(#SVGID_6_)" fill="none" stroke="#8C7965" stroke-width="2.4" stroke-miterlimit="10" points="
		620.919,363.13 613.445,363.13 613.445,349.713 620.919,349.713 	"/>
	<polyline clip-path="url(#SVGID_6_)" fill="none" stroke="#8C7965" stroke-width="2.4" stroke-miterlimit="10" points="
		620.919,341.886 613.445,341.886 613.445,328.469 620.919,328.469 	"/>
	<polyline clip-path="url(#SVGID_6_)" fill="none" stroke="#8C7965" stroke-width="2.4" stroke-miterlimit="10" points="
		620.919,320.635 613.445,320.635 613.445,307.213 620.919,307.213 	"/>
	<path clip-path="url(#SVGID_6_)" fill="#007481" d="M638.432,326.973c-2.082-2.083-5.452-2.083-7.558,0
		c-2.076,2.093-2.076,5.475,0,7.552c2.088,2.093,5.476,2.093,7.558,0C640.531,332.432,640.515,329.065,638.432,326.973
		 M634.662,333.433l-2.679-2.679l2.679-2.667l2.667,2.667L634.662,333.433z"/>
	<polyline clip-path="url(#SVGID_6_)" fill="none" stroke="#8C7965" stroke-width="2.4" stroke-miterlimit="10" points="
		143.734,251.362 143.734,340.922 112.924,340.922 	"/>
	<polyline clip-path="url(#SVGID_6_)" fill="none" stroke="#8C7965" stroke-width="2.4" stroke-miterlimit="10" points="
		168.898,251.362 168.898,360.92 201.925,360.92 	"/>
	<path clip-path="url(#SVGID_6_)" fill="none" stroke="#EDAA00" stroke-width="2.4" stroke-miterlimit="10" d="M191.37,212.236
		c0-19.311-15.657-34.951-34.963-34.951c-19.307,0-34.964,15.64-34.964,34.951c0,11.598,5.668,21.843,14.363,28.205v10.628h15.554
		v-6.975c1.648,0.246,3.329,0.405,5.047,0.405c1.716,0,3.398-0.159,5.054-0.405v6.975h15.537v-10.624
		C185.694,234.079,191.37,223.834,191.37,212.236z"/>
	<path clip-path="url(#SVGID_6_)" fill="#E75300" d="M154.966,219.763c-0.811-0.807-0.802-2.092,0-2.899
		c0.794-0.793,2.088-0.793,2.89,0c0.794,0.807,0.794,2.105,0,2.899C157.054,220.565,155.76,220.565,154.966,219.763"/>
	<polygon clip-path="url(#SVGID_6_)" fill="#007481" points="181.173,216.998 178.404,216.998 178.404,214.224 175.756,214.224 
		175.756,216.998 172.979,216.998 172.979,219.629 175.756,219.629 175.756,222.412 178.404,222.412 178.404,219.629 
		181.173,219.629 	"/>
	<polygon clip-path="url(#SVGID_6_)" fill="#007481" points="137.696,214.49 135.738,216.448 133.777,214.486 131.916,216.349 
		133.876,218.31 131.907,220.279 133.766,222.139 135.738,220.17 137.704,222.138 139.566,220.277 137.599,218.307 139.555,216.351 
			"/>
	<polyline clip-path="url(#SVGID_6_)" fill="none" stroke="#8C7965" stroke-width="2.4" stroke-miterlimit="10" points="
		408.373,357.976 408.373,465.802 400.043,465.802 	"/>
	<polyline clip-path="url(#SVGID_6_)" fill="none" stroke="#8C7965" stroke-width="2.4" stroke-miterlimit="10" points="
		432.351,357.976 432.351,436.083 448.015,436.083 	"/>
	
		<rect x="389.443" y="347.068" clip-path="url(#SVGID_6_)" fill="none" stroke="#007481" stroke-width="2.4" stroke-miterlimit="10" width="63.225" height="10.907"/>
	<path clip-path="url(#SVGID_6_)" fill="none" stroke="#007481" stroke-width="2.4" stroke-miterlimit="10" d="M394.777,347.069
		v-34.616c0-14.521,11.706-26.293,26.139-26.293c14.44,0,26.147,11.772,26.147,26.293v34.616"/>
	<path clip-path="url(#SVGID_6_)" fill="#E75300" d="M422.276,328.027c0.76-0.756,0.752-1.982,0-2.742
		c-0.751-0.756-1.966-0.756-2.726,0c-0.751,0.76-0.751,1.994,0,2.742C420.303,328.791,421.525,328.791,422.276,328.027"/>
	<path clip-path="url(#SVGID_6_)" fill="#8C7965" d="M406.105,323.916c-1.498-1.519-3.932-1.519-5.451,0
		c-1.503,1.519-1.503,3.973,0,5.488c1.512,1.519,3.953,1.519,5.451,0C407.625,327.88,407.612,325.435,406.105,323.916
		 M403.389,328.6l-1.934-1.942l1.934-1.938l1.925,1.938L403.389,328.6z"/>
	<path clip-path="url(#SVGID_6_)" fill="#8C7965" d="M441.164,323.916c-1.494-1.519-3.931-1.519-5.449,0
		c-1.496,1.519-1.496,3.973,0,5.488c1.51,1.519,3.955,1.519,5.449,0C442.684,327.88,442.667,325.435,441.164,323.916 M438.443,328.6
		l-1.926-1.942l1.926-1.938l1.934,1.938L438.443,328.6z"/>
	<path clip-path="url(#SVGID_6_)" fill="none" stroke="#8C7965" stroke-width="2.458" stroke-miterlimit="10" d="M228.666,484.666
		c29.439-0.014,53.454,23.267,54.628,52.421c0,7.19-5.815,13.013-12.993,13.013c-7.177,0-12.952-5.91-12.952-13.087v0.074
		c1.181-29.154,25.189-52.435,54.64-52.421"/>
	<path clip-path="url(#SVGID_6_)" fill="none" stroke="#E75300" stroke-width="2.4" stroke-miterlimit="10" d="M43.127,490.674
		c28.753,0,52.186,22.729,53.333,51.186c0,7.021-5.665,12.698-12.672,12.698c-7.021,0-12.658-5.756-12.658-12.771v0.072
		c1.159-28.457,24.599-51.186,53.346-51.186"/>
	<polyline clip-path="url(#SVGID_6_)" fill="none" stroke="#8C7965" stroke-width="2.4" stroke-miterlimit="10" points="
		155.918,536.697 155.918,576.401 148.331,576.467 	"/>
	<polyline clip-path="url(#SVGID_6_)" fill="none" stroke="#8C7965" stroke-width="2.4" stroke-miterlimit="10" points="
		194.354,536.697 194.354,570.402 202.765,570.402 	"/>
	<path clip-path="url(#SVGID_6_)" fill="none" stroke="#007481" stroke-width="2.4" stroke-miterlimit="10" d="M228.666,476.956
		c0-29.485-23.907-53.366-53.379-53.366c-29.485,0-53.379,23.881-53.379,53.366c0,17.709,8.654,33.352,21.918,43.065v16.227h23.749
		v-10.648c2.529,0.376,5.084,0.619,7.712,0.619c2.621,0,5.183-0.243,7.712-0.619v10.648h23.735v-16.22
		C220.012,510.307,228.666,494.665,228.666,476.956z"/>
	<path clip-path="url(#SVGID_6_)" fill="#E75300" d="M177.493,488.875c1.225-1.212,1.212-3.187,0-4.418
		c-1.219-1.212-3.188-1.212-4.426,0c-1.212,1.231-1.212,3.206,0,4.418C174.292,490.107,176.274,490.107,177.493,488.875"/>
	<polygon clip-path="url(#SVGID_6_)" fill="#007481" points="137.47,484.667 141.705,484.667 141.705,480.426 145.736,480.426 
		145.736,484.667 149.977,484.667 149.977,488.686 145.736,488.686 145.736,492.934 141.705,492.934 141.705,488.686 
		137.47,488.686 	"/>
	<polygon clip-path="url(#SVGID_6_)" fill="#007481" points="201.005,489.68 203.995,486.69 200.998,483.69 203.85,480.838 
		206.847,483.842 209.85,480.838 212.688,483.68 209.685,486.68 212.695,489.683 209.844,492.534 206.84,489.532 203.85,492.522 	
		"/>
	
		<rect x="339.218" y="313.778" clip-path="url(#SVGID_6_)" fill="none" stroke="#8C7965" stroke-width="2.4" stroke-miterlimit="10" width="36.082" height="20.121"/>
	<path clip-path="url(#SVGID_6_)" fill="none" stroke="#E75300" stroke-width="2.4" stroke-miterlimit="10" d="M381.265,264.168
		v49.61h-48.013v-49.61c0-1.111,0.459-2.172,1.27-2.933l5.68-5.339v-25.873c0-2.945,2.388-5.333,5.333-5.333h23.449
		c2.945,0,5.333,2.388,5.333,5.333v25.873l5.68,5.339C380.806,261.996,381.265,263.057,381.265,264.168z"/>
	<path clip-path="url(#SVGID_6_)" fill="none" stroke="#8C7965" stroke-width="2.4" stroke-miterlimit="10" d="M358.035,214.509
		h-1.554c-5.623,0-10.181,4.558-10.181,10.181h21.917C368.218,219.067,363.658,214.509,358.035,214.509z"/>
	<polyline clip-path="url(#SVGID_6_)" fill="none" stroke="#8C7965" stroke-width="2.4" stroke-miterlimit="10" points="
		362.928,33.085 362.928,214.509 353.144,214.509 353.144,33.085 	"/>
	<path clip-path="url(#SVGID_6_)" fill="#007481" d="M345.823,296.228c-1.016-1.019-2.667-1.019-3.696,0
		c-1.016,1.024-1.016,2.679,0,3.695c1.022,1.025,2.681,1.025,3.696,0C346.853,298.898,346.844,297.251,345.823,296.228
		 M343.979,299.389l-1.308-1.311l1.308-1.305l1.308,1.305L343.979,299.389z"/>
	<path clip-path="url(#SVGID_6_)" fill="#007481" d="M372.385,296.228c-1.017-1.019-2.667-1.019-3.697,0
		c-1.017,1.024-1.017,2.679,0,3.695c1.024,1.025,2.681,1.025,3.697,0C373.412,298.898,373.404,297.251,372.385,296.228
		 M370.54,299.389l-1.309-1.311l1.309-1.305l1.309,1.305L370.54,299.389z"/>
	<path clip-path="url(#SVGID_6_)" fill="#8C7965" d="M354.647,298.081c-0.005,1.44,1.161,2.603,2.609,2.61
		c1.448-0.002,2.613-1.178,2.613-2.612"/>
	
		<circle clip-path="url(#SVGID_6_)" fill="none" stroke="#E75300" stroke-width="2.4" stroke-miterlimit="10" cx="274.45" cy="97.127" r="38.773"/>
	<path clip-path="url(#SVGID_6_)" fill="#EDAA00" d="M278.032,100.707c1.993-1.965,1.971-5.17,0-7.167
		c-1.976-1.966-5.175-1.966-7.168,0c-1.975,1.997-1.975,5.202,0,7.167C272.846,102.704,276.056,102.704,278.032,100.707"/>
	<path clip-path="url(#SVGID_6_)" fill="#007481" d="M259.572,94.721c-1.323-1.326-3.467-1.326-4.807,0
		c-1.322,1.332-1.322,3.485,0,4.806c1.329,1.333,3.484,1.333,4.807,0C260.91,98.195,260.899,96.053,259.572,94.721 M257.172,98.833
		l-1.701-1.706l1.701-1.697l1.702,1.697L257.172,98.833z"/>
	<path clip-path="url(#SVGID_6_)" fill="#007481" d="M294.128,94.721c-1.323-1.326-3.469-1.326-4.809,0
		c-1.322,1.332-1.322,3.485,0,4.806c1.331,1.333,3.486,1.333,4.809,0C295.464,98.195,295.453,96.053,294.128,94.721 M291.726,98.833
		l-1.699-1.706l1.699-1.697l1.704,1.697L291.726,98.833z"/>
	<polyline clip-path="url(#SVGID_6_)" fill="none" stroke="#E75300" stroke-width="2.4" stroke-miterlimit="10" points="
		289.238,173.1 289.238,265.628 286.066,265.628 	"/>
	<polyline clip-path="url(#SVGID_6_)" fill="none" stroke="#E75300" stroke-width="2.4" stroke-miterlimit="10" points="
		262.832,173.1 262.832,205.634 259.662,205.634 	"/>
	
		<rect x="235.677" y="143.899" clip-path="url(#SVGID_6_)" fill="none" stroke="#8C7965" stroke-width="2.4" stroke-miterlimit="10" width="77.546" height="29.2"/>
	<polygon clip-path="url(#SVGID_6_)" fill="#EDAA00" points="260.618,158.498 257.195,161.918 253.774,158.498 257.195,155.081 	"/>
	
		<rect x="289.285" y="156.079" transform="matrix(0.7073 -0.7069 0.7069 0.7073 -26.6631 252.5986)" clip-path="url(#SVGID_6_)" fill="#EDAA00" width="4.839" height="4.837"/>
	<path clip-path="url(#SVGID_6_)" fill="#007481" d="M276.158,158.498c0-0.951-0.765-1.707-1.71-1.71
		c-0.942,0-1.704,0.763-1.707,1.71c0.001,0.947,0.765,1.707,1.707,1.707C275.395,160.205,276.16,159.444,276.158,158.498"/>
	<path clip-path="url(#SVGID_6_)" fill="#E75300" d="M87.616,345.061c0.802-0.796,0.794-2.09,0-2.899c-0.796-0.8-2.084-0.8-2.888,0
		c-0.794,0.809-0.794,2.107,0,2.899C85.528,345.87,86.82,345.87,87.616,345.061"/>
	<path clip-path="url(#SVGID_6_)" fill="#8C7965" d="M74.31,340.716c-1.587-1.609-4.161-1.609-5.77,0
		c-1.589,1.604-1.589,4.206,0,5.807c1.596,1.608,4.183,1.608,5.77,0C75.919,344.909,75.904,342.32,74.31,340.716 M71.433,345.671
		l-2.045-2.052l2.045-2.056l2.041,2.056L71.433,345.671z"/>
	<path clip-path="url(#SVGID_6_)" fill="#8C7965" d="M103.804,340.716c-1.592-1.609-4.168-1.609-5.776,0
		c-1.59,1.604-1.59,4.206,0,5.807c1.598,1.608,4.184,1.608,5.776,0C105.405,344.909,105.394,342.32,103.804,340.716
		 M100.917,345.671l-2.043-2.052l2.043-2.056l2.043,2.056L100.917,345.671z"/>
	<polyline clip-path="url(#SVGID_6_)" fill="none" stroke="#8C7965" stroke-width="2.4" stroke-miterlimit="10" points="
		100.551,371.308 100.551,488.12 107.594,484.12 	"/>
	<polyline clip-path="url(#SVGID_6_)" fill="none" stroke="#8C7965" stroke-width="2.4" stroke-miterlimit="10" points="
		71.798,371.308 71.798,490.12 64.845,486.12 	"/>
	<path clip-path="url(#SVGID_6_)" fill="none" stroke="#007481" stroke-width="2.4" stroke-miterlimit="10" d="M112.924,362.552
		H59.425v-23.659c0-9.457,7.666-17.123,17.123-17.123h19.253c9.457,0,17.123,7.666,17.123,17.123V362.552z"/>
	
		<rect x="94.869" y="362.552" clip-path="url(#SVGID_6_)" fill="none" stroke="#007481" stroke-width="2.4" stroke-miterlimit="10" width="11.362" height="8.756"/>
	
		<rect x="66.117" y="362.552" clip-path="url(#SVGID_6_)" fill="none" stroke="#007481" stroke-width="2.4" stroke-miterlimit="10" width="11.362" height="8.756"/>
	
		<line clip-path="url(#SVGID_6_)" fill="none" stroke="#E75300" stroke-width="2.4" stroke-miterlimit="10" x1="157.274" y1="367.53" x2="157.274" y2="416.384"/>
	
		<line clip-path="url(#SVGID_6_)" fill="none" stroke="#EDAA00" stroke-width="2.4" stroke-miterlimit="10" x1="150.402" y1="367.53" x2="150.402" y2="416.384"/>
	<path clip-path="url(#SVGID_6_)" fill="none" stroke="#E75300" stroke-width="2.4" stroke-miterlimit="10" d="M84.973,430.734
		v0.065c0.885-21.85,18.878-39.3,40.944-39.295"/>
	<path clip-path="url(#SVGID_6_)" fill="none" stroke="#E75300" stroke-width="2.4" stroke-miterlimit="10" d="M298.421,391.503
		c22.065-0.004,40.059,17.446,40.944,39.296v-0.066v19.692"/>
	<path clip-path="url(#SVGID_6_)" fill="none" stroke="#007481" stroke-width="2.4" stroke-miterlimit="10" d="M284.588,416.515
		H139.755c-7.643,0-13.839-6.196-13.839-13.839v-21.307c0-7.643,6.196-13.839,13.839-13.839h144.833
		c7.644,0,13.839,6.196,13.839,13.839v21.307C298.427,410.319,292.232,416.515,284.588,416.515z"/>
	<path clip-path="url(#SVGID_6_)" fill="#EDAA00" d="M191.935,397.181c-1.798-1.803-4.72-1.803-6.542,0
		c-1.797,1.813-1.797,4.741,0,6.539c1.811,1.813,4.744,1.813,6.542,0C193.754,401.907,193.74,398.994,191.935,397.181
		 M188.669,402.775l-2.314-2.32l2.314-2.309l2.315,2.309L188.669,402.775z"/>
	<path clip-path="url(#SVGID_6_)" fill="#EDAA00" d="M238.941,397.181c-1.799-1.803-4.72-1.803-6.542,0
		c-1.801,1.813-1.801,4.741,0,6.539c1.813,1.813,4.743,1.813,6.542,0C240.76,401.907,240.746,398.994,238.941,397.181
		 M235.676,402.775l-2.315-2.32l2.315-2.309l2.317,2.309L235.676,402.775z"/>
	<path clip-path="url(#SVGID_6_)" fill="#E75300" d="M207.552,400.46c-0.009,2.548,2.054,4.605,4.617,4.62
		c2.564-0.005,4.625-2.086,4.625-4.625"/>
	<polyline clip-path="url(#SVGID_6_)" fill="none" stroke="#8C7965" stroke-width="2.4" stroke-miterlimit="10" points="
		432.051,530.307 432.051,571.141 426.337,571.141 	"/>
	<polyline clip-path="url(#SVGID_6_)" fill="none" stroke="#8C7965" stroke-width="2.4" stroke-miterlimit="10" points="
		417.144,530.307 417.144,571.141 411.43,571.141 	"/>
	<polyline clip-path="url(#SVGID_6_)" fill="none" stroke="#8C7965" stroke-width="2.4" stroke-miterlimit="10" points="
		402.236,530.307 402.236,571.141 396.523,571.141 	"/>
	<polyline clip-path="url(#SVGID_6_)" fill="none" stroke="#8C7965" stroke-width="2.4" stroke-miterlimit="10" points="
		387.329,530.307 387.329,575.14 381.616,575.14 	"/>
	
		<rect x="311.989" y="450.426" clip-path="url(#SVGID_6_)" fill="none" stroke="#EDAA00" stroke-width="2.4" stroke-miterlimit="10" width="195.458" height="80.032"/>
	
		<circle clip-path="url(#SVGID_6_)" fill="none" stroke="#007481" stroke-width="2.4" stroke-miterlimit="10" cx="350.599" cy="490.442" r="21.244"/>
	
		<circle clip-path="url(#SVGID_6_)" fill="none" stroke="#007481" stroke-width="2.4" stroke-miterlimit="10" cx="468.837" cy="490.442" r="21.244"/>
	<path clip-path="url(#SVGID_6_)" fill="#007481" d="M390.357,502.268l-4.711,4.706l4.711,4.712l4.714-4.712L390.357,502.268z
		 M388.039,506.974l2.354-2.352l2.354,2.352l-2.354,2.361L388.039,506.974z"/>
	<path clip-path="url(#SVGID_6_)" fill="#007481" d="M429.076,502.268l-4.716,4.706l4.716,4.712l4.714-4.712L429.076,502.268z
		 M426.753,506.974l2.358-2.352l2.354,2.352l-2.354,2.361L426.753,506.974z"/>
	<path clip-path="url(#SVGID_6_)" fill="#E75300" d="M405.011,505.793c-0.013,2.6,2.095,4.691,4.699,4.707
		c2.607-0.005,4.711-2.112,4.711-4.712"/>
	<path clip-path="url(#SVGID_6_)" fill="none" stroke="#007481" stroke-width="2.4" stroke-miterlimit="10" d="M97.199,99.669
		c0,0-13.261-2.693-22.585,14.09c-6.423,17.819,6.216,35.016,22.585,35.016c12.225,0.415,84.744,0,84.744,0
		s19.684-0.414,23.62-21.341c2.487-21.342-18.855-27.924-18.855-27.924c-0.184-1.3-3.001-18.996-19.312-26.588
		c-12.28-5.715-27.159-3.355-37.667,6.027c-1.031-0.373-12.275-4.223-22.378,2.901C98.371,88.183,97.324,98.23,97.199,99.669z"/>
	<path clip-path="url(#SVGID_6_)" fill="#E75300" d="M144.229,119.685c0,2.458-1.993,4.452-4.452,4.452
		c-2.458,0-4.451-1.994-4.451-4.452H144.229z"/>
	<path clip-path="url(#SVGID_6_)" fill="#8C7965" d="M163.54,119.685c0,1.531-1.241,2.773-2.773,2.773
		c-1.531,0-2.773-1.242-2.773-2.773c0-1.532,1.242-2.773,2.773-2.773C162.299,116.912,163.54,118.153,163.54,119.685"/>
	<path clip-path="url(#SVGID_6_)" fill="#8C7965" d="M119.981,119.685c0,1.531-1.241,2.773-2.772,2.773
		c-1.532,0-2.773-1.242-2.773-2.773c0-1.532,1.241-2.773,2.773-2.773C118.741,116.912,119.981,118.153,119.981,119.685"/>
	<path clip-path="url(#SVGID_6_)" fill="#007481" d="M516.316,247.091l-4.094,4.089l4.094,4.094l4.096-4.094L516.316,247.091z
		 M514.302,251.18l2.044-2.042l2.047,2.042l-2.047,2.052L514.302,251.18z"/>
	<path clip-path="url(#SVGID_6_)" fill="#007481" d="M549.96,247.091l-4.098,4.089l4.098,4.094l4.096-4.094L549.96,247.091z
		 M547.941,251.18l2.049-2.042l2.047,2.042l-2.047,2.052L547.941,251.18z"/>
	<path clip-path="url(#SVGID_6_)" fill="#E75300" d="M529.049,250.155c-0.011,2.258,1.82,4.077,4.083,4.09
		c2.267-0.005,4.093-1.837,4.093-4.094"/>
	<polyline clip-path="url(#SVGID_6_)" fill="none" stroke="#8C7965" stroke-width="2.4" stroke-miterlimit="10" points="
		543.691,374.969 543.691,407.218 548.727,407.218 	"/>
	<polyline clip-path="url(#SVGID_6_)" fill="none" stroke="#8C7965" stroke-width="2.4" stroke-miterlimit="10" points="
		522.586,374.969 522.586,425.216 339.365,424.964 	"/>
	<path clip-path="url(#SVGID_6_)" fill="none" stroke="#007481" stroke-width="2.4" stroke-miterlimit="10" d="M559.489,374.969
		h-52.7c-3.051,0-5.523-2.473-5.523-5.523V227.002c0-3.05,2.473-5.523,5.523-5.523h52.7c3.051,0,5.523,2.473,5.523,5.523v142.444
		C565.013,372.496,562.54,374.969,559.489,374.969z"/>
	
		<circle clip-path="url(#SVGID_6_)" fill="none" stroke="#007481" stroke-width="2.4" stroke-miterlimit="10" cx="508.606" cy="228.741" r="3.249"/>
	
		<circle clip-path="url(#SVGID_6_)" fill="none" stroke="#007481" stroke-width="2.4" stroke-miterlimit="10" cx="557.672" cy="228.741" r="3.249"/>
	
		<circle clip-path="url(#SVGID_6_)" fill="none" stroke="#007481" stroke-width="2.4" stroke-miterlimit="10" cx="508.606" cy="367.708" r="3.249"/>
	
		<circle clip-path="url(#SVGID_6_)" fill="none" stroke="#007481" stroke-width="2.4" stroke-miterlimit="10" cx="557.672" cy="367.708" r="3.249"/>
	
		<rect x="506.631" y="267.313" clip-path="url(#SVGID_6_)" fill="none" stroke="#EDAA00" stroke-width="2.4" stroke-miterlimit="10" width="6.518" height="6.517"/>
	
		<rect x="506.631" y="273.829" clip-path="url(#SVGID_6_)" fill="none" stroke="#EDAA00" stroke-width="2.4" stroke-miterlimit="10" width="6.518" height="6.518"/>
	
		<rect x="506.631" y="280.347" clip-path="url(#SVGID_6_)" fill="none" stroke="#EDAA00" stroke-width="2.4" stroke-miterlimit="10" width="6.518" height="6.517"/>
	
		<rect x="506.631" y="286.864" clip-path="url(#SVGID_6_)" fill="none" stroke="#EDAA00" stroke-width="2.4" stroke-miterlimit="10" width="6.518" height="6.518"/>
	
		<rect x="506.631" y="293.382" clip-path="url(#SVGID_6_)" fill="none" stroke="#EDAA00" stroke-width="2.4" stroke-miterlimit="10" width="6.518" height="6.517"/>
	
		<rect x="506.631" y="299.899" clip-path="url(#SVGID_6_)" fill="none" stroke="#EDAA00" stroke-width="2.4" stroke-miterlimit="10" width="6.518" height="6.517"/>
	
		<rect x="506.631" y="306.416" clip-path="url(#SVGID_6_)" fill="none" stroke="#EDAA00" stroke-width="2.4" stroke-miterlimit="10" width="6.518" height="6.518"/>
	
		<rect x="506.631" y="312.934" clip-path="url(#SVGID_6_)" fill="none" stroke="#EDAA00" stroke-width="2.4" stroke-miterlimit="10" width="6.518" height="6.517"/>
	
		<rect x="506.631" y="319.45" clip-path="url(#SVGID_6_)" fill="none" stroke="#EDAA00" stroke-width="2.4" stroke-miterlimit="10" width="6.518" height="6.518"/>
	
		<rect x="506.631" y="325.969" clip-path="url(#SVGID_6_)" fill="none" stroke="#EDAA00" stroke-width="2.4" stroke-miterlimit="10" width="6.518" height="6.517"/>
	
		<rect x="506.631" y="332.485" clip-path="url(#SVGID_6_)" fill="none" stroke="#EDAA00" stroke-width="2.4" stroke-miterlimit="10" width="6.518" height="6.518"/>
	
		<rect x="506.631" y="339.003" clip-path="url(#SVGID_6_)" fill="none" stroke="#EDAA00" stroke-width="2.4" stroke-miterlimit="10" width="6.518" height="6.517"/>
	
		<rect x="553.13" y="267.313" clip-path="url(#SVGID_6_)" fill="none" stroke="#EDAA00" stroke-width="2.4" stroke-miterlimit="10" width="6.518" height="6.517"/>
	
		<rect x="553.13" y="273.829" clip-path="url(#SVGID_6_)" fill="none" stroke="#EDAA00" stroke-width="2.4" stroke-miterlimit="10" width="6.518" height="6.518"/>
	
		<rect x="553.13" y="280.347" clip-path="url(#SVGID_6_)" fill="none" stroke="#EDAA00" stroke-width="2.4" stroke-miterlimit="10" width="6.518" height="6.517"/>
	
		<rect x="553.13" y="286.864" clip-path="url(#SVGID_6_)" fill="none" stroke="#EDAA00" stroke-width="2.4" stroke-miterlimit="10" width="6.518" height="6.518"/>
	
		<rect x="553.13" y="293.382" clip-path="url(#SVGID_6_)" fill="none" stroke="#EDAA00" stroke-width="2.4" stroke-miterlimit="10" width="6.518" height="6.517"/>
	
		<rect x="553.13" y="299.899" clip-path="url(#SVGID_6_)" fill="none" stroke="#EDAA00" stroke-width="2.4" stroke-miterlimit="10" width="6.518" height="6.517"/>
	
		<rect x="553.13" y="306.416" clip-path="url(#SVGID_6_)" fill="none" stroke="#EDAA00" stroke-width="2.4" stroke-miterlimit="10" width="6.518" height="6.518"/>
	
		<rect x="553.13" y="312.934" clip-path="url(#SVGID_6_)" fill="none" stroke="#EDAA00" stroke-width="2.4" stroke-miterlimit="10" width="6.518" height="6.517"/>
	
		<rect x="553.13" y="319.45" clip-path="url(#SVGID_6_)" fill="none" stroke="#EDAA00" stroke-width="2.4" stroke-miterlimit="10" width="6.518" height="6.518"/>
	
		<rect x="553.13" y="325.969" clip-path="url(#SVGID_6_)" fill="none" stroke="#EDAA00" stroke-width="2.4" stroke-miterlimit="10" width="6.518" height="6.517"/>
	
		<rect x="553.13" y="332.485" clip-path="url(#SVGID_6_)" fill="none" stroke="#EDAA00" stroke-width="2.4" stroke-miterlimit="10" width="6.518" height="6.518"/>
	
		<rect x="553.13" y="339.003" clip-path="url(#SVGID_6_)" fill="none" stroke="#EDAA00" stroke-width="2.4" stroke-miterlimit="10" width="6.518" height="6.517"/>
</g>
<path fill="none" stroke="#FFFFFF" stroke-width="1.25" stroke-miterlimit="10" d="M628.276,880.89v27 M628.276,27V0 M33,880.89v27
	 M33,27V0 M634.276,874.89h27 M27,874.89H0 M634.276,33h27 M27,33H0"/>
<path fill="none" stroke="#000000" stroke-width="0.25" stroke-miterlimit="10" d="M628.276,880.89v27 M628.276,27V0 M33,880.89v27
	 M33,27V0 M634.276,874.89h27 M27,874.89H0 M634.276,33h27 M27,33H0"/>
</svg>
