<?xml version="1.0" standalone="no"?>
<!DOCTYPE svg PUBLIC "-//W3C//DTD SVG 1.1//EN" "http://www.w3.org/Graphics/SVG/1.1/DTD/svg11.dtd" >
<svg xmlns="http://www.w3.org/2000/svg">
<metadata>
Created by FontPrep 20130207 at Wed Feb 18 23:14:54 2015
 By Roll
Copyright (c) 2009 typonine.com All rights reserved.
</metadata>
<defs>
<font id="542a349c2cb369d92a36d854527d8a50" horiz-adv-x='1024' >
  <font-face 
    font-family="TyponineSansPro-Text"
    font-weight="450"
    font-stretch="normal"
    units-per-em="2048"
    panose-1="2 0 5 3 0 0 0 2 0 4"
    ascent="1597"
    descent="-451"
    x-height="981"
    cap-height="1331"
    bbox="-156 -473 2087 1812"
    underline-thickness="102"
    underline-position="-102"
    unicode-range="U+000D-FB04"
  />
<missing-glyph horiz-adv-x="748" 
d="M136 68h408v1229h-408v-1229zM68 0v1365h544v-1365h-544z" />
    <glyph glyph-name="uniFB01" unicode="fi" horiz-adv-x="1144" 
d="M53 807v149l156 13v73q0 288 175 334.5t267 46.5q173 0 314 -51l-41 -190q-43 27 -115.5 50t-142.5 23q-131 0 -187.5 -49.5t-56.5 -167.5v-69h586v-969h-213v811h-373v-811h-213v807h-156z" />
    <glyph glyph-name="uniFB02" unicode="fl" horiz-adv-x="1150" 
d="M53 807v149l156 13v73q0 288 174.5 334.5t266.5 46.5t202 -20h156v-1403h-213v1245q-94 23 -152 23q-113 0 -167 -52t-54 -165v-82h235v-158h-235v-811h-213v807h-156z" />
    <glyph glyph-name="uniFB03" unicode="ffi" horiz-adv-x="1732" 
d="M422 969h375v73q0 76 18 134q-87 53 -185 53t-153 -54.5t-55 -168.5v-37zM53 807v149l156 13v43q0 199 130.5 289t286.5 90t294 -60q114 92 302 92t330 -51l-41 -190q-43 27 -115.5 50t-142.5 23q-131 0 -187 -49.5t-56 -167.5v-69h585v-969h-213v811h-372v-811h-213v811
h-375v-811h-213v807h-156z" />
    <glyph glyph-name="uniFB04" unicode="ffl" horiz-adv-x="1738" 
d="M422 969h373v73q0 76 18 134q-83 53 -182 53t-154 -54.5t-55 -168.5v-37zM53 807v149l156 13v43q0 199 130.5 289t286.5 90t294 -60q114 92 317 92q93 0 203 -20h155v-1403h-213v1243q-87 25 -153 25q-113 0 -167 -52t-54 -165v-82h235v-158h-235v-811h-213v811h-373
v-811h-213v807h-156z" />
    <glyph glyph-name=".notdef" horiz-adv-x="748" 
d="M136 68h408v1229h-408v-1229zM68 0v1365h544v-1365h-544z" />
    <glyph glyph-name="glyph1" horiz-adv-x="2048" 
 />
    <glyph glyph-name="glyph1" horiz-adv-x="2048" 
 />
    <glyph glyph-name="uni000D" unicode="&#xd;" horiz-adv-x="2048" 
 />
    <glyph glyph-name="space" unicode=" " horiz-adv-x="460" 
 />
    <glyph glyph-name="exclam" unicode="!" horiz-adv-x="587" 
d="M193 1331h200v-457l-20 -432h-158l-22 435v454zM162 102q0 60 36 92.5t96 32.5t97 -31.5t37 -91.5t-35.5 -93.5t-98.5 -33.5t-97.5 32.5t-34.5 92.5z" />
    <glyph glyph-name="quotedbl" unicode="&#x22;" horiz-adv-x="784" 
d="M471 1331h223l-41 -520h-141zM90 1331h223l-39 -520h-143z" />
    <glyph glyph-name="numbersign" unicode="#" horiz-adv-x="1243" 
d="M449 434h284l51 275h-284zM70 303l24 131h185l51 275h-203l27 129h198l56 297h170l-56 -297h285l55 297h170l-55 -297h199l-27 -129h-195l-51 -275h213l-24 -131h-211l-56 -303h-170l56 303h-285l-55 -303h-170l55 303h-186z" />
    <glyph glyph-name="dollar" unicode="$" horiz-adv-x="1001" 
d="M733 352q0 117 -174 203v-362q79 14 126.5 54.5t47.5 104.5zM293 967q0 -54 40.5 -94t115.5 -76v313q-156 -28 -156 -143zM100 950q0 128 97.5 215.5t251.5 102.5v116h110v-114q178 -6 315 -76l-57 -168q-111 80 -258 88v-364q163 -71 229 -119.5t102 -113t36 -150.5
q0 -132 -102 -218.5t-265 -107.5v-111h-110v105q-224 3 -373 96l63 164q65 -44 150 -75t160 -34v420l-65 29q-66 29 -84 40t-46 27t-43 30t-38.5 35t-48 70.5t-24.5 112.5z" />
    <glyph glyph-name="percent" unicode="%" horiz-adv-x="1513" 
d="M936 309q0 -92 35 -140t127 -48t127 48t35 142q0 193 -162 193q-91 0 -126.5 -51.5t-35.5 -143.5zM764 304q0 154 89 247.5t250 93.5t245 -87t84 -247q0 -192 -114 -263t-222 -71q-161 0 -246.5 86.5t-85.5 240.5zM281 182l835 1049l105 -82l-832 -1040zM246 1014
q0 -92 36 -140.5t127 -48.5t126.5 48.5t35.5 142.5q0 192 -161 192q-92 0 -128 -51t-36 -143zM76 1008q0 154 89 248t249 94t244.5 -87t84.5 -236t-88.5 -246t-248.5 -97t-245 85t-85 239z" />
    <glyph glyph-name="ampersand" unicode="&#x26;" horiz-adv-x="1531" 
d="M592 1049q0 -131 39 -281q102 32 157.5 93t55.5 167q0 172 -119 172q-59 0 -96 -38t-37 -113zM283 354q0 -97 58.5 -152t160.5 -55t194 72q-135 143 -215 371q-198 -67 -198 -236zM457 -20q-162 0 -269.5 99t-107.5 241t95 245.5t265 145.5q-47 167 -47 310t89 236
t251 93q112 0 209.5 -64t97.5 -233q0 -222 -147.5 -307.5t-218.5 -106.5q76 -211 184 -313q96 138 113 344h440v-156h-303q-42 -160 -147 -283q111 -84 229 -84q54 0 110 30t93 77l75 -154q-114 -120 -297 -120q-92 0 -191 34t-171 90q-149 -124 -352 -124z" />
    <glyph glyph-name="quotesingle" unicode="'" horiz-adv-x="403" 
d="M90 1331h223l-43 -520h-137z" />
    <glyph glyph-name="parenleft" unicode="(" horiz-adv-x="724" 
d="M70 536q0 285 128.5 526t358.5 413l117 -119q-402 -339 -402 -813q0 -282 111 -474.5t293 -351.5l-107 -114q-240 170 -369.5 409t-129.5 524z" />
    <glyph glyph-name="parenright" unicode=")" horiz-adv-x="724" 
d="M453 540q0 273 -111.5 468.5t-290.5 347.5l117 119q230 -172 358.5 -413.5t128.5 -526.5t-129.5 -523.5t-369.5 -408.5l-107 114q300 262 352 473.5t52 349.5z" />
    <glyph glyph-name="asterisk" unicode="*" horiz-adv-x="808" 
d="M442 1065l199 176l100 -149l-268 -80q-3 32 -31 53zM442 944q24 15 31 47l268 -82l-100 -149zM397 930q24 0 33 6l62 -246h-181l49 248q13 -8 37 -8zM404 1079q-15 0 -35 -4l-60 234h183l-62 -238q-11 8 -26 8zM66 1090l100 153l190 -176q-30 -13 -34 -55zM66 911l258 84
q3 -31 26 -51l-182 -186z" />
    <glyph glyph-name="plus" unicode="+" horiz-adv-x="1015" 
d="M82 518v148h342v321h166v-321h344v-148h-344v-328h-166v328h-342z" />
    <glyph glyph-name="comma" unicode="," horiz-adv-x="430" 
d="M6 -244q115 201 121 441h190q-3 -120 -51.5 -247.5t-122.5 -234.5z" />
    <glyph glyph-name="hyphen" unicode="-" horiz-adv-x="851" 
d="M154 432v182h544v-182h-544z" />
    <glyph glyph-name="period" unicode="." horiz-adv-x="456" 
d="M193.5 -23q-97.5 0 -97.5 127q0 58 35 90.5t95 32.5t98 -31.5t38 -91.5t-35.5 -93.5t-133 -33.5z" />
    <glyph glyph-name="slash" unicode="/" horiz-adv-x="913" 
d="M51 -86l643 1491h166l-637 -1491h-172z" />
    <glyph glyph-name="zero" unicode="0" horiz-adv-x="1247" 
d="M326 682q0 -313 76 -419.5t225 -106.5q254 0 273.5 216t19.5 290t-2.5 121.5t-10.5 101t-46.5 171.5t-244.5 118q-290 0 -290 -492zM614 -20q-505 0 -505 659q0 711 522 711q506 0 506 -652q0 -718 -523 -718z" />
    <glyph glyph-name="one" unicode="1" horiz-adv-x="696" 
d="M526 0h-211v1157l-284 -14v182l495 25v-1350z" />
    <glyph glyph-name="two" unicode="2" horiz-adv-x="1062" 
d="M68 0v141q198 135 350.5 311.5t217 297.5t64.5 216t-57 151.5t-140 56.5q-160 0 -284 -142l-104 142q42 49 153 112.5t275 63.5t271.5 -97t107.5 -266q0 -97 -54 -212t-186 -276.5t-346 -316.5h645v-182h-913z" />
    <glyph glyph-name="three" unicode="3" horiz-adv-x="1042" 
d="M481 158q105 0 178.5 53t73.5 143t-87.5 172t-364.5 95v137q162 11 277.5 79t115.5 169q0 80 -57 122.5t-148 42.5q-146 0 -262 -104l-92 145q16 16 117.5 77t298.5 61q149 0 255.5 -90t106.5 -216t-81 -208t-216 -117q166 -31 260 -125t94 -223t-97 -260t-388 -131
q-131 0 -243 43t-163 88l109 170q145 -123 313 -123z" />
    <glyph glyph-name="four" unicode="4" horiz-adv-x="1126" 
d="M662 483v590l-408 -590h408zM47 309v133l608 889h217v-848h191v-174h-191v-307h-210v307h-615z" />
    <glyph glyph-name="five" unicode="5" horiz-adv-x="1044" 
d="M471 156q104 0 181 60.5t77 166.5q0 154 -134.5 220.5t-424.5 66.5v661h741v-182h-540v-315q288 -3 431.5 -120t143.5 -319q0 -165 -121 -290t-370 -125q-105 0 -206 36t-177 99l102 170q129 -129 297 -129z" />
    <glyph glyph-name="six" unicode="6" horiz-adv-x="1116" 
d="M807 422q0 114 -58.5 168.5t-183.5 54.5q-76 0 -143 -25.5t-107 -58.5q3 -238 74.5 -321.5t193.5 -83.5q121 0 172.5 76t51.5 190zM98 616q0 347 187 539.5t510 192.5q74 0 170 -13v-186q-88 16 -173 16q-183 0 -319 -103t-154 -329q149 90 315 90t277 -99.5t111 -297.5
t-119 -322t-334 -124q-255 0 -363 169t-108 467z" />
    <glyph glyph-name="seven" unicode="7" horiz-adv-x="983" 
d="M47 1149v182h905v-121l-555 -1208h-211l531 1147h-670z" />
    <glyph glyph-name="eight" unicode="8" horiz-adv-x="1118" 
d="M764 1038q0 68 -56.5 109t-150.5 41t-151.5 -43t-57.5 -111t47 -113.5t170 -123.5q102 69 150.5 121t48.5 120zM309 336q0 -95 73.5 -147t185.5 -52t178.5 55t66.5 136t-65 137.5t-115 86t-90 52.5q-170 -94 -202 -159.5t-32 -108.5zM94 319q0 216 314 371
q-155 93 -203 150t-58 100t-10 84q0 94 60.5 169.5t158.5 116t213 40.5q184 0 298 -88.5t114 -229.5q0 -163 -285 -319q242 -123 288 -213.5t46 -151.5q0 -160 -137.5 -264t-331.5 -104t-330.5 87.5t-136.5 251.5z" />
    <glyph glyph-name="nine" unicode="9" horiz-adv-x="1116" 
d="M551 684q76 0 143.5 26t106.5 60q-3 237 -74.5 320.5t-196.5 83.5q-77 0 -149 -54t-72 -190q0 -137 58.5 -191.5t183.5 -54.5zM94 904q0 198 119 322t334 124q255 0 363 -169t108 -466q0 -347 -186.5 -540t-509.5 -193q-81 0 -170 12v188q88 -16 163 -16t179.5 23.5
t196.5 126t106 280.5q-152 -88 -317 -88t-275.5 99t-110.5 297z" />
    <glyph glyph-name="colon" unicode=":" horiz-adv-x="581" 
d="M291 670q-133 0 -133 125q0 58 35.5 90.5t96.5 32.5t97.5 -31t36.5 -92t-34.5 -93t-98.5 -32zM158 102q0 60 35.5 92.5t96.5 32.5t97.5 -31t36.5 -92t-35 -94t-99 -33t-98 32.5t-34 92.5z" />
    <glyph glyph-name="semicolon" unicode=";" horiz-adv-x="538" 
d="M272 670q-133 0 -133 125q0 58 35.5 90.5t96.5 32.5t98 -31t37 -92t-35 -93t-99 -32zM57 -244q116 208 119 441h193q-4 -121 -53 -249t-123 -233z" />
    <glyph glyph-name="less" unicode="&#x3c;" horiz-adv-x="962" 
d="M90 520v135l666 467l104 -143l-563 -389l559 -414l-102 -141z" />
    <glyph glyph-name="equal" unicode="=" horiz-adv-x="1218" 
d="M172 717v151h875v-151h-875zM172 328v151h875v-151h-875z" />
    <glyph glyph-name="greater" unicode="&#x3e;" horiz-adv-x="962" 
d="M102 979l105 143l665 -467v-135l-663 -485l-103 141l560 414z" />
    <glyph glyph-name="question" unicode="?" horiz-adv-x="917" 
d="M274 102q0 60 36 92.5t97 32.5t97.5 -31t36.5 -92t-35 -94t-99 -33t-98.5 32.5t-34.5 92.5zM449 551q0 -51 43 -111l-211 -53q-37 84 -37 148t20.5 106.5t53 76t72 66t79 63t92.5 80t53 117.5t-55.5 103t-142.5 35q-164 0 -275 -111l-90 143q162 136 397 136t315.5 -100
t80.5 -178t-29.5 -133t-86.5 -102.5t-168 -124.5t-111 -161z" />
    <glyph glyph-name="at" unicode="@" horiz-adv-x="1714" 
d="M655 279q0 -60 36.5 -90.5t96.5 -30.5q112 0 203 104v146q-66 8 -114 8q-222 0 -222 -137zM78 416q0 179 63.5 330t173 252t258.5 157.5t318 56.5t309 -56.5t279 -201.5t139 -405t-117 -398.5t-274 -138.5q-84 0 -145.5 36t-80.5 97q-107 -135 -272 -135
q-122 0 -197 67.5t-75 184.5q0 176 144.5 222t240.5 46t149 -6l2 97q0 89 -38.5 125t-94.5 36t-87.5 -7t-58 -30t-26.5 -51t6 -49l-168 -22q-12 37 -12 73q0 103 99.5 168.5t244.5 65.5q324 0 324 -295l-2 -426q0 -42 24 -66t62 -24q97 0 159 115.5t62 263.5t-41 252.5
t-116.5 182t-189.5 122.5t-257 45t-266.5 -45.5t-214.5 -131t-142 -216.5t-51 -315t88 -333.5t236 -224t335 -74.5q260 0 482 162l57 -90q-258 -184 -545 -184q-200 0 -378 82t-292 255.5t-114 430.5z" />
    <glyph glyph-name="A" unicode="A" horiz-adv-x="1206" 
d="M401 502h392l-93 272l-106 344l-105 -350zM12 0l471 1331h238l475 -1331h-231l-113 328h-510l-109 -328h-221z" />
    <glyph glyph-name="B" unicode="B" horiz-adv-x="1198" 
d="M387 776h168q110 0 171.5 51.5t61.5 147.5q0 174 -221 174h-180v-373zM387 186h240q137 0 197.5 48.5t60.5 158.5t-71.5 161.5t-213.5 51.5h-213v-420zM170 0v1331h432q412 0 412 -323q0 -95 -48 -173t-159 -118v-4q235 -36 270 -151t35 -169q0 -191 -115 -292t-335 -101
h-492z" />
    <glyph glyph-name="C" unicode="C" horiz-adv-x="1191" 
d="M720 1167q-184 0 -290 -129t-106 -374q0 -502 411 -502q93 0 182.5 28t151.5 70l57 -186q-181 -94 -409 -94q-299 0 -462 167.5t-163 503.5t180.5 517.5t470.5 181.5q221 0 369 -88l-74 -201q-134 106 -318 106z" />
    <glyph glyph-name="D" unicode="D" horiz-adv-x="1384" 
d="M387 186h268q279 0 340.5 147t61.5 322q0 276 -113.5 385t-302.5 109h-254v-963zM170 0v1331h475q401 0 522 -209t121 -461t-119 -456.5t-530 -204.5h-469z" />
    <glyph glyph-name="E" unicode="E" horiz-adv-x="1103" 
d="M170 0v1331h825v-182h-608v-377h543v-180h-543v-406h608v-186h-825z" />
    <glyph glyph-name="F" unicode="F" horiz-adv-x="1040" 
d="M170 0v1331h803v-182h-586v-436h524v-181h-524v-532h-217z" />
    <glyph glyph-name="G" unicode="G" horiz-adv-x="1277" 
d="M92 660q0 140 50 305.5t220 275t392 109.5t395 -95l-74 -202q-146 114 -336 114t-303.5 -122t-113.5 -379q0 -504 438 -504q100 0 192 37v460h213v-550q-89 -56 -207 -92.5t-232 -36.5t-208 24t-173.5 77t-135 132t-86.5 193t-31 254z" />
    <glyph glyph-name="H" unicode="H" horiz-adv-x="1378" 
d="M170 0v1331h217v-555h604v555h217v-1331h-217v584h-604v-584h-217z" />
    <glyph glyph-name="I" unicode="I" horiz-adv-x="557" 
d="M170 0v1331h217v-1331h-217z" />
    <glyph glyph-name="J" unicode="J" horiz-adv-x="559" 
d="M172 141v1190h217v-1214q0 -179 -105.5 -295t-295.5 -156l-64 184q115 29 164 73.5t66.5 95.5t17.5 122z" />
    <glyph glyph-name="K" unicode="K" horiz-adv-x="1187" 
d="M170 0v1331h217v-590l100 29l406 561h246l-482 -641l531 -690h-268l-447 586l-86 -21v-565h-217z" />
    <glyph glyph-name="L" unicode="L" horiz-adv-x="968" 
d="M170 0v1331h217v-1145h561v-186h-778z" />
    <glyph glyph-name="M" unicode="M" horiz-adv-x="1710" 
d="M170 0v1331h256l268 -649l172 -477l168 475l260 653h246v-1333h-203v973l-125 -367l-235 -606h-234l-235 580l-139 378l2 -356v-602h-201z" />
    <glyph glyph-name="N" unicode="N" horiz-adv-x="1458" 
d="M170 0v1331h231l459 -659l227 -342l-4 313v688h205v-1331h-217l-463 668l-233 354l2 -348v-674h-207z" />
    <glyph glyph-name="O" unicode="O" horiz-adv-x="1435" 
d="M712 162q402 0 402 510q0 250 -95 372.5t-299 122.5t-300 -126t-96 -376t93 -376.5t295 -126.5zM92 657q0 201 75 357.5t218 246t334 89.5q295 0 459.5 -174t164.5 -512q0 -196 -75 -350.5t-219.5 -244t-335.5 -89.5q-292 0 -456.5 179t-164.5 498z" />
    <glyph glyph-name="P" unicode="P" horiz-adv-x="1132" 
d="M387 629h205q256 0 256 258q0 131 -60.5 196.5t-203.5 65.5h-197v-520zM170 0v1331h430q477 0 477 -434q0 -207 -127 -327.5t-348 -120.5h-215v-449h-217z" />
    <glyph glyph-name="Q" unicode="Q" horiz-adv-x="1437" 
d="M712 162q402 0 402 510q0 250 -95 372.5t-299 122.5t-300 -126t-96 -376t93 -376.5t295 -126.5zM92 657q0 201 75 357.5t218 246t334 89.5q295 0 459.5 -174t164.5 -512q0 -212 -88.5 -376t-248.5 -243l335 -350l-180 -121l-325 416q-65 -10 -123 -10q-292 0 -456.5 179
t-164.5 498z" />
    <glyph glyph-name="R" unicode="R" horiz-adv-x="1206" 
d="M387 668h195q256 0 256 239q0 129 -61.5 185.5t-203.5 56.5h-186v-481zM170 0v1331h418q252 0 365.5 -106.5t113.5 -311.5q0 -135 -61.5 -233t-174.5 -148l320 -532h-258l-275 487h-231v-487h-217z" />
    <glyph glyph-name="S" unicode="S" horiz-adv-x="1042" 
d="M498 160q91 0 164 46t73 120t-35 120.5t-90.5 78t-176 83.5t-225 132t-104.5 244t122 265t318 101t367 -95l-63 -206q-48 48 -132.5 83t-175.5 35t-148.5 -42t-57.5 -108t35 -108.5t90.5 -71t123 -56t134.5 -62.5t122.5 -79.5t90.5 -118t35 -167.5q0 -168 -137 -271
t-350 -103t-400 118l74 205q66 -60 160.5 -101.5t185.5 -41.5z" />
    <glyph glyph-name="T" unicode="T" horiz-adv-x="1079" 
d="M23 1149v182h1034v-182h-408v-1149h-217v1149h-409z" />
    <glyph glyph-name="U" unicode="U" horiz-adv-x="1390" 
d="M156 475v856h217v-825q0 -194 76.5 -270t246.5 -76t250 83.5t80 272.5v815h211v-846q0 -245 -147 -375t-400 -130q-534 0 -534 495z" />
    <glyph glyph-name="V" unicode="V" horiz-adv-x="1177" 
d="M8 1331h225l265 -764l104 -374l98 374l240 764h221l-440 -1331h-250z" />
    <glyph glyph-name="W" unicode="W" horiz-adv-x="1775" 
d="M45 1331h223l166 -739l72 -399l80 397l180 723h254l188 -719l84 -401l74 407l143 731h209l-297 -1331h-276l-164 614l-98 459l-92 -463l-156 -610h-268z" />
    <glyph glyph-name="X" unicode="X" horiz-adv-x="1157" 
d="M23 0l438 692l-404 639h248l283 -473l286 473h218l-396 -629l447 -702h-248l-324 532l-325 -532h-223z" />
    <glyph glyph-name="Y" unicode="Y" horiz-adv-x="1081" 
d="M657 0h-217v516l-446 815h233l168 -317l162 -322l303 639h217l-420 -811v-520z" />
    <glyph glyph-name="Z" unicode="Z" horiz-adv-x="1099" 
d="M66 0v147l460 678l230 324h-650v182h900v-160l-443 -649l-241 -338h700v-184h-956z" />
    <glyph glyph-name="bracketleft" unicode="[" horiz-adv-x="638" 
d="M145 -365v1860h441v-145h-254v-1575h254v-140h-441z" />
    <glyph glyph-name="backslash" unicode="\" horiz-adv-x="913" 
d="M53 1405h166l643 -1491h-172z" />
    <glyph glyph-name="bracketright" unicode="]" horiz-adv-x="638" 
d="M53 -225h256v1575h-256v145h441v-1860h-441v140z" />
    <glyph glyph-name="asciicircum" unicode="^" horiz-adv-x="1048" 
d="M53 715l402 618h137l403 -618h-176l-301 456l-289 -456h-176z" />
    <glyph glyph-name="underscore" unicode="_" horiz-adv-x="1146" 
d="M53 -92h1041v-135h-1041v135z" />
    <glyph glyph-name="grave" unicode="`" horiz-adv-x="921" 
d="M283 1348l116 137l273 -281l-80 -86z" />
    <glyph glyph-name="a" unicode="a" horiz-adv-x="1046" 
d="M293 279q0 -66 41.5 -101t107.5 -35t124.5 34.5t99.5 84.5v160q-78 8 -125 8q-248 0 -248 -151zM74 260q0 299 471 299q43 0 121 -4l2 104q0 100 -42 141.5t-128 41.5q-139 0 -167 -90q-3 -10 -3 -26t8 -38l-186 -26q-15 44 -15 81q0 115 110.5 189t272.5 74
q361 0 361 -330l-2 -428q0 -102 63 -102q15 0 35 6l12 -154q-67 -18 -135 -18t-114.5 40t-59.5 109q-120 -149 -303 -149q-136 0 -218.5 75t-82.5 205z" />
    <glyph glyph-name="b" unicode="b" 
d="M526 154q144 0 224.5 88t80.5 251t-64 244.5t-180 81.5t-239 -110v-514q75 -41 178 -41zM135 1403h213v-522q145 125 305 125q193 0 298.5 -132.5t105.5 -369.5t-143 -380.5t-367 -143.5t-412 90v1333z" />
    <glyph glyph-name="c" unicode="c" horiz-adv-x="950" 
d="M587 156q132 0 234 88l58 -172q-70 -45 -160.5 -68.5t-171.5 -23.5q-211 0 -338 130.5t-127 372.5t134.5 382.5t354.5 140.5q175 0 310 -74l-68 -193q-112 92 -238 92t-198 -89.5t-72 -253.5t75 -248t207 -84z" />
    <glyph glyph-name="d" unicode="d" horiz-adv-x="1146" 
d="M307 494q0 -162 64.5 -244t180.5 -82t239 119v497q-79 50 -202 50t-202.5 -89t-79.5 -251zM82 482q0 236 141.5 380t372.5 144q74 0 195 -25v422h213v-1403h-197l-4 129q-149 -149 -329 -149t-286 133t-106 369z" />
    <glyph glyph-name="e" unicode="e" horiz-adv-x="1030" 
d="M730 617q0 233 -195 233q-106 0 -163 -63.5t-69 -196.5h426q1 14 1 27zM214.5 870q130.5 136 324.5 136q405 0 405 -492v-63h-643q20 -301 305 -301q72 0 146 31t125 73l57 -170q-179 -104 -380 -104t-335.5 125t-134.5 377t130.5 388z" />
    <glyph glyph-name="f" unicode="f" horiz-adv-x="731" 
d="M53 807v149l156 13v78q3 130 71.5 253t290.5 123q127 0 220 -41l-41 -186q-85 57 -167 57q-161 0 -161 -211v-73h280v-162h-280v-807h-213v807h-156z" />
    <glyph glyph-name="g" unicode="g" horiz-adv-x="1095" 
d="M287 664q0 -141 88.5 -169t128.5 -28q89 0 156 52.5t67 148.5t-61.5 145t-159.5 49t-158.5 -49.5t-60.5 -148.5zM236 -158q0 -54 55.5 -102.5t210.5 -48.5q156 0 238.5 52.5t82.5 134.5t-76.5 100t-191.5 24t-154 12q-165 -61 -165 -172zM37 -205q0 175 223 260
q-72 46 -72 123q0 95 172 166q-136 29 -212 112t-76 201q0 155 124.5 252t305.5 97q59 0 172.5 -18.5t245.5 -18.5h143v-144h-168q47 -68 47 -153q0 -131 -104.5 -226t-268.5 -114q-188 -54 -188 -101q0 -34 53.5 -45.5t147.5 -17.5t143 -11.5t122 -20.5t133 -69t60 -141
t-37 -153t-104 -118.5t-170 -85t-231 -32.5t-232 27.5t-166.5 87t-62.5 143.5z" />
    <glyph glyph-name="h" unicode="h" horiz-adv-x="1153" 
d="M143 0v1403h213v-535q149 138 330 138q132 0 233 -74.5t101 -267.5v-664h-213v590q0 125 -46 174t-140 49q-135 0 -265 -113v-700h-213z" />
    <glyph glyph-name="i" unicode="i" horiz-adv-x="499" 
d="M143 0v981h213v-981h-213zM127 1310q0 54 36.5 91t90.5 37t90.5 -37.5t36.5 -90.5t-36.5 -89.5t-90.5 -36.5t-90.5 36t-36.5 90z" />
    <glyph glyph-name="j" unicode="j" horiz-adv-x="499" 
d="M127 1310q0 54 36.5 91t90.5 37t90.5 -37.5t36.5 -90.5t-36.5 -89.5t-90.5 -36.5t-90.5 36t-36.5 90zM-148 -279q291 0 291 277v983h213v-991q0 -288 -167.5 -368.5t-302.5 -80.5h-11l-31 180h8z" />
    <glyph glyph-name="k" unicode="k" horiz-adv-x="1026" 
d="M143 0v1403h213v-840l66 21l295 397h239l-354 -461l416 -520h-264l-322 416l-76 -17v-399h-213z" />
    <glyph glyph-name="l" unicode="l" horiz-adv-x="499" 
d="M143 0v1403h213v-1403h-213z" />
    <glyph glyph-name="m" unicode="m" horiz-adv-x="1777" 
d="M591 815q-104 0 -235 -115v-700h-213v981h199l2 -125q150 150 322 150q221 0 299 -162q159 162 344 162q133 0 234.5 -75t101.5 -267v-664h-213v590q0 125 -48 175t-122 50q-130 0 -263 -113q2 -12 2 -38v-664h-213v590q0 126 -46.5 175.5t-150.5 49.5z" />
    <glyph glyph-name="n" unicode="n" horiz-adv-x="1153" 
d="M143 0v981h199l2 -125q150 150 342 150q132 0 233 -74.5t101 -267.5v-664h-213v590q0 126 -46 175.5t-140 49.5q-133 0 -265 -115v-700h-213z" />
    <glyph glyph-name="o" unicode="o" 
d="M563 836q-258 0 -258 -343t258 -343q147 0 206.5 88t59.5 258q0 340 -266 340zM82 484q0 234 132 378t358 144t354.5 -136.5t128.5 -362.5t-92 -335t-185.5 -150.5t-208.5 -41.5q-229 0 -358 135t-129 369z" />
    <glyph glyph-name="p" unicode="p" horiz-adv-x="1146" 
d="M555 154q125 0 205 89t80 251t-64 243.5t-180 81.5t-240 -121v-497q74 -47 199 -47zM143 -451v1432h197l4 -123q152 148 331 148t284.5 -132.5t105.5 -369.5t-142.5 -380.5t-373.5 -143.5q-86 0 -193 22v-453h-213z" />
    <glyph glyph-name="q" unicode="q" 
d="M307 494q0 -162 64 -244t181 -82t236 119v501q-82 46 -184 46q-140 0 -218.5 -89t-78.5 -251zM82 482q0 238 146 381t366 143t407 -88v-1369h-213v568q-144 -137 -303 -137q-193 0 -298 132t-105 370z" />
    <glyph glyph-name="r" unicode="r" horiz-adv-x="735" 
d="M143 0v981h195l6 -182q120 194 291 194q33 0 74 -6l-17 -217q-39 16 -96 16q-126 0 -240 -147v-639h-213z" />
    <glyph glyph-name="s" unicode="s" horiz-adv-x="888" 
d="M399 145q193 0 193 125q0 73 -71.5 104.5t-162.5 63.5t-177.5 93.5t-86.5 195.5q0 67 32.5 121.5t113 106t246.5 51.5q165 0 300 -78l-61 -185q-33 40 -100.5 69.5t-127.5 29.5t-94.5 -9t-63 -36t-28.5 -61t21.5 -57.5t57 -39t80.5 -33.5t117.5 -44t149 -94t76.5 -187
q0 -185 -139.5 -243t-249.5 -58q-212 0 -348 81l55 187q43 -40 120 -71.5t148 -31.5z" />
    <glyph glyph-name="t" unicode="t" horiz-adv-x="806" 
d="M47 807v149l150 15l26 260h185v-262h321v-162h-321v-461q1 -106 39 -149t124 -43t170 69l39 -174q-132 -69 -277 -69t-226.5 76t-81.5 255v496h-148z" />
    <glyph glyph-name="u" unicode="u" horiz-adv-x="1148" 
d="M471 -23q-338 0 -338 345v659h213v-596q0 -127 44.5 -177t135.5 -50q122 0 267 127v696h213v-981h-193l-8 129q-152 -152 -334 -152z" />
    <glyph glyph-name="v" unicode="v" horiz-adv-x="1013" 
d="M20 981h226l178 -510l88 -301l88 307l172 504h225l-362 -981h-264z" />
    <glyph glyph-name="w" unicode="w" horiz-adv-x="1579" 
d="M41 981h225l123 -500l64 -299l77 297l148 502h235l154 -526l68 -273l55 275l127 524h221l-278 -981h-259l-133 428l-80 326l-81 -328l-142 -426h-254z" />
    <glyph glyph-name="x" unicode="x" horiz-adv-x="974" 
d="M27 0l342 514l-301 467h231l195 -315l194 315h221l-303 -455l340 -526h-231l-234 377l-241 -377h-213z" />
    <glyph glyph-name="y" unicode="y" horiz-adv-x="1007" 
d="M16 981h228l174 -479l98 -289l92 283l170 485h213l-534 -1432h-209l149 406z" />
    <glyph glyph-name="z" unicode="z" horiz-adv-x="960" 
d="M68 0v131l522 678h-490v172h768v-131l-526 -678h543v-172h-817z" />
    <glyph glyph-name="braceleft" unicode="{" horiz-adv-x="710" 
d="M61 494v137q44 0 52 2q64 3 95.5 27t31.5 75v432q0 188 87 258t246 70h84v-131h-73q-113 0 -144.5 -46.5t-31.5 -148.5v-321q0 -187 -56 -229.5t-106 -55.5q63 -12 100 -53t49.5 -95t12.5 -132v-330q0 -103 21 -136.5t55 -44t91 -10.5h82v-133h-90q-233 0 -280 99.5
t-47 228.5v432q0 52 -30.5 76t-94.5 27q-8 2 -54 2z" />
    <glyph glyph-name="bar" unicode="|" horiz-adv-x="503" 
d="M168 -20v1425h168v-1425h-168z" />
    <glyph glyph-name="braceright" unicode="}" horiz-adv-x="710" 
d="M53 -238h84q111 0 138.5 44t27.5 147v330q0 119 36 190.5t126 89.5q-100 26 -131 98t-31 187v321q0 102 -24 137.5t-59 46.5t-91 11h-76v131h86q229 0 280.5 -105.5t51.5 -222.5v-432q0 -53 35 -77t104 -27h39v-137h-41q-71 -3 -104 -27t-33 -78v-432q0 -82 -11.5 -136.5
t-61 -123t-253.5 -68.5h-92v133z" />
    <glyph glyph-name="asciitilde" unicode="~" horiz-adv-x="1228" 
d="M1163 690q-145 -250 -317 -250q-126 0 -248.5 86t-219.5 86q-98 0 -208 -153l-104 78q79 127 156.5 174t155.5 47q137 0 272.5 -85t197.5 -85q61 0 104 41t103 139z" />
    <glyph glyph-name="uni00A0" unicode="&#xa0;" horiz-adv-x="460" 
 />
    <glyph glyph-name="exclamdown" unicode="&#xa1;" horiz-adv-x="505" 
d="M352 -387h-200v457l20 432h158l22 -434v-455zM117 840q0 60 35.5 93.5t98.5 33.5t97.5 -32.5t34.5 -92.5t-35.5 -92.5t-95.5 -32.5t-97.5 31.5t-37.5 91.5z" />
    <glyph glyph-name="cent" unicode="&#xa2;" horiz-adv-x="966" 
d="M311 494q0 -271 191 -326v649q-191 -52 -191 -323zM88 478q0 222 112.5 359.5t301.5 161.5v164h127v-159q137 -8 258 -72l-68 -193q-89 74 -190 86v-667q111 12 198 86l58 -172q-110 -71 -256 -88v-136h-127v134q-190 15 -302 144.5t-112 351.5z" />
    <glyph glyph-name="sterling" unicode="&#xa3;" horiz-adv-x="1222" 
d="M88 0v131q89 10 143 88t54 168v203h-174v149h174v144q0 229 131.5 348t324.5 119q192 0 328 -115l-96 -156q-59 56 -110.5 78.5t-114.5 22.5q-250 0 -250 -295v-146h454v-149h-454v-121q0 -100 -30 -170.5t-106 -126.5h418q114 0 176 35.5t105 101.5l104 -135
q-60 -116 -160.5 -145t-170.5 -29h-746z" />
    <glyph glyph-name="currency" unicode="&#xa4;" horiz-adv-x="1054" 
d="M379 538q0 -70 41.5 -113.5t107.5 -43.5t107 45.5t41 113.5t-40 110t-108 42t-108.5 -42t-40.5 -112zM219 542q0 88 53 160q-188 188 -200 199l82 86l204 -201q78 48 166 48t170 -50l207 201l84 -82l-205 -201q54 -68 54 -160t-54 -169l205 -201l-86 -74l-203 195
q-70 -49 -162 -49t-176 49l-202 -197l-84 76l200 199q-53 83 -53 171z" />
    <glyph glyph-name="yen" unicode="&#xa5;" horiz-adv-x="1185" 
d="M1024 616v-149h-309v-148h309v-149h-309v-170h-217v170h-314v149h314v148h-314v149h258l-391 715h234l168 -317l161 -322l150 320l154 319h217l-371 -715h260z" />
    <glyph glyph-name="brokenbar" unicode="&#xa6;" horiz-adv-x="550" 
d="M190 815v590h170v-590h-170zM190 -20v612h170v-612h-170z" />
    <glyph glyph-name="section" unicode="&#xa7;" horiz-adv-x="1089" 
d="M303 913q0 -65 36.5 -167.5t88 -213.5t139.5 -304t88 -330q0 -61 -26 -101q183 88 183 231q-1 125 -87.5 317.5t-173 386t-86.5 327.5q0 72 37 115q-93 -45 -146 -120.5t-53 -140.5zM57 -221q121 -76 242 -76q120 0 167.5 50.5t47.5 116.5t-56 213.5t-179 406.5t-123 380
q0 122 61.5 213.5t209.5 179t364 87.5q120 0 239 -27l-4 -180q-62 38 -139.5 61t-143.5 23t-102.5 -43.5t-36.5 -115.5q0 -127 177 -510.5t177 -506.5q0 -218 -229 -349.5t-487 -131.5q-90 0 -189 27z" />
    <glyph glyph-name="dieresis" unicode="&#xa8;" horiz-adv-x="921" 
d="M537 1278q0 47 33.5 81t80.5 34t81 -34t34 -81t-34 -80t-81 -33t-80.5 33t-33.5 80zM168 1278q0 47 34 81t81 34t80.5 -34t33.5 -81t-33.5 -80t-80.5 -33t-81 33t-34 80z" />
    <glyph glyph-name="copyright" unicode="&#xa9;" horiz-adv-x="1470" 
d="M767 346q128 0 226 64l39 -127q-122 -58 -276 -58q-199 0 -308.5 102.5t-109.5 306.5t119.5 314.5t316.5 110.5q147 0 248 -58l-49 -133q-95 70 -213 70t-189 -76t-71 -222t69.5 -220t197.5 -74zM184 661q0 -144 44.5 -252.5t119 -183t174.5 -117t213 -42.5t216 43
t177 118.5t117 183t43 247.5t-73 271.5t-202 209.5t-281 78t-277 -73.5t-198 -206t-73 -276.5zM92 642q0 134 51 255.5t137 209t204 139.5t249 52t251 -51.5t207 -139.5t138 -209.5t51 -255.5t-50 -255t-136 -209t-207 -140t-253 -52t-250 52t-204 140t-137 209t-51 255z
" />
    <glyph glyph-name="ordfeminine" unicode="&#xaa;" horiz-adv-x="909" 
d="M264 801q0 -105 109 -105t188 82v133q-40 7 -114 7t-128.5 -29t-54.5 -88zM78 778q0 147 131 187.5t213 40.5t102 -2h37v81q0 132 -135 132q-48 0 -90 -19.5t-43 -60.5q0 -14 6 -35l-158 -21q-14 35 -14 66q0 89 90.5 146t224.5 57q212 0 256 -91.5t45 -160.5l-2 -332
q0 -71 43 -74q9 0 33 8l10 -122q-59 -15 -111 -15t-91.5 27.5t-51.5 75.5q-101 -103 -229 -103t-197 57.5t-69 157.5z" />
    <glyph glyph-name="guillemotleft" unicode="&#xab;" horiz-adv-x="976" 
d="M469 479l264 473h176l-219 -465l219 -481h-176zM51 479l266 473h177l-220 -465l220 -481h-177z" />
    <glyph glyph-name="logicalnot" unicode="&#xac;" horiz-adv-x="1456" 
d="M102 539v133h1223v-553h-158v420h-1065z" />
    <glyph glyph-name="uni00AD" unicode="&#xad;" horiz-adv-x="851" 
d="M154 432v182h544v-182h-544z" />
    <glyph glyph-name="registered" unicode="&#xae;" horiz-adv-x="1175" 
d="M496 846h90q60 0 91.5 27t31.5 91t-27.5 89.5t-99.5 25.5h-86v-233zM844 967q0 -142 -129 -193l127 -246h-142l-104 226h-100v-226h-129v648h225q252 0 252 -209zM176 846q0 -190 119.5 -310t294.5 -120t291 119.5t116 310.5q0 115 -52.5 213.5t-148 157.5t-212.5 59
q-176 0 -292 -120t-116 -310zM94 830q0 120 39 213t105 160t156.5 107t207.5 40t231 -67.5t180 -184t66 -254.5t-66.5 -253.5t-179.5 -181t-247 -65.5t-247 67.5t-179 183t-66 235.5z" />
    <glyph glyph-name="macron" unicode="&#xaf;" horiz-adv-x="921" 
d="M199 1214v142h524v-142h-524z" />
    <glyph glyph-name="degree" unicode="&#xb0;" horiz-adv-x="718" 
d="M197 1079q0 -77 43.5 -124.5t119.5 -47.5t117 48.5t41 124.5t-40.5 120.5t-117.5 44.5t-120 -44.5t-43 -121.5zM70 1076q0 122 81 198t211 76t208.5 -72.5t78.5 -197.5t-79 -200t-210 -75t-210.5 74.5t-79.5 196.5z" />
    <glyph glyph-name="plusminus" unicode="&#xb1;" horiz-adv-x="1052" 
d="M100 547v145h342v295h166v-295h344v-145h-344v-289h-166v289h-342zM100 -4v145h852v-145h-852z" />
    <glyph glyph-name="uni00B2" unicode="&#xb2;" horiz-adv-x="651" 
d="M47 778v94q111 72 230.5 200.5t119.5 225.5q0 48 -26.5 72.5t-64.5 24.5t-83 -26.5t-78 -59.5l-77 90q27 31 92 74t169 43t170 -56t66 -149t-89 -206t-208 -202h332v-125h-553z" />
    <glyph glyph-name="uni00B3" unicode="&#xb3;" horiz-adv-x="638" 
d="M582 979q0 -84 -73 -147.5t-220 -63.5q-79 0 -147.5 26t-104.5 54l78 113q79 -72 174 -72q49 0 88 26.5t39 69.5q0 112 -238 123v88q88 5 146.5 38.5t58.5 75.5t-29 63.5t-71 21.5q-76 0 -150 -60l-67 97q112 84 232 84t185.5 -51.5t65.5 -127.5q0 -110 -133 -166
q166 -50 166 -192z" />
    <glyph glyph-name="acute" unicode="&#xb4;" horiz-adv-x="921" 
d="M283 1204l272 281l117 -137l-310 -230z" />
    <glyph glyph-name="uni00B5" unicode="&#xb5;" horiz-adv-x="1146" 
d="M127 -451v1432h213v-596q0 -127 44.5 -176t135.5 -49q123 0 266 125v696h213v-981h-192l-8 129q-152 -152 -334 -152q-124 0 -170 48q45 -99 45 -218v-258h-213z" />
    <glyph glyph-name="paragraph" unicode="&#xb6;" horiz-adv-x="1161" 
d="M840 -451v1782h174v-1782h-174zM674 1331v-1782h-174v740q-212 60 -329.5 196t-117.5 331t114 310t235 160t272 45z" />
    <glyph glyph-name="periodcentered" unicode="&#xb7;" horiz-adv-x="487" 
d="M115 602q0 56 36.5 91.5t92.5 35.5t92.5 -35t36.5 -91t-36.5 -91t-92.5 -35t-92.5 34.5t-36.5 90.5z" />
    <glyph glyph-name="cedilla" unicode="&#xb8;" horiz-adv-x="921" 
d="M416 -356q110 0 110 69q0 41 -42 66t-124 28l58 216h110l-34 -138q92 -14 140 -63.5t48 -123.5t-69.5 -121.5t-174.5 -47.5t-178 47l45 119q51 -51 111 -51z" />
    <glyph glyph-name="uni00B9" unicode="&#xb9;" horiz-adv-x="452" 
d="M348 778h-164v608l-157 -8v123l321 15v-738z" />
    <glyph glyph-name="ordmasculine" unicode="&#xba;" horiz-adv-x="942" 
d="M264 954q0 -124 47.5 -188t161.5 -64t160.5 65t46.5 187t-47.5 190t-161.5 68t-160.5 -67t-46.5 -191zM74 950q0 180 108.5 290t294.5 110t290.5 -104t104.5 -280t-106 -289.5t-294 -113.5t-293 103.5t-105 283.5z" />
    <glyph glyph-name="guillemotright" unicode="&#xbb;" horiz-adv-x="976" 
d="M485 6l220 481l-220 465h177l264 -473l-264 -473h-177zM68 6l221 481l-221 465h176l266 -473l-266 -473h-176z" />
    <glyph glyph-name="onequarter" unicode="&#xbc;" horiz-adv-x="1531" 
d="M1190 281v268l-191 -268h191zM850 164v86l346 477h158v-446h106v-117h-106v-162h-164v162h-340zM248 154l942 1136l94 -76l-940 -1134zM375 623h-164v608l-158 -8v123l322 14v-737z" />
    <glyph glyph-name="onehalf" unicode="&#xbd;" horiz-adv-x="1613" 
d="M981 0v94q111 72 230.5 200.5t119.5 225.5q0 48 -26.5 72t-64.5 24t-83 -26.5t-78 -59.5l-78 91q101 116 261 116q105 0 171 -56t66 -149t-88.5 -205.5t-208.5 -201.5h332v-125h-553zM248 154l942 1136l94 -76l-940 -1134zM375 623h-164v608l-158 -8v123l322 14v-737z
" />
    <glyph glyph-name="threequarters" unicode="&#xbe;" horiz-adv-x="1634" 
d="M1292 281v268l-190 -268h190zM952 164v86l346 477h158v-446h107v-117h-107v-162h-164v162h-340zM369 154l942 1136l94 -76l-940 -1134zM459 1016q166 -51 166 -200q0 -77 -73 -140.5t-220 -63.5q-79 0 -147.5 26t-104.5 54l78 113q79 -72 174 -72q49 0 88 26.5t39 69.5
q0 112 -238 123v88q88 5 146.5 38.5t58.5 75.5t-29 63.5t-71 21.5q-78 0 -150 -59l-67 96q111 84 231 84t186 -51t66 -127q0 -110 -133 -166z" />
    <glyph glyph-name="questiondown" unicode="&#xbf;" horiz-adv-x="899" 
d="M354 842q0 61 35 94t99 33t98.5 -32.5t34.5 -92.5t-36 -92.5t-97 -32.5t-97.5 31t-36.5 92zM446 398q0 48 -43 108l211 53q37 -83 37 -151t-27.5 -117t-79.5 -95t-157.5 -129.5t-105.5 -157.5t55.5 -109.5t142.5 -35.5q164 0 275 111l90 -143q-161 -135 -396 -135
t-315.5 99.5t-80.5 177.5t29 133t72.5 91.5t95 74t95 67.5t73 70t29.5 88z" />
    <glyph glyph-name="Agrave" unicode="&#xc0;" horiz-adv-x="1206" 
d="M401 502h392l-93 272l-106 344l-105 -350zM303 1567l76 168l358 -219l-53 -105zM12 0l471 1331h238l475 -1331h-231l-113 328h-510l-109 -328h-221z" />
    <glyph glyph-name="Aacute" unicode="&#xc1;" horiz-adv-x="1206" 
d="M451 1516l356 219l78 -168l-383 -156zM401 502h392l-93 272l-106 344l-105 -350zM12 0l471 1331h238l475 -1331h-231l-113 328h-510l-109 -328h-221z" />
    <glyph glyph-name="Acircumflex" unicode="&#xc2;" horiz-adv-x="1206" 
d="M401 502h392l-93 272l-106 344l-105 -350zM299 1536l252 205h104l250 -201l-82 -108l-225 159l-221 -159zM12 0l471 1331h238l475 -1331h-231l-113 328h-510l-109 -328h-221z" />
    <glyph glyph-name="Atilde" unicode="&#xc3;" horiz-adv-x="1206" 
d="M401 502h392l-93 272l-106 344l-105 -350zM467 1686q52 0 137 -30t125 -30q77 0 131 64l70 -76q-40 -64 -97 -101.5t-107 -37.5t-135.5 30.5t-127.5 30.5q-82 0 -135 -63l-70 71q94 142 209 142zM12 0l471 1331h238l475 -1331h-231l-113 328h-510l-109 -328h-221z" />
    <glyph glyph-name="Adieresis" unicode="&#xc4;" horiz-adv-x="1206" 
d="M674 1589q0 47 33.5 81t80.5 34t81 -34t34 -81t-34 -80.5t-81 -33.5t-80.5 33.5t-33.5 80.5zM401 502h392l-93 272l-106 344l-105 -350zM285 1589q0 47 33.5 81t80.5 34t81 -34t34 -81t-34 -80.5t-81 -33.5t-80.5 33.5t-33.5 80.5zM12 0l471 1331h238l475 -1331h-231
l-113 328h-510l-109 -328h-221z" />
    <glyph glyph-name="Aring" unicode="&#xc5;" horiz-adv-x="1206" 
d="M594 1712q-96 0 -96 -102t96 -103q96 1 96 103t-96 102zM401 502h392l-93 272l-106 344l-105 -350zM377 1612q0 92 64 146t158 54t154 -52t60 -144t-60.5 -151.5t-158.5 -59.5t-157.5 57.5t-59.5 149.5zM12 0l471 1331h238l475 -1331h-231l-113 328h-510l-109 -328h-221z
" />
    <glyph glyph-name="AE" unicode="&#xc6;" horiz-adv-x="1736" 
d="M805 498v618l-330 -618h330zM1630 1331v-182h-608v-377h543v-180h-543v-406h606v-186h-823v328h-420l-174 -328h-221l735 1331h905z" />
    <glyph glyph-name="Ccedilla" unicode="&#xc7;" horiz-adv-x="1191" 
d="M720 1167q-184 0 -290 -129t-106 -374q0 -502 411 -502q93 0 182.5 28t151.5 70l57 -186q-159 -85 -372 -94l-23 -95q92 -14 140.5 -63.5t48.5 -123.5t-69.5 -121.5t-174.5 -47.5t-178 47l45 119q51 -51 111 -51q110 0 110 69q0 41 -42 66t-124 28l45 175
q-265 19 -408 186.5t-143 492.5t180.5 507t470.5 182q221 0 369 -88l-74 -201q-134 106 -318 106z" />
    <glyph glyph-name="Egrave" unicode="&#xc8;" horiz-adv-x="1103" 
d="M348 1567l76 168l358 -219l-53 -105zM170 0v1331h825v-182h-608v-377h543v-180h-543v-406h608v-186h-825z" />
    <glyph glyph-name="Eacute" unicode="&#xc9;" horiz-adv-x="1103" 
d="M418 1516l356 219l78 -168l-383 -156zM170 0v1331h825v-182h-608v-377h543v-180h-543v-406h608v-186h-825z" />
    <glyph glyph-name="Ecircumflex" unicode="&#xca;" horiz-adv-x="1103" 
d="M293 1536l252 205h104l250 -201l-82 -108l-225 159l-221 -159zM170 0v1331h825v-182h-608v-377h543v-180h-543v-406h608v-186h-825z" />
    <glyph glyph-name="Edieresis" unicode="&#xcb;" horiz-adv-x="1103" 
d="M678 1589q0 47 34 81t81 34t80.5 -34t33.5 -81t-33.5 -80.5t-80.5 -33.5t-81 33.5t-34 80.5zM289 1589q0 47 33.5 81t80.5 34t81 -34t34 -81t-34 -80.5t-81 -33.5t-80.5 33.5t-33.5 80.5zM170 0v1331h825v-182h-608v-377h543v-180h-543v-406h608v-186h-825z" />
    <glyph glyph-name="Igrave" unicode="&#xcc;" horiz-adv-x="557" 
d="M170 0v1331h217v-1331h-217zM-20 1567l75 168l359 -219l-54 -105z" />
    <glyph glyph-name="Iacute" unicode="&#xcd;" horiz-adv-x="557" 
d="M170 0v1331h217v-1331h-217zM117 1516l356 219l78 -168l-383 -156z" />
    <glyph glyph-name="Icircumflex" unicode="&#xce;" horiz-adv-x="557" 
d="M170 0v1331h217v-1331h-217zM-31 1536l252 205h105l249 -201l-81 -108l-226 159l-221 -159z" />
    <glyph glyph-name="Idieresis" unicode="&#xcf;" horiz-adv-x="557" 
d="M356 1589q0 47 34 81t81 34t81 -34t34 -81t-34 -80.5t-81 -33.5t-81 33.5t-34 80.5zM170 0v1331h217v-1331h-217zM-33 1589q0 47 34 81t81 34t81 -34t34 -81t-34 -80.5t-81 -33.5t-81 33.5t-34 80.5z" />
    <glyph glyph-name="Eth" unicode="&#xd0;" horiz-adv-x="1384" 
d="M387 186h268q279 0 340.5 147t61.5 322q0 276 -113.5 385t-302.5 109h-254v-389h244v-168h-244v-406zM39 592v168h131v571h475q401 0 522 -209t121 -461t-119 -456.5t-530 -204.5h-469v592h-131z" />
    <glyph glyph-name="Ntilde" unicode="&#xd1;" horiz-adv-x="1458" 
d="M629 1686q52 0 137 -30t125 -30q77 0 131 64l70 -76q-40 -64 -97 -101.5t-107 -37.5t-135.5 30.5t-127.5 30.5q-83 0 -136 -63l-69 71q94 142 209 142zM170 0v1331h231l459 -659l227 -342l-4 313v688h205v-1331h-217l-463 668l-233 354l2 -348v-674h-207z" />
    <glyph glyph-name="Ograve" unicode="&#xd2;" horiz-adv-x="1435" 
d="M444 1567l76 168l359 -219l-54 -105zM712 162q402 0 402 510q0 250 -95 372.5t-299 122.5t-300 -126t-96 -376t93 -376.5t295 -126.5zM92 657q0 201 75 357.5t218 246t334 89.5q295 0 459.5 -174t164.5 -512q0 -196 -75 -350.5t-219.5 -244t-335.5 -89.5
q-292 0 -456.5 179t-164.5 498z" />
    <glyph glyph-name="Oacute" unicode="&#xd3;" horiz-adv-x="1435" 
d="M563 1516l357 219l77 -168l-383 -156zM712 162q402 0 402 510q0 250 -95 372.5t-299 122.5t-300 -126t-96 -376t93 -376.5t295 -126.5zM92 657q0 201 75 357.5t218 246t334 89.5q295 0 459.5 -174t164.5 -512q0 -196 -75 -350.5t-219.5 -244t-335.5 -89.5
q-292 0 -456.5 179t-164.5 498z" />
    <glyph glyph-name="Ocircumflex" unicode="&#xd4;" horiz-adv-x="1435" 
d="M432 1536l252 205h104l250 -201l-82 -108l-225 159l-221 -159zM712 162q402 0 402 510q0 250 -95 372.5t-299 122.5t-300 -126t-96 -376t93 -376.5t295 -126.5zM92 657q0 201 75 357.5t218 246t334 89.5q295 0 459.5 -174t164.5 -512q0 -196 -75 -350.5t-219.5 -244
t-335.5 -89.5q-292 0 -456.5 179t-164.5 498z" />
    <glyph glyph-name="Otilde" unicode="&#xd5;" horiz-adv-x="1435" 
d="M596 1686q52 0 137 -30t125 -30q77 0 131 64l70 -76q-40 -64 -97.5 -101.5t-107.5 -37.5t-135 30.5t-127 30.5q-82 0 -135 -63l-70 71q94 142 209 142zM712 162q402 0 402 510q0 250 -95 372.5t-299 122.5t-300 -126t-96 -376t93 -376.5t295 -126.5zM92 657
q0 201 75 357.5t218 246t334 89.5q295 0 459.5 -174t164.5 -512q0 -196 -75 -350.5t-219.5 -244t-335.5 -89.5q-292 0 -456.5 179t-164.5 498z" />
    <glyph glyph-name="Odieresis" unicode="&#xd6;" horiz-adv-x="1435" 
d="M788 1589q0 47 34 81t81 34t81 -34t34 -81t-34 -80.5t-81 -33.5t-81 33.5t-34 80.5zM399 1589q0 47 34 81t81 34t81 -34t34 -81t-34 -80.5t-81 -33.5t-81 33.5t-34 80.5zM712 162q402 0 402 510q0 250 -95 372.5t-299 122.5t-300 -126t-96 -376t93 -376.5t295 -126.5z
M92 657q0 201 75 357.5t218 246t334 89.5q295 0 459.5 -174t164.5 -512q0 -196 -75 -350.5t-219.5 -244t-335.5 -89.5q-292 0 -456.5 179t-164.5 498z" />
    <glyph glyph-name="multiply" unicode="&#xd7;" horiz-adv-x="903" 
d="M104 350l240 225l-238 224l115 108l236 -223l237 225l109 -102l-240 -221l242 -232l-115 -106l-241 227l-236 -225z" />
    <glyph glyph-name="Oslash" unicode="&#xd8;" horiz-adv-x="1435" 
d="M713 162q200 0 300.5 129.5t100.5 350.5t-53 333l-596 -737q92 -76 248 -76zM324 657q0 -185 51 -299l594 736q-91 73 -250 73q-203 0 -299 -126t-96 -384zM92 657q0 201 75 357.5t218 246t351 89.5t358 -103l75 94h187l-156 -192q143 -179 143 -485q0 -196 -75 -350.5
t-219.5 -244t-351.5 -89.5t-357 104l-76 -94h-186l155 194q-141 176 -141 473z" />
    <glyph glyph-name="Ugrave" unicode="&#xd9;" horiz-adv-x="1390" 
d="M432 1567l76 168l358 -219l-53 -105zM156 475v856h217v-825q0 -194 76.5 -270t246.5 -76t250 83.5t80 272.5v815h211v-846q0 -245 -147 -375t-400 -130q-534 0 -534 495z" />
    <glyph glyph-name="Uacute" unicode="&#xda;" horiz-adv-x="1390" 
d="M543 1516l356 219l78 -168l-383 -156zM156 475v856h217v-825q0 -194 76.5 -270t246.5 -76t250 83.5t80 272.5v815h211v-846q0 -245 -147 -375t-400 -130q-534 0 -534 495z" />
    <glyph glyph-name="Ucircumflex" unicode="&#xdb;" horiz-adv-x="1390" 
d="M395 1536l252 205h105l249 -201l-81 -108l-226 159l-221 -159zM156 475v856h217v-825q0 -194 76.5 -270t246.5 -76t250 83.5t80 272.5v815h211v-846q0 -245 -147 -375t-400 -130q-534 0 -534 495z" />
    <glyph glyph-name="Udieresis" unicode="&#xdc;" horiz-adv-x="1390" 
d="M770 1589q0 47 34 81t81 34t80.5 -34t33.5 -81t-33.5 -80.5t-80.5 -33.5t-81 33.5t-34 80.5zM381 1589q0 47 34 81t81 34t80.5 -34t33.5 -81t-33.5 -80.5t-80.5 -33.5t-81 33.5t-34 80.5zM156 475v856h217v-825q0 -194 76.5 -270t246.5 -76t250 83.5t80 272.5v815h211
v-846q0 -245 -147 -375t-400 -130q-534 0 -534 495z" />
    <glyph glyph-name="Yacute" unicode="&#xdd;" horiz-adv-x="1081" 
d="M377 1516l356 219l78 -168l-383 -156zM657 0h-217v516l-446 815h233l168 -317l162 -322l303 639h217l-420 -811v-520z" />
    <glyph glyph-name="Thorn" unicode="&#xde;" 
d="M592 465q256 0 256 256q0 129 -60 192.5t-204 63.5h-197v-512h205zM170 0v1331h217v-170h213q477 0 477 -436q0 -206 -127.5 -327.5t-347.5 -121.5h-215v-276h-217z" />
    <glyph glyph-name="germandbls" unicode="&#xdf;" horiz-adv-x="1329" 
d="M647 1253q-225 0 -225 -266v-987h-213v807h-156v149l156 13v49q0 297 179 351t269 54q208 0 308 -79t100 -218q0 -91 -67.5 -148t-135 -111.5t-67.5 -123.5t70 -100.5t159 -64.5t174.5 -98.5t85.5 -198.5q0 -185 -139.5 -243t-249.5 -58q-212 0 -348 81l55 187
q43 -40 120 -71.5t148 -31.5q193 0 193 125q0 68 -78 107t-169.5 70t-164.5 93.5t-73 175.5t64 173t128 114t64 113q0 60 -48 98.5t-139 38.5z" />
    <glyph glyph-name="agrave" unicode="&#xe0;" horiz-adv-x="1046" 
d="M293 279q0 -66 41.5 -101t107.5 -35t124.5 34.5t99.5 84.5v160q-78 8 -125 8q-248 0 -248 -151zM231 1348l117 137l273 -281l-80 -86zM74 260q0 299 471 299q43 0 121 -4l2 104q0 100 -42 141.5t-128 41.5q-140 0 -157.5 -58.5t-4.5 -95.5l-186 -26q-15 44 -15 81
q0 115 110.5 189t272.5 74q361 0 361 -330l-2 -428q0 -127 98 -96l12 -154q-67 -18 -135 -18t-114.5 40t-59.5 109q-120 -149 -303 -149q-136 0 -218.5 75t-82.5 205z" />
    <glyph glyph-name="aacute" unicode="&#xe1;" horiz-adv-x="1046" 
d="M373 1204l272 281l117 -137l-309 -230zM293 279q0 -66 41.5 -101t107.5 -35t124.5 34.5t99.5 84.5v160q-78 8 -125 8q-248 0 -248 -151zM74 260q0 299 471 299q43 0 121 -4l2 104q0 100 -42 141.5t-128 41.5q-140 0 -157.5 -58.5t-4.5 -95.5l-186 -26q-15 44 -15 81
q0 115 110.5 189t272.5 74q361 0 361 -330l-2 -428q0 -127 98 -96l12 -154q-67 -18 -135 -18t-114.5 40t-59.5 109q-120 -149 -303 -149q-136 0 -218.5 75t-82.5 205z" />
    <glyph glyph-name="acircumflex" unicode="&#xe2;" horiz-adv-x="1046" 
d="M293 279q0 -66 41.5 -101t107.5 -35t124.5 34.5t99.5 84.5v160q-78 8 -125 8q-248 0 -248 -151zM197 1196l264 250h102l256 -246l-104 -98l-207 190l-213 -190zM74 260q0 299 471 299q43 0 121 -4l2 104q0 100 -42 141.5t-128 41.5q-140 0 -157.5 -58.5t-4.5 -95.5
l-186 -26q-15 44 -15 81q0 115 110.5 189t272.5 74q361 0 361 -330l-2 -428q0 -127 98 -96l12 -154q-67 -18 -135 -18t-114.5 40t-59.5 109q-120 -149 -303 -149q-136 0 -218.5 75t-82.5 205z" />
    <glyph glyph-name="atilde" unicode="&#xe3;" horiz-adv-x="1046" 
d="M293 279q0 -66 41.5 -101t107.5 -35t124.5 34.5t99.5 84.5v160q-78 8 -125 8q-248 0 -248 -151zM391 1395q52 0 127 -29t115 -29q79 0 131 64l67 -78q-41 -64 -96 -101.5t-105 -37.5t-126 31.5t-119 31.5q-76 0 -135 -63l-70 69q95 142 211 142zM74 260q0 299 471 299
q43 0 121 -4l2 104q0 100 -42 141.5t-128 41.5q-140 0 -157.5 -58.5t-4.5 -95.5l-186 -26q-15 44 -15 81q0 115 110.5 189t272.5 74q361 0 361 -330l-2 -428q0 -127 98 -96l12 -154q-67 -18 -135 -18t-114.5 40t-59.5 109q-120 -149 -303 -149q-136 0 -218.5 75t-82.5 205z
" />
    <glyph glyph-name="adieresis" unicode="&#xe4;" horiz-adv-x="1046" 
d="M573 1278q0 47 34 81t81 34t81 -34t34 -81t-34 -80t-81 -33t-81 33t-34 80zM293 279q0 -66 41.5 -101t107.5 -35t124.5 34.5t99.5 84.5v160q-78 8 -125 8q-248 0 -248 -151zM205 1278q0 47 33.5 81t80.5 34t81 -34t34 -81t-34 -80t-81 -33t-80.5 33t-33.5 80zM74 260
q0 299 471 299q43 0 121 -4l2 104q0 100 -42 141.5t-128 41.5q-140 0 -157.5 -58.5t-4.5 -95.5l-186 -26q-15 44 -15 81q0 115 110.5 189t272.5 74q361 0 361 -330l-2 -428q0 -127 98 -96l12 -154q-67 -18 -135 -18t-114.5 40t-59.5 109q-120 -149 -303 -149
q-136 0 -218.5 75t-82.5 205z" />
    <glyph glyph-name="aring" unicode="&#xe5;" horiz-adv-x="1046" 
d="M504 1416q-96 0 -96 -102t96 -102t96 102t-96 102zM293 279q0 -66 41.5 -101t107.5 -35t124.5 34.5t99.5 84.5v160q-78 8 -125 8q-248 0 -248 -151zM287 1316q0 92 64.5 147t158.5 55t153.5 -52.5t59.5 -144.5t-60.5 -151.5t-158.5 -59.5t-157.5 57t-59.5 149zM74 260
q0 299 471 299q43 0 121 -4l2 104q0 100 -42 141.5t-128 41.5q-140 0 -157.5 -58.5t-4.5 -95.5l-186 -26q-15 44 -15 81q0 115 110.5 189t272.5 74q361 0 361 -330l-2 -428q0 -127 98 -96l12 -154q-67 -18 -135 -18t-114.5 40t-59.5 109q-120 -149 -303 -149
q-136 0 -218.5 75t-82.5 205z" />
    <glyph glyph-name="ae" unicode="&#xe6;" horiz-adv-x="1597" 
d="M1298 590q10 260 -194 260q-210 0 -234 -260h428zM293 279q0 -66 41.5 -101t111.5 -35t133 38.5t105 90.5q-26 79 -31 150q-74 8 -114 8q-246 0 -246 -151zM74 260q0 299 471 299q40 0 110 -4q0 25 13 84v33q0 92 -43.5 130t-126.5 38q-140 0 -157.5 -57.5t-4.5 -94.5
l-186 -26q-15 44 -15 81q0 115 110.5 189t272.5 74q212 0 291 -123q117 123 305 123t293.5 -117t105.5 -375q0 -51 -2 -63h-639q20 -301 302 -301q72 0 145.5 30.5t126.5 73.5l55 -170q-179 -104 -371 -104q-274 0 -395 186q-79 -95 -165 -140.5t-208 -45.5t-205 75t-83 205
z" />
    <glyph glyph-name="ccedilla" unicode="&#xe7;" horiz-adv-x="950" 
d="M587 156q132 0 234 88l58 -172q-117 -76 -279 -90l-25 -99q92 -14 140.5 -63.5t48.5 -123.5t-69.5 -121.5t-174.5 -47.5t-178 47l45 119q51 -51 111 -51q110 0 110 69q0 41 -42 66t-124 28l47 179q-187 18 -297 146t-110 362t134.5 374t354.5 140q175 0 310 -74l-68 -193
q-112 92 -238 92t-198 -89.5t-72 -253.5t75 -248t207 -84z" />
    <glyph glyph-name="egrave" unicode="&#xe8;" horiz-adv-x="1030" 
d="M729 590q12 260 -194 260q-106 0 -163 -63.5t-69 -196.5h426zM276 1348l117 137l273 -281l-80 -86zM214.5 870q130.5 136 324.5 136q405 0 405 -492v-63h-643q20 -301 305 -301q72 0 146 31t125 73l57 -170q-179 -104 -380 -104t-335.5 125t-134.5 377t130.5 388z" />
    <glyph glyph-name="eacute" unicode="&#xe9;" horiz-adv-x="1030" 
d="M389 1204l273 281l116 -137l-309 -230zM729 590q12 260 -194 260q-106 0 -163 -63.5t-69 -196.5h426zM214.5 870q130.5 136 324.5 136q405 0 405 -492v-63h-643q20 -301 305 -301q72 0 146 31t125 73l57 -170q-179 -104 -380 -104t-335.5 125t-134.5 377t130.5 388z" />
    <glyph glyph-name="ecircumflex" unicode="&#xea;" horiz-adv-x="1030" 
d="M729 590q12 260 -194 260q-106 0 -163 -63.5t-69 -196.5h426zM229 1196l265 250h102l256 -246l-104 -98l-207 190l-213 -190zM214.5 870q130.5 136 324.5 136q405 0 405 -492v-63h-643q20 -301 305 -301q72 0 146 31t125 73l57 -170q-179 -104 -380 -104t-335.5 125
t-134.5 377t130.5 388z" />
    <glyph glyph-name="edieresis" unicode="&#xeb;" horiz-adv-x="1030" 
d="M606 1278q0 47 34 81t81 34t81 -34t34 -81t-34 -80t-81 -33t-81 33t-34 80zM729 590q12 260 -194 260q-106 0 -163 -63.5t-69 -196.5h426zM238 1278q0 47 33.5 81t80.5 34t81 -34t34 -81t-34 -80t-81 -33t-80.5 33t-33.5 80zM214.5 870q130.5 136 324.5 136
q405 0 405 -492v-63h-643q20 -301 305 -301q72 0 146 31t125 73l57 -170q-179 -104 -380 -104t-335.5 125t-134.5 377t130.5 388z" />
    <glyph glyph-name="igrave" unicode="&#xec;" horiz-adv-x="499" 
d="M143 0v981h213v-981h-213zM-25 1348l117 137l273 -281l-80 -86z" />
    <glyph glyph-name="iacute" unicode="&#xed;" horiz-adv-x="499" 
d="M143 0v981h213v-981h-213zM92 1204l273 281l116 -137l-309 -230z" />
    <glyph glyph-name="icircumflex" unicode="&#xee;" horiz-adv-x="499" 
d="M143 0v981h213v-981h-213zM-66 1196l265 250h102l256 -246l-104 -98l-207 190l-213 -190z" />
    <glyph glyph-name="idieresis" unicode="&#xef;" horiz-adv-x="499" 
d="M322 1278q0 47 33.5 81t80.5 34t81 -34t34 -81t-34 -80t-81 -33t-80.5 33t-33.5 80zM143 0v981h213v-981h-213zM-47 1278q0 47 34 81t81 34t80.5 -34t33.5 -81t-33.5 -80t-80.5 -33t-81 33t-34 80z" />
    <glyph glyph-name="eth" unicode="&#xf0;" horiz-adv-x="1159" 
d="M565 150q145 0 204.5 85.5t60.5 245.5t-35 279q-93 65 -229 65q-258 1 -259 -337q0 -338 258 -338zM571 -20q-229 0 -358 135t-129 365t124 366.5t331 136.5q101 0 180 -43q-83 126 -193 211l-102 -117l-98 68l102 121q-62 38 -106 59l102 135q70 -34 119 -63l90 106
l102 -74l-88 -98q397 -281 408 -764l2 -30q0 -213 -92 -322t-185.5 -150.5t-208.5 -41.5z" />
    <glyph glyph-name="ntilde" unicode="&#xf1;" horiz-adv-x="1153" 
d="M467 1395q52 0 127 -29t115 -29q79 0 131 64l67 -78q-40 -64 -96.5 -101.5t-106.5 -37.5t-125 31.5t-118 31.5q-76 0 -135 -63l-70 69q95 142 211 142zM143 0v981h199l2 -125q150 150 342 150q132 0 233 -74.5t101 -267.5v-664h-213v590q0 126 -46 175.5t-140 49.5
q-133 0 -265 -115v-700h-213z" />
    <glyph glyph-name="ograve" unicode="&#xf2;" 
d="M563 836q-258 0 -258 -343t258 -343q147 0 206.5 88t59.5 258q0 340 -266 340zM274 1348l117 137l273 -281l-80 -86zM82 484q0 234 132 378t358 144t354.5 -136.5t128.5 -362.5t-92 -335t-185.5 -150.5t-208.5 -41.5q-229 0 -358 135t-129 369z" />
    <glyph glyph-name="oacute" unicode="&#xf3;" 
d="M414 1204l272 281l117 -137l-309 -230zM563 836q-258 0 -258 -343t258 -343q147 0 206.5 88t59.5 258q0 340 -266 340zM82 484q0 234 132 378t358 144t354.5 -136.5t128.5 -362.5t-92 -335t-185.5 -150.5t-208.5 -41.5q-229 0 -358 135t-129 369z" />
    <glyph glyph-name="ocircumflex" unicode="&#xf4;" 
d="M563 836q-258 0 -258 -343t258 -343q147 0 206.5 88t59.5 258q0 340 -266 340zM254 1196l264 250h103l256 -246l-105 -98l-207 190l-213 -190zM82 484q0 234 132 378t358 144t354.5 -136.5t128.5 -362.5t-92 -335t-185.5 -150.5t-208.5 -41.5q-229 0 -358 135t-129 369z
" />
    <glyph glyph-name="otilde" unicode="&#xf5;" 
d="M563 836q-258 0 -258 -343t258 -343q147 0 206.5 88t59.5 258q0 340 -266 340zM449 1395q52 0 126.5 -29t114.5 -29q79 0 131 64l68 -78q-40 -64 -96.5 -101.5t-106.5 -37.5t-125.5 31.5t-118.5 31.5q-76 0 -135 -63l-69 69q95 142 211 142zM82 484q0 234 132 378
t358 144t354.5 -136.5t128.5 -362.5t-92 -335t-185.5 -150.5t-208.5 -41.5q-229 0 -358 135t-129 369z" />
    <glyph glyph-name="odieresis" unicode="&#xf6;" 
d="M631 1278q0 47 33.5 81t80.5 34t81 -34t34 -81t-34 -80t-81 -33t-80.5 33t-33.5 80zM563 836q-258 0 -258 -343t258 -343q147 0 206.5 88t59.5 258q0 340 -266 340zM262 1278q0 47 34 81t81 34t81 -34t34 -81t-34 -80t-81 -33t-81 33t-34 80zM82 484q0 234 132 378
t358 144t354.5 -136.5t128.5 -362.5t-92 -335t-185.5 -150.5t-208.5 -41.5q-229 0 -358 135t-129 369z" />
    <glyph glyph-name="divide" unicode="&#xf7;" horiz-adv-x="954" 
d="M362 879q0 47 34 81.5t81 34.5t82 -34.5t35 -81.5t-35 -81t-82 -34t-81 34t-34 81zM362 299q0 47 34 82t81 35t82 -35t35 -82t-35 -81t-82 -34t-81 34t-34 81zM90 518v148h774v-148h-774z" />
    <glyph glyph-name="oslash" unicode="&#xf8;" 
d="M563 150q147 0 206.5 88t59.5 258q0 98 -24 174l-391 -477q55 -43 149 -43zM305 496q0 -110 27 -189l391 481q-65 48 -160 48q-258 0 -258 -340zM82 495q0 224 132 367.5t353 143.5q162 0 277 -70l47 59h178l-123 -149q109 -133 109 -349t-127.5 -366.5t-383.5 -150.5
q-140 0 -249 67l-47 -57h-174l119 145q-111 136 -111 360z" />
    <glyph glyph-name="ugrave" unicode="&#xf9;" horiz-adv-x="1148" 
d="M309 1348l117 137l272 -281l-80 -86zM471 -23q-338 0 -338 345v659h213v-596q0 -127 44.5 -177t135.5 -50q122 0 267 127v696h213v-981h-193l-8 129q-152 -152 -334 -152z" />
    <glyph glyph-name="uacute" unicode="&#xfa;" horiz-adv-x="1148" 
d="M436 1204l273 281l116 -137l-309 -230zM471 -23q-338 0 -338 345v659h213v-596q0 -127 44.5 -177t135.5 -50q122 0 267 127v696h213v-981h-193l-8 129q-152 -152 -334 -152z" />
    <glyph glyph-name="ucircumflex" unicode="&#xfb;" horiz-adv-x="1148" 
d="M258 1196l264 250h103l256 -246l-105 -98l-207 190l-213 -190zM471 -23q-338 0 -338 345v659h213v-596q0 -127 44.5 -177t135.5 -50q122 0 267 127v696h213v-981h-193l-8 129q-152 -152 -334 -152z" />
    <glyph glyph-name="udieresis" unicode="&#xfc;" horiz-adv-x="1148" 
d="M653 1278q0 47 34 81t81 34t81 -34t34 -81t-34 -80t-81 -33t-81 33t-34 80zM285 1278q0 47 33.5 81t80.5 34t81 -34t34 -81t-34 -80t-81 -33t-80.5 33t-33.5 80zM471 -23q-338 0 -338 345v659h213v-596q0 -127 44.5 -177t135.5 -50q122 0 267 127v696h213v-981h-193
l-8 129q-152 -152 -334 -152z" />
    <glyph glyph-name="yacute" unicode="&#xfd;" horiz-adv-x="1007" 
d="M379 1204l272 281l117 -137l-309 -230zM16 981h228l174 -479l98 -289l92 283l170 485h213l-534 -1432h-209l149 406z" />
    <glyph glyph-name="thorn" unicode="&#xfe;" horiz-adv-x="1144" 
d="M554 154q124 0 204 88t80 250t-64 243.5t-182 81.5t-236 -119v-497q74 -47 198 -47zM143 -451v1854h213v-545q61 68 141.5 108t161.5 40q194 0 299 -132.5t105 -369.5t-142.5 -380.5t-373.5 -143.5q-87 0 -191 22v-453h-213z" />
    <glyph glyph-name="ydieresis" unicode="&#xff;" horiz-adv-x="1007" 
d="M590 1278q0 47 34 81t81 34t80.5 -34t33.5 -81t-33.5 -80t-80.5 -33t-81 33t-34 80zM221 1278q0 47 34 81t81 34t81 -34t34 -81t-34 -80t-81 -33t-81 33t-34 80zM16 981h228l174 -479l98 -289l92 283l170 485h213l-534 -1432h-209l149 406z" />
    <glyph glyph-name="OE" unicode="&#x152;" horiz-adv-x="1804" 
d="M324 666q0 -250 93 -378t296 -128q92 0 157 22v965q-71 22 -151 22q-202 0 -298.5 -126.5t-96.5 -376.5zM92 657q0 201 75 357.5t218 246t334 89.5q93 0 180 -19h797v-182h-609v-377h543v-180h-543v-406h609v-186h-807q-92 -20 -176 -20q-292 0 -456.5 179t-164.5 498z
" />
    <glyph glyph-name="oe" unicode="&#x153;" horiz-adv-x="1787" 
d="M1487 590q12 260 -197 260q-206 0 -229 -260h426zM563 836q-258 0 -258 -343t258 -343q147 0 206.5 88t59.5 258q0 340 -266 340zM82 484q0 234 132 378t370 144t366 -164q61 79 149.5 121.5t190.5 42.5q200 0 306 -117t106 -375v-63h-643q20 -301 305 -301q71 0 145 31
t125 73l58 -170q-179 -104 -373 -104q-256 0 -379 165q-132 -165 -366 -165t-363 135t-129 369z" />
    <glyph glyph-name="Ydieresis" unicode="&#x178;" horiz-adv-x="1081" 
d="M637 1589q0 47 34 81t81 34t80.5 -34t33.5 -81t-33.5 -80.5t-80.5 -33.5t-81 33.5t-34 80.5zM248 1589q0 47 33.5 81t80.5 34t81 -34t34 -81t-34 -80.5t-81 -33.5t-80.5 33.5t-33.5 80.5zM657 0h-217v516l-446 815h233l168 -317l162 -322l303 639h217l-420 -811v-520z
" />
    <glyph glyph-name="circumflex" unicode="&#x2c6;" horiz-adv-x="921" 
d="M147 1196l265 250h102l256 -246l-104 -98l-207 190l-213 -190z" />
    <glyph glyph-name="tilde" unicode="&#x2dc;" horiz-adv-x="921" 
d="M338 1395q52 0 127 -29t115 -29q79 0 131 64l67 -78q-40 -64 -96 -101.5t-106 -37.5t-125.5 31.5t-118.5 31.5q-76 0 -135 -63l-70 69q95 142 211 142z" />
    <glyph glyph-name="uni2000" unicode="&#x2000;" horiz-adv-x="906" 
 />
    <glyph glyph-name="uni2001" unicode="&#x2001;" horiz-adv-x="1812" 
 />
    <glyph glyph-name="uni2002" unicode="&#x2002;" horiz-adv-x="906" 
 />
    <glyph glyph-name="uni2003" unicode="&#x2003;" horiz-adv-x="1812" 
 />
    <glyph glyph-name="uni2004" unicode="&#x2004;" horiz-adv-x="604" 
 />
    <glyph glyph-name="uni2005" unicode="&#x2005;" horiz-adv-x="453" 
 />
    <glyph glyph-name="uni2006" unicode="&#x2006;" horiz-adv-x="302" 
 />
    <glyph glyph-name="uni2007" unicode="&#x2007;" horiz-adv-x="302" 
 />
    <glyph glyph-name="uni2008" unicode="&#x2008;" horiz-adv-x="226" 
 />
    <glyph glyph-name="uni2009" unicode="&#x2009;" horiz-adv-x="362" 
 />
    <glyph glyph-name="uni200A" unicode="&#x200a;" horiz-adv-x="100" 
 />
    <glyph glyph-name="uni2010" unicode="&#x2010;" horiz-adv-x="851" 
d="M154 432v182h544v-182h-544z" />
    <glyph glyph-name="uni2011" unicode="&#x2011;" horiz-adv-x="851" 
d="M154 432v182h544v-182h-544z" />
    <glyph glyph-name="figuredash" unicode="&#x2012;" horiz-adv-x="851" 
d="M154 432v182h544v-182h-544z" />
    <glyph glyph-name="endash" unicode="&#x2013;" horiz-adv-x="1224" 
d="M162 455v149h901v-149h-901z" />
    <glyph glyph-name="emdash" unicode="&#x2014;" horiz-adv-x="2248" 
d="M162 455v149h1925v-149h-1925z" />
    <glyph glyph-name="quoteleft" unicode="&#x2018;" horiz-adv-x="419" 
d="M84 946q3 121 52 253.5t122 238.5l141 -41q-114 -199 -120 -451h-195z" />
    <glyph glyph-name="quoteright" unicode="&#x2019;" horiz-adv-x="407" 
d="M57 981q115 201 121 449h195q-3 -121 -52 -253.5t-122 -238.5z" />
    <glyph glyph-name="quotesinglbase" unicode="&#x201a;" horiz-adv-x="430" 
d="M6 -244q115 201 121 441h190q-3 -120 -51.5 -247.5t-122.5 -234.5z" />
    <glyph glyph-name="quotedblleft" unicode="&#x201c;" horiz-adv-x="774" 
d="M438 946q4 122 53.5 255t122.5 237l140 -41q-116 -208 -119 -451h-197zM84 946q3 121 52 253.5t122 238.5l141 -41q-114 -199 -120 -451h-195z" />
    <glyph glyph-name="quotedblright" unicode="&#x201d;" horiz-adv-x="763" 
d="M414 981q115 206 118 449h197q-4 -122 -53.5 -255t-122.5 -237zM57 981q115 201 121 449h195q-3 -121 -52 -253.5t-122 -238.5z" />
    <glyph glyph-name="quotedblbase" unicode="&#x201e;" horiz-adv-x="788" 
d="M367 -244q115 206 118 441h193q-4 -121 -53 -249t-123 -233zM6 -244q115 201 121 441h190q-3 -120 -51.5 -247.5t-122.5 -234.5z" />
    <glyph glyph-name="bullet" unicode="&#x2022;" horiz-adv-x="669" 
d="M88 551q0 103 71.5 175.5t174.5 72.5t175.5 -72.5t72.5 -175.5t-72.5 -174.5t-175.5 -71.5t-174.5 71.5t-71.5 174.5z" />
    <glyph glyph-name="ellipsis" unicode="&#x2026;" horiz-adv-x="1433" 
d="M1170.5 -23q-97.5 0 -97.5 127q0 58 35.5 90.5t95.5 32.5t97.5 -31.5t37.5 -91.5t-35.5 -93.5t-133 -33.5zM584 102q0 60 35.5 92.5t96.5 32.5t97.5 -31t36.5 -92t-35 -94t-99 -33t-98 32.5t-34 92.5zM193.5 -23q-97.5 0 -97.5 127q0 58 35 90.5t95 32.5t98 -31.5
t38 -91.5t-35.5 -93.5t-133 -33.5z" />
    <glyph glyph-name="uni202F" unicode="&#x202f;" horiz-adv-x="362" 
 />
    <glyph glyph-name="guilsinglleft" unicode="&#x2039;" horiz-adv-x="561" 
d="M51 479l266 473h177l-220 -465l220 -481h-177z" />
    <glyph glyph-name="guilsinglright" unicode="&#x203a;" horiz-adv-x="561" 
d="M68 6l221 481l-221 465h176l266 -473l-266 -473h-176z" />
    <glyph glyph-name="uni205F" unicode="&#x205f;" horiz-adv-x="453" 
 />
    <glyph glyph-name="Euro" unicode="&#x20ac;" horiz-adv-x="1214" 
d="M782 -20q-465 0 -551 446h-176l21 147h137q-2 27 -2 84t2 86h-137l20 148h137q51 222 198 340.5t353 118.5t353 -80l-66 -185q-127 84 -269 84t-224 -69t-115 -209h502l-23 -148h-500q-2 -27 -2 -84t2 -86h476l-21 -147h-432q69 -268 348 -268q161 0 295 80l53 -175
q-87 -47 -173.5 -65t-205.5 -18z" />
    <glyph glyph-name="trademark" unicode="&#x2122;" horiz-adv-x="1777" 
d="M748 537v796h176l180 -397l104 -258l103 258l176 397h170v-796h-144v553l-69 -189l-160 -364h-151l-164 350l-90 209l2 -197v-362h-133zM18 1217v116h682v-116h-266v-680h-149v680h-267z" />
    <glyph glyph-name="uni25FC" unicode="&#x25fc;" horiz-adv-x="983" 
d="M0 0v983h983v-983h-983z" />
    </font>
</defs>
</svg>
