<?xml version="1.0" standalone="no"?>
<!DOCTYPE svg PUBLIC "-//W3C//DTD SVG 1.1//EN" "http://www.w3.org/Graphics/SVG/1.1/DTD/svg11.dtd" >
<svg xmlns="http://www.w3.org/2000/svg">
<metadata>
Created by FontPrep 20130207 at Wed Feb 18 23:14:56 2015
 By Roll
Copyright (c) 2009 typonine.com All rights reserved.
</metadata>
<defs>
<font id="306df5ae6db0051e8f9e53741278d998" horiz-adv-x='1024' >
  <font-face 
    font-family="TynineSansMono-Reg"
    font-weight="400"
    font-stretch="normal"
    units-per-em="2048"
    panose-1="2 0 0 0 0 0 0 0 0 0"
    ascent="1597"
    descent="-451"
    x-height="977"
    cap-height="1331"
    bbox="-2 -469 1227 1804"
    underline-thickness="102"
    underline-position="-102"
    unicode-range="U+0020-25FC"
  />
<missing-glyph horiz-adv-x="748" 
d="M136 68h408v1229h-408v-1229zM68 0v1365h544v-1365h-544z" />
    <glyph glyph-name=".notdef" horiz-adv-x="748" 
d="M136 68h408v1229h-408v-1229zM68 0v1365h544v-1365h-544z" />
    <glyph glyph-name="glyph1" horiz-adv-x="0" 
 />
    <glyph glyph-name="glyph2" horiz-adv-x="682" 
 />
    <glyph glyph-name="space" unicode=" " 
 />
    <glyph glyph-name="exclam" unicode="!" 
d="M532 1331h156v-463l-16 -458h-121l-19 460v461zM506 80q0 46 29 72t77 26t78.5 -25t30.5 -73t-30 -74t-79 -26q-106 0 -106 100z" />
    <glyph glyph-name="quotedbl" unicode="&#x22;" 
d="M707 1331h176l-35 -606h-105zM346 1331h174l-33 -606h-106z" />
    <glyph glyph-name="numbersign" unicode="#" 
d="M424 420h317l56 309h-318zM80 317l18 103h199l55 309h-215l19 102h213l55 308h129l-55 -308h315l55 308h129l-55 -308h207l-19 -102h-204l-56 -309h222l-19 -103h-221l-55 -317h-129l55 317h-317l-56 -317h-127l56 317h-199z" />
    <glyph glyph-name="dollar" unicode="$" 
d="M868 344q0 78 -53 131.5t-151 99.5v-417q90 14 147 61t57 125zM383 968q0 -68 47.5 -114t134.5 -86v367q-85 -12 -133.5 -55.5t-48.5 -111.5zM229 954q0 124 93.5 207.5t242.5 98.5v120h99v-116q182 -6 307 -70l-47 -135q-95 71 -260 82v-416q159 -68 225 -116.5
t99.5 -111.5t33.5 -143q0 -126 -101 -212t-257 -105v-113h-99v109q-218 3 -360 90l51 133q57 -42 141.5 -71.5t167.5 -32.5v466q-46 20 -71.5 31t-67 32t-88.5 56t-78 89.5t-31 127.5z" />
    <glyph glyph-name="percent" unicode="%" 
d="M705 299q0 -101 38.5 -155t138.5 -54t140.5 54.5t40.5 154.5q0 146 -64.5 178.5t-115.5 32.5q-178 0 -178 -211zM584 299q0 141 77 232.5t227 91.5t225 -85.5t75 -224.5t-73.5 -237.5t-231.5 -98.5q-299 0 -299 322zM164 1028q0 -102 38 -155.5t140 -53.5t141 53.5
t39 155.5q0 209 -179 209t-179 -209zM158 168l817 1042l78 -57l-815 -1036zM41 1028q0 139 77.5 230.5t227.5 91.5t225.5 -85t75.5 -224t-73.5 -237.5t-231.5 -98.5q-301 0 -301 323z" />
    <glyph glyph-name="ampersand" unicode="&#x26;" 
d="M453 1022q0 -124 34 -272q164 57 192 145.5t28 155.5q0 182 -125 182q-57 0 -93 -43.5t-36 -167.5zM193 334q0 -108 53.5 -168t155.5 -60t190 91q-137 161 -211 413q-102 -41 -145 -104.5t-43 -171.5zM45 314q0 146 84 251t227 144q-41 175 -41 317t77 233t187 91
t193.5 -64.5t83.5 -220.5q0 -235 -137 -316.5t-205 -103.5q71 -235 182 -358q57 84 82 174.5t35 208.5h361v-121h-259q-21 -101 -55.5 -177t-95.5 -159q102 -102 212 -102t169 94l63 -117q-88 -108 -244 -108t-298 129q-129 -129 -288 -129t-246 94t-87 240z" />
    <glyph glyph-name="quotesingle" unicode="'" 
d="M526 1331h174l-36 -606h-101z" />
    <glyph glyph-name="parenleft" unicode="(" 
d="M332 525q0 292 125.5 526.5t355.5 406.5l84 -90q-241 -206 -327.5 -409t-86.5 -431q0 -297 90.5 -451t159 -232t164.5 -162l-76 -86q-235 168 -362 402t-127 526z" />
    <glyph glyph-name="parenright" unicode=")" 
d="M630 1014q-113 194 -298 354l84 90q229 -172 355 -407t126 -527t-127 -525t-362 -402l-76 86q96 84 164 162t157.5 231.5t89.5 448.5t-113 489z" />
    <glyph glyph-name="asterisk" unicode="*" 
d="M651 1055l203 164l82 -123l-258 -88q-7 33 -27 47zM645 946q22 13 29 39l262 -92l-82 -121zM608 936q20 0 27 4l49 -250h-145l41 252q8 -6 28 -6zM615 1069q-13 0 -29 -4l-49 233h147l-47 -235q-9 6 -22 6zM291 1094l82 127l196 -166q-26 -12 -26 -49zM291 895l254 92
q3 -22 26 -41l-198 -176z" />
    <glyph glyph-name="plus" unicode="+" 
d="M193 543v119h354v327h133v-327h354v-119h-354v-336h-133v336h-354z" />
    <glyph glyph-name="comma" unicode="," 
d="M483 -254q109 208 115 414h145q-9 -223 -153 -445z" />
    <glyph glyph-name="hyphen" unicode="-" 
d="M352 455v143h525v-143h-525z" />
    <glyph glyph-name="period" unicode="." 
d="M721 80q1 -100 -107 -100t-108 100q0 46 29 72t77 26t78.5 -24.5t30.5 -73.5z" />
    <glyph glyph-name="slash" unicode="/" 
d="M229 -106l637 1509h133l-634 -1509h-136z" />
    <glyph glyph-name="zero" unicode="0" 
d="M618 117q338 0 338 561q0 142 -21 250.5t-81 179.5l-397 -956q65 -35 161 -35zM270 648q0 -295 99 -423l395 953q-69 32 -153 32t-169 -43.5t-128.5 -175.5t-43.5 -343zM104 639q0 711 514 711q504 0 504 -650q0 -587 -214 -653.5t-304 -66.5q-250 0 -375 168.5
t-125 490.5z" />
    <glyph glyph-name="one" unicode="1" 
d="M170 0v141h375v1016l-340 -67v133l502 125v-1207h393v-141h-930z" />
    <glyph glyph-name="two" unicode="2" 
d="M164 0v115q211 152 371.5 335t229.5 308.5t69 227.5t-67 163t-156 61q-171 0 -298 -141l-86 107q61 67 168 120.5t251 53.5t249.5 -94t105.5 -261q0 -97 -59.5 -218.5t-206 -298t-362.5 -337.5h692v-141h-901z" />
    <glyph glyph-name="three" unicode="3" 
d="M881 344q0 100 -93 189t-385 104v111q235 17 324.5 106.5t89.5 172.5t-64.5 132t-166.5 49q-153 0 -273 -96l-71 115q90 75 201 99t175 24q159 0 263 -86.5t104 -213.5t-85.5 -213.5t-229.5 -121.5q179 -30 278 -123t99 -238t-80.5 -226.5t-177.5 -114.5t-221 -33
t-234.5 41.5t-153.5 80.5l88 131q138 -114 332 -114q104 0 192.5 62.5t88.5 162.5z" />
    <glyph glyph-name="four" unicode="4" 
d="M754 473v664l-480 -664h480zM113 336v110l632 885h168v-860h201v-135h-201v-334h-159v334h-641z" />
    <glyph glyph-name="five" unicode="5" 
d="M578 117q121 0 205.5 68.5t84.5 193.5q0 173 -147 244t-440 71v637h718v-143h-563v-363q304 -4 452 -116.5t148 -319.5q0 -164 -117 -286.5t-364 -122.5q-101 0 -198 35t-164 91l81 132q127 -121 304 -121z" />
    <glyph glyph-name="six" unicode="6" 
d="M324 559q8 -442 304 -442q148 0 211.5 86t63.5 212q0 127 -68 190t-222 63t-289 -109zM158 614q0 344 189 539t519 195q68 0 142 -9v-147q-74 12 -152 12t-197 -29.5t-220 -151t-111 -325.5q164 107 342 107t288.5 -96.5t110.5 -289.5t-117.5 -316t-326.5 -123
q-467 0 -467 634z" />
    <glyph glyph-name="seven" unicode="7" 
d="M168 1188v143h891v-98l-576 -1231h-161l557 1186h-711z" />
    <glyph glyph-name="eight" unicode="8" 
d="M854 1036q0 93 -68.5 139t-177.5 46t-178.5 -49t-69.5 -125t42 -119.5t101.5 -81t112.5 -70.5q122 77 180 137t58 123zM322 326q0 -105 85 -162.5t215 -57.5t207.5 62t77.5 157t-101.5 171.5t-209.5 130.5q-200 -102 -237 -176t-37 -125zM156 294q0 155 96 244.5
t235 157.5q-134 80 -176 114q-112 92 -112 224q0 92 59 165.5t155 112t208 38.5q181 0 291 -85t110 -223q0 -170 -303 -329q145 -76 214.5 -132t104.5 -113t35 -145q0 -87 -64.5 -170.5t-170 -128t-225.5 -44.5t-221.5 36.5t-168.5 114t-67 163.5z" />
    <glyph glyph-name="nine" unicode="9" 
d="M615 662q154 0 288 108q-3 249 -87.5 345.5t-227.5 96.5q-193 0 -227.5 -115.5t-34.5 -172.5q0 -136 67.5 -199t221.5 -63zM158 910q0 193 118 316.5t328 123.5q465 0 465 -635q0 -344 -189.5 -538.5t-519.5 -194.5q-76 0 -141 8v147q73 -12 151 -12t197 29.5
t221.5 151.5t112.5 325q-163 -107 -342 -107t-290 96.5t-111 289.5z" />
    <glyph glyph-name="colon" unicode=":" 
d="M506 803q0 46 29 72t77 26t78.5 -24.5t30.5 -74.5t-29 -76t-80 -26q-106 0 -106 103zM721 80q1 -100 -107 -100t-108 100q0 46 29 72t77 26t78.5 -24.5t30.5 -73.5z" />
    <glyph glyph-name="semicolon" unicode=";" 
d="M549 803q0 46 29.5 72t77.5 26t78 -24.5t30 -74.5t-29 -76t-80 -26q-106 0 -106 103zM463 -254q108 200 117 414h145q-12 -227 -154 -445z" />
    <glyph glyph-name="less" unicode="&#x3c;" 
d="M244 535v106l661 471l78 -108l-582 -414l580 -432l-78 -111z" />
    <glyph glyph-name="equal" unicode="=" 
d="M176 754v120h875v-120h-875zM176 346v121h875v-121h-875z" />
    <glyph glyph-name="greater" unicode="&#x3e;" 
d="M244 1004l78 108l661 -471v-106l-659 -488l-78 111l579 432z" />
    <glyph glyph-name="question" unicode="?" 
d="M672 80q0 -100 -108 -100t-107 100q0 47 28.5 72.5t76.5 25.5t79 -25t31 -73zM610 1350q171 0 279 -77.5t108 -199.5t-71 -194t-148 -124t-136.5 -101t-59.5 -128q0 -52 41 -116l-164 -41q-37 75 -37 141t22 111t57.5 79.5t78 67.5t85.5 65.5t100.5 86t57.5 132.5
q0 80 -66 121t-167 41q-171 0 -285 -114l-74 117q153 133 379 133z" />
    <glyph glyph-name="at" unicode="@" 
d="M432 270q0 -66 38 -100.5t98 -34.5t114.5 32t91.5 75v157q-45 11 -121 11q-221 0 -221 -140zM961 27q-137 0 -175 120q-105 -120 -249 -120q-106 0 -170 62.5t-64 166.5q0 244 356 244q45 0 115 -8l2 114q1 91 -39 128.5t-94 37.5t-85 -7t-59 -31.5t-28 -53.5t6 -53
l-112 -17q-11 42 -11 66q0 92 82 149.5t194 57.5t190.5 -57t78.5 -205l-4 -416q0 -46 25 -69t55 -23q70 0 95.5 103.5t25.5 272.5t-23.5 268t-101.5 222t-323 123q-244 0 -379.5 -175.5t-135.5 -500.5t130.5 -496.5t375.5 -171.5t461 150l45 -80q-227 -162 -507 -162
t-443.5 187.5t-163.5 557.5q0 371 165.5 577t458.5 206q349 0 446 -215.5t97 -427.5q0 -368 -85 -446t-152 -78z" />
    <glyph glyph-name="A" unicode="A" 
d="M385 489h444l-223 668zM59 0l465 1331h176l467 -1331h-174l-119 352h-534l-115 -352h-166z" />
    <glyph glyph-name="B" unicode="B" 
d="M338 758h244q117 0 188.5 61t71.5 165t-60.5 154t-187.5 50h-256v-430zM338 145h301q159 0 229 55t70 181q0 242 -322 242h-278v-478zM172 0v1331h442q211 0 305.5 -84.5t94.5 -245.5q0 -93 -49 -170t-152 -116v-4q231 -38 265 -157t34 -177q0 -182 -113.5 -279.5
t-341.5 -97.5h-485z" />
    <glyph glyph-name="C" unicode="C" 
d="M741 1206q-225 0 -338.5 -140t-113.5 -404q0 -541 450 -541q96 0 190 24t144 56l41 -140q-153 -81 -387 -81q-283 0 -448.5 162.5t-165.5 503.5q0 340 172 522t460 182q100 0 196.5 -22t154.5 -58l-56 -154q-113 90 -299 90z" />
    <glyph glyph-name="D" unicode="D" 
d="M297 145h285q224 0 321.5 117.5t97.5 378.5q0 313 -115 430t-313 117h-276v-1043zM131 0v1331h442q386 0 495.5 -215t109.5 -440q0 -380 -165 -528t-450 -148h-432z" />
    <glyph glyph-name="E" unicode="E" 
d="M174 0v1331h903v-143h-737v-434h668v-142h-668v-467h737v-145h-903z" />
    <glyph glyph-name="F" unicode="F" 
d="M178 0v1331h912v-143h-746v-490h680v-141h-680v-557h-166z" />
    <glyph glyph-name="G" unicode="G" 
d="M1108 109q-190 -129 -418 -129q-257 0 -422.5 154.5t-165.5 517.5q0 356 172.5 527t452.5 171q207 0 356 -82l-57 -160q-128 98 -301 98q-228 0 -337 -131t-109 -420t115.5 -411.5t328.5 -122.5q114 0 221 49v489h164v-550z" />
    <glyph glyph-name="H" unicode="H" 
d="M131 0v1331h166v-573h635v573h166v-1331h-166v610h-635v-610h-166z" />
    <glyph glyph-name="I" unicode="I" 
d="M162 0v145h368v1041h-368v145h917v-145h-383v-1041h383v-145h-917z" />
    <glyph glyph-name="J" unicode="J" 
d="M193 1186v145h780v-788q0 -422 -271 -512t-454 -109l-27 144q174 24 259 51q326 106 327 440v629h-614z" />
    <glyph glyph-name="K" unicode="K" 
d="M162 0v1331h166v-610l135 29l428 581h194l-495 -647l547 -684h-207l-484 602l-118 -20v-582h-166z" />
    <glyph glyph-name="L" unicode="L" 
d="M205 0v1331h166v-1186h714v-145h-880z" />
    <glyph glyph-name="M" unicode="M" 
d="M76 0v1331h157l390 -700l366 700h162v-1331h-143v1090l-320 -615h-135l-336 604v-1079h-141z" />
    <glyph glyph-name="N" unicode="N" 
d="M121 0v1331h182l649 -1067v1067h156v-1331h-170l-659 1087v-1087h-158z" />
    <glyph glyph-name="O" unicode="O" 
d="M233 679q0 -347 100.5 -451.5t274.5 -104.5q387 0 387 541q0 268 -81.5 405t-298 137t-299.5 -135t-83 -392zM57 662q0 320 141 504t423 184t416 -172.5t134 -513.5q0 -419 -190.5 -551.5t-372.5 -132.5q-551 0 -551 682z" />
    <glyph glyph-name="P" unicode="P" 
d="M342 612h297q285 0 285 277q0 150 -69 224.5t-224 74.5h-289v-576zM635 1331q465 0 465 -428q0 -205 -123 -317.5t-328 -112.5h-307v-473h-164v1331h457z" />
    <glyph glyph-name="Q" unicode="Q" 
d="M233 679q0 -347 100.5 -451.5t274.5 -104.5q387 0 387 541q0 268 -81.5 405t-298 137t-299.5 -135t-83 -392zM57 662q0 320 141 504t423 184t416 -172.5t134 -513.5q0 -220 -76 -383t-223 -240l342 -358l-141 -99l-336 410q-72 -14 -129 -14q-551 0 -551 682z" />
    <glyph glyph-name="R" unicode="R" 
d="M332 659h268q287 0 287 259q0 146 -69.5 208t-227.5 62h-258v-529zM166 0v1331h430q246 0 355.5 -101t109.5 -306q0 -137 -65.5 -233.5t-182.5 -139.5l315 -551h-196l-287 518h-313v-518h-166z" />
    <glyph glyph-name="S" unicode="S" 
d="M606 119q130 0 210.5 53t80.5 163t-82 172t-177.5 96t-190 70.5t-177 112t-82.5 222.5t130.5 244.5t330.5 97.5q108 0 210 -25.5t169 -64.5l-51 -162q-134 108 -322 108q-138 0 -215.5 -47.5t-77.5 -144.5t76 -146t178 -86t194.5 -73.5t177.5 -122.5t85 -222t-98 -260
t-385 -124q-239 0 -430 114l57 162q162 -137 389 -137z" />
    <glyph glyph-name="T" unicode="T" 
d="M72 1188v143h1085v-143h-459v-1188h-166v1188h-460z" />
    <glyph glyph-name="U" unicode="U" 
d="M127 481v850h164v-831q0 -214 74.5 -297.5t252.5 -83.5t249 90.5t71 304.5v817h162v-833q0 -383 -177 -450.5t-379.5 -67.5t-309.5 126.5t-107 374.5z" />
    <glyph glyph-name="V" unicode="V" 
d="M61 1331h172l400 -1155l368 1155h164l-446 -1331h-182z" />
    <glyph glyph-name="W" unicode="W" 
d="M27 1331h168l145 -1141l211 785h145l234 -782l114 1138h158l-178 -1331h-168l-235 782l-209 -782h-170z" />
    <glyph glyph-name="X" unicode="X" 
d="M82 0l440 692l-401 639h184l313 -512l316 512h166l-400 -631l447 -700h-186l-353 571l-356 -571h-170z" />
    <glyph glyph-name="Y" unicode="Y" 
d="M713 0h-166v514l-453 817h176l365 -674l334 674h164l-420 -813v-518z" />
    <glyph glyph-name="Z" unicode="Z" 
d="M137 0v115l758 1073h-719v143h911v-127l-753 -1061h772v-143h-969z" />
    <glyph glyph-name="bracketleft" unicode="[" 
d="M412 -375v1850h405v-119h-258v-1618h258v-113h-405z" />
    <glyph glyph-name="backslash" unicode="\" 
d="M229 1403h133l637 -1509h-135z" />
    <glyph glyph-name="bracketright" unicode="]" 
d="M412 -262h260v1618h-260v119h405v-1850h-405v113z" />
    <glyph glyph-name="asciicircum" unicode="^" 
d="M156 729l399 604h117l399 -604h-147l-316 477l-309 -477h-143z" />
    <glyph glyph-name="underscore" unicode="_" 
d="M61 -94h1104v-115h-1104v115z" />
    <glyph glyph-name="grave" unicode="`" 
d="M432 1360l100 108l263 -274l-68 -70z" />
    <glyph glyph-name="a" unicode="a" 
d="M649 438q-299 0 -299 -166q0 -80 51 -121.5t135 -41.5t154.5 36.5t116.5 87.5v193q-86 12 -158 12zM612 1001q355 0 355 -305v-6l-2 -473q0 -57 20.5 -82.5t46.5 -25.5t41 6l14 -121q-53 -14 -111 -14t-103.5 37t-57.5 102q-130 -139 -326 -139q-134 0 -219.5 74
t-85.5 200q0 295 482 295q55 0 141 -8l2 131q0 111 -51.5 154.5t-159.5 43.5q-205 0 -205 -129q0 -21 6 -45l-145 -18q-12 38 -12 72q0 112 104.5 181.5t265.5 69.5z" />
    <glyph glyph-name="b" unicode="b" 
d="M553 113q166 0 264 101.5t98 279.5t-80.5 272t-207.5 94q-66 0 -142 -29.5t-141 -82.5v-592q90 -43 209 -43zM182 1403h162v-520q69 56 156 87t168 31q194 0 305.5 -133.5t111.5 -365.5t-146.5 -377t-362.5 -145t-394 79v1344z" />
    <glyph glyph-name="c" unicode="c" 
d="M229 466q0 117 37.5 244t165.5 209t311 82q182 0 322 -83l-49 -148q-137 96 -288 96t-240 -97t-89 -283t91.5 -278.5t250.5 -92.5q82 0 157 29t120 67l45 -133q-66 -43 -160.5 -70.5t-194.5 -27.5t-184.5 29.5t-151.5 87.5t-105 155t-38 214z" />
    <glyph glyph-name="d" unicode="d" 
d="M317 486q0 -179 75 -272t200 -93q68 0 151 35t146 92v561q-95 57 -245 57t-238.5 -100.5t-88.5 -279.5zM147 480q0 234 137 377.5t365 143.5q122 0 240 -32v434h162v-1403h-152l-2 121q-68 -62 -163.5 -101.5t-182.5 -39.5q-193 0 -298.5 133t-105.5 367z" />
    <glyph glyph-name="e" unicode="e" 
d="M905 580v7q1 129 -68 210t-184 80q-257 0 -286 -297h538zM1053 78q-159 -98 -372 -98q-214 0 -349 127t-135 380t134 383.5t323 130.5t302 -117t113 -356q0 -55 -2 -61h-705q7 -175 101.5 -264.5t253.5 -89.5q77 0 163.5 31.5t129.5 68.5z" />
    <glyph glyph-name="f" unicode="f" 
d="M156 0v133h280v709h-207v112l207 11v71q0 193 104 290t281 97q68 0 139.5 -14.5t108.5 -34.5l-33 -145q-36 27 -95.5 44t-117.5 17q-109 0 -168 -62.5t-59 -183.5v-79h369v-123h-369v-709h405v-133h-845z" />
    <glyph glyph-name="g" unicode="g" 
d="M315 492q0 -176 75.5 -258t197.5 -82q69 0 152.5 33.5t144.5 90.5v549q-91 41 -243 41t-239.5 -99t-87.5 -275zM143 486q0 230 140.5 372.5t364.5 142.5t399 -75v-901q0 -488 -490 -488q-198 0 -362 96l63 152q156 -113 315 -113q232 0 272 125.5t40 229.5v114
q-69 -59 -161 -96t-177 -37q-188 0 -296 124t-108 354z" />
    <glyph glyph-name="h" unicode="h" 
d="M201 0v1403h161v-533q78 64 170 97.5t158 33.5t144 -14.5t149.5 -92.5t71.5 -232v-662h-160v602q0 140 -57.5 197t-150.5 57q-176 0 -325 -117v-739h-161z" />
    <glyph glyph-name="i" unicode="i" 
d="M512 1311q0 43 28.5 72.5t71.5 29.5t73 -29.5t30 -72.5t-30 -72t-73 -29t-71.5 29t-28.5 72zM166 0v133h362v711h-362v133h526v-133h-2v-711h373v-133h-897z" />
    <glyph glyph-name="j" unicode="j" 
d="M688 1311q0 43 30 72.5t72 29.5t72.5 -30t30.5 -72t-30.5 -71.5t-72.5 -29.5t-72 29t-30 72zM707 84v760h-529v133h688v-920q0 -275 -180 -395.5t-506 -120.5l-6 142q196 0 364.5 59.5t168.5 341.5z" />
    <glyph glyph-name="k" unicode="k" 
d="M209 0v1403h160v-858l131 24l327 408h181l-379 -457l440 -520h-203l-362 438l-135 -22v-416h-160z" />
    <glyph glyph-name="l" unicode="l" 
d="M156 0v133h376v1137h-360v133h522v-1270h359v-133h-897z" />
    <glyph glyph-name="m" unicode="m" 
d="M106 0v977h136l2 -129q59 74 116 113.5t125 39.5q151 0 189 -153q113 153 237 153t169.5 -73.5t45.5 -241.5v-686h-145v651q0 170 -30.5 193.5t-72.5 23.5q-91 0 -190 -129q2 -16 2 -53v-686h-147v651q0 123 -20.5 170t-70.5 47t-103.5 -35.5t-96.5 -93.5v-739h-146z" />
    <glyph glyph-name="n" unicode="n" 
d="M689 1001q366 0 366 -339v-662h-160v602q0 140 -57.5 197t-150.5 57q-176 0 -325 -117v-739h-161v977h151l2 -113q79 68 173.5 102.5t161.5 34.5z" />
    <glyph glyph-name="o" unicode="o" 
d="M610 113q322 0 322 381q0 175 -79.5 274.5t-239.5 99.5t-237 -101t-77 -273q0 -381 311 -381zM129 484q0 240 134 378.5t356 138.5t352.5 -131.5t130.5 -377.5q0 -143 -57.5 -258.5t-169.5 -184.5t-261 -69q-223 0 -354 132t-131 372z" />
    <glyph glyph-name="p" unicode="p" 
d="M579 113q148 0 242 101.5t94 280.5t-78 272t-204 93q-67 0 -146 -34.5t-143 -92.5v-567q87 -53 235 -53zM182 -451v1428h152l2 -117q70 63 161 102t177 39q193 0 302 -133.5t109 -366.5t-143 -377t-373 -144q-97 0 -225 32v-463h-162z" />
    <glyph glyph-name="q" unicode="q" 
d="M319 486q0 -178 78.5 -270.5t204.5 -92.5q67 0 145 33.5t142 91.5v571q-91 47 -238 47t-239.5 -101t-92.5 -279zM147 480q0 234 145.5 377.5t361.5 143.5t397 -83v-1369h-162v564q-69 -60 -157 -96.5t-171 -36.5q-194 0 -304 133t-110 367z" />
    <glyph glyph-name="r" unicode="r" 
d="M96 0v133h342v711h-317v133h467l4 -189q65 92 165 147.5t197 55.5q28 0 58 -6l-13 -164q-41 13 -99 13t-153.5 -52t-148.5 -118v-531h432v-133h-934z" />
    <glyph glyph-name="s" unicode="s" 
d="M645 870q-242 0 -242 -131q0 -78 87.5 -108t200.5 -60.5t218 -93.5t105 -209q0 -78 -38 -136t-132 -105t-233 -47q-268 0 -392 81l45 148q57 -44 142.5 -71t167.5 -27t139 14t96 48.5t39 84.5t-33.5 87t-87 58.5t-118.5 38.5t-130 38t-118.5 49t-87 79t-33.5 156.5
t120.5 171t248.5 65.5q253 0 378 -73l-45 -148q-34 32 -122 61t-175 29z" />
    <glyph glyph-name="t" unicode="t" 
d="M141 842v114l234 11l20 264h140v-266h421v-123h-421v-516q0 -118 50.5 -164.5t156.5 -46.5t227 78l35 -136q-136 -77 -290 -77t-247.5 71t-93.5 254v537h-232z" />
    <glyph glyph-name="u" unicode="u" 
d="M543 -23q-369 0 -369 340v660h162v-606q0 -140 57.5 -198t167.5 -58q142 0 301 125v737h162v-977h-150l-4 115q-79 -69 -170 -103.5t-157 -34.5z" />
    <glyph glyph-name="v" unicode="v" 
d="M145 977h170l303 -848l302 848h163l-372 -977h-201z" />
    <glyph glyph-name="w" unicode="w" 
d="M37 977h160l141 -842l213 709h135l217 -709l139 842h154l-211 -977h-172l-201 664l-198 -664h-172z" />
    <glyph glyph-name="x" unicode="x" 
d="M176 0l350 514l-307 463h172l227 -346l232 346h164l-312 -455l351 -522h-174l-269 410l-274 -410h-160z" />
    <glyph glyph-name="y" unicode="y" 
d="M145 977h170l310 -811l299 811h159l-553 -1428h-155l162 424z" />
    <glyph glyph-name="z" unicode="z" 
d="M168 0v98l610 746h-577v133h798v-98l-622 -746h661v-133h-870z" />
    <glyph glyph-name="braceleft" unicode="{" 
d="M330 494v110q37 0 47 2q137 10 137 123v430q0 189 80.5 256.5t234.5 67.5h70v-105h-63q-143 0 -166 -61t-23 -156v-315q0 -131 -31.5 -201.5t-119.5 -93.5q114 -25 132.5 -117.5t18.5 -177.5v-319q0 -129 28 -165.5t70.5 -43.5t85.5 -7h68v-104h-72q-226 0 -269.5 101
t-43.5 223v428q0 61 -33 89.5t-100 33.5q-12 2 -51 2z" />
    <glyph glyph-name="bar" unicode="|" 
d="M547 -10v1413h135v-1413h-135z" />
    <glyph glyph-name="braceright" unicode="}" 
d="M715 729q0 -119 151 -125h33v-110h-35q-75 -3 -112 -32t-37 -93v-428q0 -168 -65 -246t-249 -78h-71v104h67q125 0 155 50t30 166v319q0 200 53 242.5t98 52.5q-88 23 -119.5 93.5t-31.5 201.5v315q0 150 -47 183.5t-142 33.5h-63v105h69q279 0 297.5 -133.5t18.5 -190.5
v-430z" />
    <glyph glyph-name="asciitilde" unicode="~" 
d="M68 541q132 211 304 211q134 0 272.5 -89.5t204.5 -89.5t114.5 46t103.5 143l92 -68q-79 -135 -156.5 -188t-167.5 -53t-162.5 45.5l-145 91t-167.5 45.5t-204 -160z" />
    <glyph glyph-name="uni00A0" unicode="&#xa0;" 
 />
    <glyph glyph-name="exclamdown" unicode="&#xa1;" 
d="M694 -410h-155v463l16 459h121l18 -461v-461zM506 842q0 49 29.5 74.5t78.5 25.5q107 0 107 -100q0 -46 -29.5 -72.5t-77.5 -26.5t-78 25t-30 74z" />
    <glyph glyph-name="cent" unicode="&#xa2;" 
d="M403 484q0 -306 230 -359v731q-112 -25 -171 -122.5t-59 -249.5zM233 478q0 222 109.5 356.5t290.5 160.5v166h108v-160q136 -5 252 -65l-49 -150q-104 71 -203 76v-747q114 6 205 82l45 -136q-102 -66 -250 -79v-132h-108v134q-185 15 -292.5 143.5t-107.5 350.5z" />
    <glyph glyph-name="sterling" unicode="&#xa3;" 
d="M723 1217q-133 0 -203.5 -77.5t-70.5 -254.5v-164h477v-117h-477v-135q0 -113 -33 -192t-119 -140h487q115 0 176 34t103 97l84 -106q-32 -62 -110.5 -112t-192.5 -50h-764v109q92 11 148.5 94t56.5 180v221h-181v117h181v160q0 343 175 406t267 63q184 0 317 -119
l-86 -121q-102 107 -235 107z" />
    <glyph glyph-name="currency" unicode="&#xa4;" 
d="M430 538q0 -86 52 -141t130 -55t131.5 56.5t53.5 140.5t-51.5 136t-133.5 52t-132 -51.5t-50 -137.5zM612 842q92 0 181 -58l219 215l67 -69l-219 -215q62 -75 62 -179t-62 -180l219 -217l-73 -59l-213 211q-77 -60 -175 -60t-186 58l-211 -209l-71 59l212 215
q-61 86 -61 186t61 175l-212 215l67 71l215 -217q88 58 180 58z" />
    <glyph glyph-name="yen" unicode="&#xa5;" 
d="M1040 606v-117h-327v-184h327v-117h-327v-188h-166v188h-328v117h328v184h-328v117h277l-402 725h176l365 -674l334 674h164l-375 -725h282z" />
    <glyph glyph-name="brokenbar" unicode="&#xa6;" 
d="M547 827v576h135v-576h-135zM547 -10v606h135v-606h-135z" />
    <glyph glyph-name="section" unicode="&#xa7;" 
d="M356 917q0 -72 37 -177t90 -216.5t142.5 -304t89.5 -325.5q0 -77 -37 -127q228 99 226 257q-1 134 -88.5 324.5t-175 386t-87.5 332.5q0 80 47 137q-115 -50 -179.5 -132.5t-64.5 -154.5zM1102 1165q-138 86 -280 86q-72 0 -114 -48t-42 -118t37 -177.5t90 -227
t143 -323.5t90 -295t-35 -161t-124 -148.5t-249.5 -130.5t-284.5 -52t-212 24l6 156q111 -72 213 -72t157.5 29.5t77 66.5t21.5 93t-37.5 163t-91 223.5t-144 316.5t-90.5 300t58.5 209t233.5 190t320 81q144 0 263 -29z" />
    <glyph glyph-name="dieresis" unicode="&#xa8;" 
d="M696 1282q0 40 28.5 68t67.5 28t67 -28t28 -68t-27.5 -67t-67.5 -27t-68 27t-28 67zM340 1282q0 40 27 68t67 28t68 -28t28 -68t-28 -67t-68 -27t-67 27t-27 67z" />
    <glyph glyph-name="copyright" unicode="&#xa9;" 
d="M648 324q141 0 226 53l29 -101q-107 -49 -258 -49q-201 0 -312.5 100t-111.5 306t118 315t318 109q146 0 236 -49l-41 -109q-80 62 -213 62t-211 -82.5t-78 -240.5t78.5 -236t219.5 -78zM100 640q0 -254 143.5 -416.5t366.5 -162.5q155 0 274 75t182.5 207.5t63.5 294.5
t-63.5 293.5t-183.5 210.5t-273 79q-227 0 -368.5 -163.5t-141.5 -417.5zM12 642q0 180 75.5 330t213 238t311.5 88t314 -88t216.5 -237.5t76.5 -307.5t-44.5 -278t-123 -208.5t-193 -140.5t-266.5 -52t-290.5 88.5t-214 238t-75.5 329.5z" />
    <glyph glyph-name="ordfeminine" unicode="&#xaa;" 
d="M395 784q0 -127 144 -127q57 0 114.5 27t96.5 66v155q-83 10 -132 10q-223 -4 -223 -131zM279.5 877q33.5 47 115 82.5t206.5 35.5t149 -6v103q0 149 -160 149q-80 0 -118 -30t-39 -55t5 -46l-125 -16q-12 28 -12 61q-1 87 87 141t209 54t207.5 -54.5t86.5 -189.5
l-2 -373q0 -79 49 -82q18 0 33 6l10 -96q-52 -10 -96 -10t-80 27.5t-47 74.5q-112 -102 -262 -102q-113 0 -181.5 57.5t-68.5 139.5t33.5 129z" />
    <glyph glyph-name="guillemotleft" unicode="&#xab;" 
d="M616 479l256 473h142l-228 -465l228 -481h-142zM213 479l256 473h141l-227 -465l227 -481h-141z" />
    <glyph glyph-name="logicalnot" unicode="&#xac;" 
d="M66 553v113h1083v-543h-127v430h-956z" />
    <glyph glyph-name="uni00AD" unicode="&#xad;" 
d="M352 455v143h525v-143h-525z" />
    <glyph glyph-name="registered" unicode="&#xae;" 
d="M510 838h102q140 0 140 133q0 75 -32 105t-112 30h-98v-268zM410 522v664h206q128 0 185 -53t57 -143q0 -168 -139 -214l137 -254h-113l-120 240h-113v-240h-100zM199 846q0 -190 119 -312t296 -122t295.5 121t118.5 307t-120 313t-297 127t-294.5 -122t-117.5 -312z
M121 846q0 136 66 252.5t178.5 184t246.5 67.5t247.5 -67.5t180 -183.5t66.5 -253q0 -210 -145 -356t-351 -146q-132 0 -244.5 67.5t-178.5 183t-66 251.5z" />
    <glyph glyph-name="macron" unicode="&#xaf;" 
d="M362 1225v116h504v-116h-504z" />
    <glyph glyph-name="degree" unicode="&#xb0;" 
d="M434 1078q0 -82 49 -133.5t133 -51.5t129.5 51.5t45.5 133.5t-46.5 132t-130.5 50t-132 -50t-48 -132zM326 1076q0 122 80.5 198t210.5 76t207 -74t77 -198t-77.5 -198.5t-209.5 -74.5t-210 74.5t-78 196.5z" />
    <glyph glyph-name="plusminus" unicode="&#xb1;" 
d="M193 557v119h354v313h133v-313h354v-119h-354v-307h-133v307h-354zM193 8v117h841v-117h-841z" />
    <glyph glyph-name="acute" unicode="&#xb4;" 
d="M432 1194l264 274l99 -108l-295 -236z" />
    <glyph glyph-name="uni00B5" unicode="&#xb5;" 
d="M203 -451v1430h162v-608q0 -142 51 -198t171 -56t275 123v739h162v-979h-150l-4 115q-160 -138 -314 -138t-224 66q33 -95 33 -227v-267h-162z" />
    <glyph glyph-name="paragraph" unicode="&#xb6;" 
d="M924 -451v1782h141v-1782h-141zM758 1331v-1782h-142v777q-213 55 -332.5 185t-119.5 303t125.5 345t468.5 172z" />
    <glyph glyph-name="periodcentered" unicode="&#xb7;" 
d="M508 600q0 46 29.5 74t74.5 28t76 -28t31 -74t-30.5 -73t-76.5 -27t-75 27t-29 73z" />
    <glyph glyph-name="cedilla" unicode="&#xb8;" 
d="M692 -285q0 39 -45 68t-133 33l59 209h99l-39 -142q91 -14 138.5 -63t47.5 -118t-65.5 -119t-166.5 -50t-177 49l43 107q49 -56 139 -56q45 0 72.5 21.5t27.5 60.5z" />
    <glyph glyph-name="ordmasculine" unicode="&#xba;" 
d="M373 948q0 -138 54.5 -211t186.5 -73t187 74t55 214q0 287 -244 287q-131 0 -185 -76.5t-54 -214.5zM221 944q0 184 106.5 295t290.5 111t287 -105t103 -283t-104 -294.5t-290 -116.5t-289.5 104.5t-103.5 288.5z" />
    <glyph glyph-name="guillemotright" unicode="&#xbb;" 
d="M616 6l228 481l-228 465h142l256 -473l-256 -473h-142zM213 6l227 481l-227 465h141l256 -473l-256 -473h-141z" />
    <glyph glyph-name="questiondown" unicode="&#xbf;" 
d="M557 844q-1 100 107 100t108 -100q0 -47 -28 -73t-76 -26t-79.5 25t-31.5 74zM618 -426q-171 0 -279 77.5t-108 199.5t68.5 191.5t148.5 123.5t139.5 103t59.5 128q0 53 -41 117l164 41q37 -75 37 -142t-22 -111t-57.5 -79t-78.5 -68t-85.5 -65t-100 -85.5t-57.5 -132.5
q0 -80 66 -121.5t167 -41.5q170 0 285 115l73 -117q-153 -133 -379 -133z" />
    <glyph glyph-name="Agrave" unicode="&#xc0;" 
d="M385 489h444l-223 668zM328 1591l69 133l336 -217l-47 -84zM59 0l465 1331h176l467 -1331h-174l-119 352h-534l-115 -352h-166z" />
    <glyph glyph-name="Aacute" unicode="&#xc1;" 
d="M481 1507l336 217l70 -133l-359 -168zM385 489h444l-223 668zM59 0l465 1331h176l467 -1331h-174l-119 352h-534l-115 -352h-166z" />
    <glyph glyph-name="Acircumflex" unicode="&#xc2;" 
d="M385 489h444l-223 668zM326 1528l247 203h89l243 -199l-71 -90l-222 168l-219 -168zM59 0l465 1331h176l467 -1331h-174l-119 352h-534l-115 -352h-166z" />
    <glyph glyph-name="Atilde" unicode="&#xc3;" 
d="M385 489h444l-223 668zM481 1673q55 0 138 -29.5t122 -29.5q80 0 133 63l56 -61q-87 -125 -197 -125q-43 0 -127.5 31.5t-126.5 31.5q-82 0 -139 -67l-57 59q94 127 198 127zM59 0l465 1331h176l467 -1331h-174l-119 352h-534l-115 -352h-166z" />
    <glyph glyph-name="Adieresis" unicode="&#xc4;" 
d="M696 1585q0 40 27.5 68t67.5 28t68 -28t28 -68t-28 -67t-68 -27t-67.5 27t-27.5 67zM385 489h444l-223 668zM328 1585q0 40 27 68t67 28t68 -28t28 -68t-28 -67t-68 -27t-67 27t-27 67zM59 0l465 1331h176l467 -1331h-174l-119 352h-534l-115 -352h-166z" />
    <glyph glyph-name="Aring" unicode="&#xc5;" 
d="M504 1606q0 -116 108 -117q108 1 109 117q-1 116 -109 116t-108 -116zM401 1606q0 90 62 144t154 54t150 -52.5t58 -141.5t-59.5 -147t-153.5 -58t-152.5 55.5t-58.5 145.5zM385 489h444l-223 668zM59 0l465 1331h176l467 -1331h-174l-119 352h-534l-115 -352h-166z" />
    <glyph glyph-name="AE" unicode="&#xc6;" 
d="M618 469v680l-262 -680h262zM1204 1331v-143h-432v-434h365v-142h-365v-467h432v-145h-586v336h-313l-129 -336h-166l539 1331h655z" />
    <glyph glyph-name="Ccedilla" unicode="&#xc7;" 
d="M551 -311q49 -56 139 -56q46 0 73.5 21.5t27.5 60.5t-45.5 68t-133.5 33l47 166q-258 18 -402 183t-144 493t172 510t460 182q100 0 196.5 -22t154.5 -58l-56 -154q-112 90 -299 90q-225 0 -338.5 -140t-113.5 -404q0 -541 450 -541q96 0 190 24t144 56l41 -140
q-143 -75 -356 -81l-27 -97q91 -14 139 -63t48 -118t-66 -119t-167 -50t-177 49z" />
    <glyph glyph-name="Egrave" unicode="&#xc8;" 
d="M362 1591l70 133l336 -217l-47 -84zM174 0v1331h903v-143h-737v-434h668v-142h-668v-467h737v-145h-903z" />
    <glyph glyph-name="Eacute" unicode="&#xc9;" 
d="M479 1507l336 217l70 -133l-359 -168zM174 0v1331h903v-143h-737v-434h668v-142h-668v-467h737v-145h-903z" />
    <glyph glyph-name="Ecircumflex" unicode="&#xca;" 
d="M354 1528l248 203h88l244 -199l-72 -90l-221 168l-219 -168zM174 0v1331h903v-143h-737v-434h668v-142h-668v-467h737v-145h-903z" />
    <glyph glyph-name="Edieresis" unicode="&#xcb;" 
d="M731 1585q0 40 27 68t67 28t68.5 -27.5t28.5 -67.5t-28.5 -67.5t-68.5 -27.5t-67 27t-27 67zM362 1585q0 40 27.5 68t67.5 28t68 -28t28 -68t-28 -67t-68 -27t-67.5 27t-27.5 67zM174 0v1331h903v-143h-737v-434h668v-142h-668v-467h737v-145h-903z" />
    <glyph glyph-name="Igrave" unicode="&#xcc;" 
d="M328 1591l69 133l336 -217l-47 -84zM162 0v145h368v1041h-368v145h917v-145h-383v-1041h383v-145h-917z" />
    <glyph glyph-name="Iacute" unicode="&#xcd;" 
d="M463 1507l336 217l69 -133l-358 -168zM162 0v145h368v1041h-368v145h917v-145h-383v-1041h383v-145h-917z" />
    <glyph glyph-name="Icircumflex" unicode="&#xce;" 
d="M319 1528l248 203h88l244 -199l-72 -90l-221 168l-219 -168zM162 0v145h368v1041h-368v145h917v-145h-383v-1041h383v-145h-917z" />
    <glyph glyph-name="Idieresis" unicode="&#xcf;" 
d="M700 1585q0 40 27.5 68t67.5 28t68 -28t28 -68t-28 -67t-68 -27t-67.5 27t-27.5 67zM332 1585q0 40 27 68t67 28t68 -28t28 -68t-28 -67t-68 -27t-67 27t-27 67zM162 0v145h368v1041h-368v145h917v-145h-383v-1041h383v-145h-917z" />
    <glyph glyph-name="Eth" unicode="&#xd0;" 
d="M297 145h285q224 0 321.5 117.5t97.5 378.5q0 313 -115 430t-313 117h-276v-445h248v-131h-248v-467zM-2 612v131h133v588h442q386 0 495.5 -215t109.5 -440q0 -380 -165 -528t-450 -148h-432v612h-133z" />
    <glyph glyph-name="Ntilde" unicode="&#xd1;" 
d="M520 1673q54 0 137 -29.5t123 -29.5q80 0 133 63l56 -61q-87 -125 -197 -125q-43 0 -127.5 31.5t-126.5 31.5q-82 0 -139 -67l-57 59q94 127 198 127zM121 0v1331h182l649 -1067v1067h156v-1331h-170l-659 1087v-1087h-158z" />
    <glyph glyph-name="Ograve" unicode="&#xd2;" 
d="M334 1591l69 133l336 -217l-47 -84zM233 679q0 -347 100.5 -451.5t274.5 -104.5q387 0 387 541q0 268 -81.5 405t-298 137t-299.5 -135t-83 -392zM57 662q0 320 141 504t423 184t416 -172.5t134 -513.5q0 -419 -190.5 -551.5t-372.5 -132.5q-551 0 -551 682z" />
    <glyph glyph-name="Oacute" unicode="&#xd3;" 
d="M467 1507l336 217l69 -133l-358 -168zM233 679q0 -347 100.5 -451.5t274.5 -104.5q387 0 387 541q0 268 -81.5 405t-298 137t-299.5 -135t-83 -392zM57 662q0 320 141 504t423 184t416 -172.5t134 -513.5q0 -419 -190.5 -551.5t-372.5 -132.5q-551 0 -551 682z" />
    <glyph glyph-name="Ocircumflex" unicode="&#xd4;" 
d="M340 1528l248 203h88l244 -199l-72 -90l-221 168l-219 -168zM233 679q0 -347 100.5 -451.5t274.5 -104.5q387 0 387 541q0 268 -81.5 405t-298 137t-299.5 -135t-83 -392zM57 662q0 320 141 504t423 184t416 -172.5t134 -513.5q0 -419 -190.5 -551.5t-372.5 -132.5
q-551 0 -551 682z" />
    <glyph glyph-name="Otilde" unicode="&#xd5;" 
d="M496 1673q54 0 137 -29.5t123 -29.5q80 0 133 63l55 -61q-87 -125 -196 -125q-43 0 -127.5 31.5t-126.5 31.5q-83 0 -140 -67l-57 59q94 127 199 127zM233 679q0 -347 100.5 -451.5t274.5 -104.5q387 0 387 541q0 268 -81.5 405t-298 137t-299.5 -135t-83 -392zM57 662
q0 320 141 504t423 184t416 -172.5t134 -513.5q0 -419 -190.5 -551.5t-372.5 -132.5q-551 0 -551 682z" />
    <glyph glyph-name="Odieresis" unicode="&#xd6;" 
d="M698 1585q0 40 27.5 68t67.5 28t68 -28t28 -68t-28 -67t-68 -27t-67.5 27t-27.5 67zM330 1585q0 40 27 68t67 28t68 -28t28 -68t-28 -67t-68 -27t-67 27t-27 67zM233 679q0 -347 100.5 -451.5t274.5 -104.5q387 0 387 541q0 268 -81.5 405t-298 137t-299.5 -135t-83 -392
zM57 662q0 320 141 504t423 184t416 -172.5t134 -513.5q0 -419 -190.5 -551.5t-372.5 -132.5q-551 0 -551 682z" />
    <glyph glyph-name="multiply" unicode="&#xd7;" 
d="M274 348l250 234l-248 231l93 86l247 -231l248 233l88 -82l-252 -229l254 -240l-92 -84l-254 236l-246 -234z" />
    <glyph glyph-name="Oslash" unicode="&#xd8;" 
d="M608 123q387 0 387 541q0 227 -51 348l-608 -787q86 -102 272 -102zM233 618q0 -184 50 -305l608 785q-89 108 -290 108t-265.5 -104t-83.5 -202t-19 -282zM57 664q0 318 141 502t418 184q237 0 375 -123l84 108h119l-141 -182q118 -170 118 -489q0 -419 -190.5 -551.5
t-372.5 -132.5q-233 0 -368 120l-82 -106h-123l141 182q-119 170 -119 488z" />
    <glyph glyph-name="Ugrave" unicode="&#xd9;" 
d="M360 1591l70 133l336 -217l-47 -84zM127 481v850h164v-831q0 -214 74.5 -297.5t252.5 -83.5t249 90.5t71 304.5v817h162v-833q0 -383 -177 -450.5t-379.5 -67.5t-309.5 126.5t-107 374.5z" />
    <glyph glyph-name="Uacute" unicode="&#xda;" 
d="M469 1507l336 217l69 -133l-358 -168zM127 481v850h164v-831q0 -214 74.5 -297.5t252.5 -83.5t249 90.5t71 304.5v817h162v-833q0 -383 -177 -450.5t-379.5 -67.5t-309.5 126.5t-107 374.5z" />
    <glyph glyph-name="Ucircumflex" unicode="&#xdb;" 
d="M326 1528l247 203h89l243 -199l-71 -90l-222 168l-219 -168zM127 481v850h164v-831q0 -214 74.5 -297.5t252.5 -83.5t249 90.5t71 304.5v817h162v-833q0 -383 -177 -450.5t-379.5 -67.5t-309.5 126.5t-107 374.5z" />
    <glyph glyph-name="Udieresis" unicode="&#xdc;" 
d="M702 1585q0 40 27.5 68t67.5 28t68 -28t28 -68t-28 -67t-68 -27t-67.5 27t-27.5 67zM334 1585q0 40 27 68t67 28t68 -28t28 -68t-28 -67t-68 -27t-67 27t-27 67zM127 481v850h164v-831q0 -214 74.5 -297.5t252.5 -83.5t249 90.5t71 304.5v817h162v-833
q0 -383 -177 -450.5t-379.5 -67.5t-309.5 126.5t-107 374.5z" />
    <glyph glyph-name="Yacute" unicode="&#xdd;" 
d="M473 1507l336 217l70 -133l-359 -168zM713 0h-166v514l-453 817h176l365 -674l334 674h164l-420 -813v-518z" />
    <glyph glyph-name="Thorn" unicode="&#xde;" 
d="M582 432q284 0 284 283q0 149 -68.5 219t-224.5 70h-223v-572h232zM184 0v1331h166v-184h228q244 0 354 -108t110 -313t-123 -321t-327 -116h-242v-289h-166z" />
    <glyph glyph-name="germandbls" unicode="&#xdf;" 
d="M49 842v112l146 11v43q0 213 123 314t300 101t272 -79t95 -211q0 -88 -68 -147.5t-136 -117.5t-68 -133q0 -76 67 -109.5t151.5 -67t166.5 -97.5t82 -193q0 -218 -147 -253t-223 -35q-163 0 -296 81l45 148q37 -37 108 -68.5t144 -31.5q209 0 209 149q0 86 -66.5 121.5
t-158.5 72.5t-166 89.5t-74 164.5q0 111 65 179.5t132 123t67 122.5q0 69 -53.5 114t-159.5 45q-254 0 -254 -293v-997h-157v842h-146z" />
    <glyph glyph-name="agrave" unicode="&#xe0;" 
d="M649 438q-299 0 -299 -166q0 -80 51 -121.5t135 -41.5t154.5 36.5t116.5 87.5v193q-86 12 -158 12zM326 1360l100 108l262 -274l-67 -70zM612 1001q359 0 355 -311l-2 -473q0 -57 20.5 -82.5t46.5 -25.5t41 6l14 -121q-53 -14 -111 -14t-103.5 37t-57.5 102
q-130 -139 -326 -139q-134 0 -219.5 74t-85.5 200q0 295 482 295q55 0 141 -8l2 131q0 111 -51.5 154.5t-159.5 43.5q-205 0 -205 -129q0 -21 6 -45l-145 -18q-12 38 -12 72q0 112 104.5 181.5t265.5 69.5z" />
    <glyph glyph-name="aacute" unicode="&#xe1;" 
d="M485 1194l265 274l98 -108l-295 -236zM649 438q-299 0 -299 -166q0 -80 51 -121.5t135 -41.5t154.5 36.5t116.5 87.5v193q-86 12 -158 12zM612 1001q359 0 355 -311l-2 -473q0 -57 20.5 -82.5t46.5 -25.5t41 6l14 -121q-53 -14 -111 -14t-103.5 37t-57.5 102
q-130 -139 -326 -139q-134 0 -219.5 74t-85.5 200q0 295 482 295q55 0 141 -8l2 131q0 111 -51.5 154.5t-159.5 43.5q-205 0 -205 -129q0 -21 6 -45l-145 -18q-12 38 -12 72q0 112 104.5 181.5t265.5 69.5z" />
    <glyph glyph-name="acircumflex" unicode="&#xe2;" 
d="M649 438q-299 0 -299 -166q0 -80 51 -121.5t135 -41.5t154.5 36.5t116.5 87.5v193q-86 12 -158 12zM291 1184l254 243h88l252 -239l-86 -82l-213 199l-213 -201zM612 1001q359 0 355 -311l-2 -473q0 -57 20.5 -82.5t46.5 -25.5t41 6l14 -121q-53 -14 -111 -14t-103.5 37
t-57.5 102q-130 -139 -326 -139q-134 0 -219.5 74t-85.5 200q0 295 482 295q55 0 141 -8l2 131q0 111 -51.5 154.5t-159.5 43.5q-205 0 -205 -129q0 -21 6 -45l-145 -18q-12 38 -12 72q0 112 104.5 181.5t265.5 69.5z" />
    <glyph glyph-name="atilde" unicode="&#xe3;" 
d="M649 438q-299 0 -299 -166q0 -80 51 -121.5t135 -41.5t154.5 36.5t116.5 87.5v193q-86 12 -158 12zM473 1376q56 0 124.5 -29.5t107.5 -29.5q81 0 133 63l55 -61q-85 -125 -197 -125q-44 0 -113 30.5t-110 30.5q-87 0 -141 -67l-58 61q98 127 199 127zM612 1001
q359 0 355 -311l-2 -473q0 -57 20.5 -82.5t46.5 -25.5t41 6l14 -121q-53 -14 -111 -14t-103.5 37t-57.5 102q-130 -139 -326 -139q-134 0 -219.5 74t-85.5 200q0 295 482 295q55 0 141 -8l2 131q0 111 -51.5 154.5t-159.5 43.5q-205 0 -205 -129q0 -21 6 -45l-145 -18
q-12 38 -12 72q0 112 104.5 181.5t265.5 69.5z" />
    <glyph glyph-name="adieresis" unicode="&#xe4;" 
d="M666 1282q0 40 28 68t67 28t67 -28t28 -68t-27 -67t-67 -27t-68 27t-28 67zM649 438q-299 0 -299 -166q0 -80 51 -121.5t135 -41.5t154.5 36.5t116.5 87.5v193q-86 12 -158 12zM309 1282q0 40 27 68t67 28t68.5 -28t28.5 -68t-28.5 -67t-68.5 -27t-67 27t-27 67z
M612 1001q359 0 355 -311l-2 -473q0 -57 20.5 -82.5t46.5 -25.5t41 6l14 -121q-53 -14 -111 -14t-103.5 37t-57.5 102q-130 -139 -326 -139q-134 0 -219.5 74t-85.5 200q0 295 482 295q55 0 141 -8l2 131q0 111 -51.5 154.5t-159.5 43.5q-205 0 -205 -129q0 -21 6 -45
l-145 -18q-12 38 -12 72q0 112 104.5 181.5t265.5 69.5z" />
    <glyph glyph-name="aring" unicode="&#xe5;" 
d="M473 1310q1 -116 109 -116t108 116t-108 115q-108 1 -109 -115zM371 1310q0 90 62 143.5t154 53.5t150 -51.5t58 -140.5t-59.5 -147t-153.5 -58t-152.5 55t-58.5 145zM649 438q-299 0 -299 -166q0 -80 51 -121.5t135 -41.5t154.5 36.5t116.5 87.5v193q-86 12 -158 12z
M612 1001q359 0 355 -311l-2 -473q0 -57 20.5 -82.5t46.5 -25.5t41 6l14 -121q-53 -14 -111 -14t-103.5 37t-57.5 102q-130 -139 -326 -139q-134 0 -219.5 74t-85.5 200q0 295 482 295q55 0 141 -8l2 131q0 111 -51.5 154.5t-159.5 43.5q-205 0 -205 -129q0 -21 6 -45
l-145 -18q-12 38 -12 72q0 112 104.5 181.5t265.5 69.5z" />
    <glyph glyph-name="ae" unicode="&#xe6;" 
d="M1049 580v24q2 120 -40.5 197.5t-136.5 77.5q-186 0 -213 -299h390zM166 252q0 -64 41 -106t113 -42t130.5 41t92.5 105q-30 92 -35 176q-36 8 -90 8t-95 -8t-78 -25.5t-58 -51t-21 -97.5zM588 158q-104 -178 -316 -178q-106 0 -180 71.5t-74 200.5q0 182 137 234.5
t230 52.5q94 0 125 -4q0 48 10 96v47q0 110 -35.5 152t-120.5 42t-118 -38t-33 -73t10 -65l-131 -18q-14 38 -14 78q0 110 84 177.5t217 67.5q86 0 152 -34.5t92 -108.5q94 143 258 143t237.5 -120.5t75.5 -364.5v-49h-535q3 -169 73 -261.5t192 -92.5t217 84l39 -134
q-124 -83 -279 -83q-215 0 -313 178z" />
    <glyph glyph-name="ccedilla" unicode="&#xe7;" 
d="M549 -313q49 -56 139 -56q45 0 72.5 21.5t27.5 60.5t-45 68t-133 33l47 168q-186 14 -307 135t-121 353q0 319 165.5 425t348.5 106q182 0 322 -83l-49 -148q-137 96 -288 96t-240 -97t-89 -283t91.5 -278.5t250.5 -92.5q82 0 157 29t120 67l45 -133q-127 -84 -307 -96
l-27 -101q91 -14 138.5 -63t47.5 -118t-65.5 -119t-166.5 -50t-177 49z" />
    <glyph glyph-name="egrave" unicode="&#xe8;" 
d="M416 1360l100 108l262 -274l-67 -70zM653 877q-257 0 -286 -297h538q2 134 -67.5 215.5t-184.5 81.5zM1053 78q-159 -98 -372 -98q-214 0 -349 127t-135 380t134 383.5t323 130.5t302 -117t113 -356q0 -55 -2 -61h-705q7 -175 101.5 -264.5t253.5 -89.5q77 0 163.5 31.5
t129.5 68.5z" />
    <glyph glyph-name="eacute" unicode="&#xe9;" 
d="M524 1194l264 274l99 -108l-295 -236zM653 877q-257 0 -286 -297h538q2 134 -67.5 215.5t-184.5 81.5zM1053 78q-159 -98 -372 -98q-214 0 -349 127t-135 380t134 383.5t323 130.5t302 -117t113 -356q0 -55 -2 -61h-705q7 -175 101.5 -264.5t253.5 -89.5q77 0 163.5 31.5
t129.5 68.5z" />
    <glyph glyph-name="ecircumflex" unicode="&#xea;" 
d="M653 877q-257 0 -286 -297h538q2 134 -67.5 215.5t-184.5 81.5zM360 1184l254 243h88l252 -239l-86 -82l-213 199l-213 -201zM1053 78q-159 -98 -372 -98q-214 0 -349 127t-135 380t134 383.5t323 130.5t302 -117t113 -356q0 -55 -2 -61h-705q7 -175 101.5 -264.5
t253.5 -89.5q77 0 163.5 31.5t129.5 68.5z" />
    <glyph glyph-name="edieresis" unicode="&#xeb;" 
d="M745 1282q0 40 28.5 68t67.5 28t67 -28t28 -68t-27 -67t-67 -27t-68.5 27t-28.5 67zM389 1282q0 40 27 68t67 28t68.5 -28t28.5 -68t-28.5 -67t-68.5 -27t-67 27t-27 67zM653 877q-257 0 -286 -297h538q2 134 -67.5 215.5t-184.5 81.5zM1053 78q-159 -98 -372 -98
q-214 0 -349 127t-135 380t134 383.5t323 130.5t302 -117t113 -356q0 -55 -2 -61h-705q7 -175 101.5 -264.5t253.5 -89.5q77 0 163.5 31.5t129.5 68.5z" />
    <glyph glyph-name="igrave" unicode="&#xec;" 
d="M360 1360l101 108l262 -274l-68 -70zM166 0v133h362v711h-362v133h526v-133h-2v-711h373v-133h-897z" />
    <glyph glyph-name="iacute" unicode="&#xed;" 
d="M475 1194l264 274l99 -108l-295 -236zM166 0v133h362v711h-362v133h526v-133h-2v-711h373v-133h-897z" />
    <glyph glyph-name="icircumflex" unicode="&#xee;" 
d="M313 1184l254 243h88l252 -239l-86 -82l-213 199l-213 -201zM166 0v133h362v711h-362v133h526v-133h-2v-711h373v-133h-897z" />
    <glyph glyph-name="idieresis" unicode="&#xef;" 
d="M696 1282q0 40 28.5 68t67.5 28t67 -28t28 -68t-27.5 -67t-67.5 -27t-68 27t-28 67zM340 1282q0 40 27 68t67 28t68 -28t28 -68t-28 -67t-68 -27t-67 27t-27 67zM166 0v133h362v711h-362v133h526v-133h-2v-711h373v-133h-897z" />
    <glyph glyph-name="eth" unicode="&#xf0;" 
d="M616 862q-294 0 -294 -374t288 -375q157 0 226 96t71 270q0 174 -41 299q-44 38 -113.5 61t-136.5 23zM152 480q0 234 120.5 370.5t323.5 136.5q128 0 211 -57q-87 144 -211 250l-115 -127l-82 63l111 125q-59 40 -119 72l76 102q76 -37 133 -72l105 117l81 -67l-98 -109
q380 -281 389 -772v-20q0 -299 -158 -405.5t-305 -106.5q-219 0 -340.5 133t-121.5 367z" />
    <glyph glyph-name="ntilde" unicode="&#xf1;" 
d="M504 1376q56 0 124 -29.5t107 -29.5q81 0 133 63l56 -61q-85 -125 -197 -125q-43 0 -113 30.5t-110 30.5q-88 0 -142 -67l-57 61q98 127 199 127zM689 1001q366 0 366 -339v-662h-160v602q0 140 -57.5 197t-150.5 57q-176 0 -325 -117v-739h-161v977h151l2 -113
q79 68 173.5 102.5t161.5 34.5z" />
    <glyph glyph-name="ograve" unicode="&#xf2;" 
d="M334 1360l100 108l262 -274l-67 -70zM610 113q322 0 322 381q0 175 -79.5 274.5t-239.5 99.5t-237 -101t-77 -273q0 -381 311 -381zM129 484q0 240 134 378.5t356 138.5t352.5 -131.5t130.5 -377.5q0 -143 -57.5 -258.5t-169.5 -184.5t-261 -69q-223 0 -354 132t-131 372
z" />
    <glyph glyph-name="oacute" unicode="&#xf3;" 
d="M471 1194l264 274l99 -108l-295 -236zM610 113q322 0 322 381q0 175 -79.5 274.5t-239.5 99.5t-237 -101t-77 -273q0 -381 311 -381zM129 484q0 240 134 378.5t356 138.5t352.5 -131.5t130.5 -377.5q0 -143 -57.5 -258.5t-169.5 -184.5t-261 -69q-223 0 -354 132
t-131 372z" />
    <glyph glyph-name="ocircumflex" unicode="&#xf4;" 
d="M315 1184l254 243h88l252 -239l-86 -82l-213 199l-213 -201zM610 113q322 0 322 381q0 175 -79.5 274.5t-239.5 99.5t-237 -101t-77 -273q0 -381 311 -381zM129 484q0 240 134 378.5t356 138.5t352.5 -131.5t130.5 -377.5q0 -143 -57.5 -258.5t-169.5 -184.5t-261 -69
q-223 0 -354 132t-131 372z" />
    <glyph glyph-name="otilde" unicode="&#xf5;" 
d="M500 1376q56 0 124 -29.5t107 -29.5q81 0 133 63l56 -61q-85 -125 -197 -125q-43 0 -113 30.5t-110 30.5q-88 0 -142 -67l-57 61q98 127 199 127zM610 113q322 0 322 381q0 175 -79.5 274.5t-239.5 99.5t-237 -101t-77 -273q0 -381 311 -381zM129 484q0 240 134 378.5
t356 138.5t352.5 -131.5t130.5 -377.5q0 -143 -57.5 -258.5t-169.5 -184.5t-261 -69q-223 0 -354 132t-131 372z" />
    <glyph glyph-name="odieresis" unicode="&#xf6;" 
d="M690 1282q0 40 28 68t67 28t67.5 -28t28.5 -68t-27.5 -67t-67.5 -27t-68 27t-28 67zM334 1282q0 40 27 68t67 28t68 -28t28 -68t-28 -67t-68 -27t-67 27t-27 67zM610 113q322 0 322 381q0 175 -79.5 274.5t-239.5 99.5t-237 -101t-77 -273q0 -381 311 -381zM129 484
q0 240 134 378.5t356 138.5t352.5 -131.5t130.5 -377.5q0 -143 -57.5 -258.5t-169.5 -184.5t-261 -69q-223 0 -354 132t-131 372z" />
    <glyph glyph-name="divide" unicode="&#xf7;" 
d="M518 868q0 40 27 68.5t67 28.5t68.5 -28.5t28.5 -68.5t-28.5 -67t-68.5 -27t-67 27t-27 67zM518 330q0 40 27 68t67 28t68.5 -28t28.5 -68t-28.5 -67t-68.5 -27t-67 27t-27 67zM240 543v119h747v-119h-747z" />
    <glyph glyph-name="oslash" unicode="&#xf8;" 
d="M610 113q322 0 322 381q0 153 -60 245l-452 -571q73 -55 190 -55zM299 498q0 -168 57 -260l453 573q-75 57 -215 57t-217.5 -101t-77.5 -269zM129 486q0 238 134 376.5t351 138.5q171 0 287 -73l45 57h121l-94 -119q129 -135 129 -374q0 -143 -57.5 -258.5t-170 -184.5
t-270.5 -69t-274 73l-47 -59h-119l94 119q-129 135 -129 373z" />
    <glyph glyph-name="ugrave" unicode="&#xf9;" 
d="M369 1360l100 108l262 -274l-67 -70zM543 -23q-369 0 -369 340v660h162v-606q0 -140 57.5 -198t167.5 -58q142 0 301 125v737h162v-977h-150l-4 115q-79 -69 -170 -103.5t-157 -34.5z" />
    <glyph glyph-name="uacute" unicode="&#xfa;" 
d="M502 1194l264 274l98 -108l-295 -236zM543 -23q-369 0 -369 340v660h162v-606q0 -140 57.5 -198t167.5 -58q142 0 301 125v737h162v-977h-150l-4 115q-79 -69 -170 -103.5t-157 -34.5z" />
    <glyph glyph-name="ucircumflex" unicode="&#xfb;" 
d="M315 1184l254 243h88l252 -239l-86 -82l-213 199l-213 -201zM543 -23q-369 0 -369 340v660h162v-606q0 -140 57.5 -198t167.5 -58q142 0 301 125v737h162v-977h-150l-4 115q-79 -69 -170 -103.5t-157 -34.5z" />
    <glyph glyph-name="udieresis" unicode="&#xfc;" 
d="M709 1282q0 40 28 68t67 28t67 -28t28 -68t-27.5 -67t-67.5 -27t-67.5 27t-27.5 67zM352 1282q0 40 27 68t67 28t68.5 -28t28.5 -68t-28.5 -67t-68.5 -27t-67 27t-27 67zM543 -23q-369 0 -369 340v660h162v-606q0 -140 57.5 -198t167.5 -58q142 0 301 125v737h162v-977
h-150l-4 115q-79 -69 -170 -103.5t-157 -34.5z" />
    <glyph glyph-name="yacute" unicode="&#xfd;" 
d="M506 1194l264 274l98 -108l-295 -236zM145 977h170l310 -811l299 811h159l-553 -1428h-155l162 424z" />
    <glyph glyph-name="thorn" unicode="&#xfe;" 
d="M539 113q161 0 250.5 100.5t89.5 280.5t-73.5 272t-201.5 92t-266 -125v-567q87 -53 201 -53zM178 -451v1854h160v-543q151 141 309 141q193 0 298.5 -132.5t105.5 -366.5t-139.5 -378t-368.5 -144q-100 0 -205 30v-461h-160z" />
    <glyph glyph-name="ydieresis" unicode="&#xff;" 
d="M707 1282q0 40 28 68t67 28t67 -28t28 -68t-27.5 -67t-67.5 -27t-67.5 27t-27.5 67zM350 1282q0 40 27 68t67 28t68.5 -28t28.5 -68t-28.5 -67t-68.5 -27t-67 27t-27 67zM145 977h170l310 -811l299 811h159l-553 -1428h-155l162 424z" />
    <glyph glyph-name="OE" unicode="&#x152;" 
d="M217 659q0 -264 69 -402t230 -138q78 0 135 16v1055q-58 18 -125 18q-309 0 -309 -549zM155.5 1159q114.5 191 370.5 191q76 0 150 -19h512v-143h-377v-434h309v-142h-309v-467h377v-145h-518q-85 -20 -187 -20t-195.5 46t-170 177t-76.5 448t114.5 508z" />
    <glyph glyph-name="oe" unicode="&#x153;" 
d="M900 881q-92 0 -137 -74t-54 -227h374q3 140 -44 220.5t-139 80.5zM352 106q215 0 215 384t-215 384q-115 0 -157.5 -107.5t-42.5 -284.5q0 -176 44.5 -276t155.5 -100zM940 -20q-219 0 -305 208q-92 -208 -283 -208q-340 0 -340 512q0 233 87.5 371t250.5 138
q217 0 291 -204q72 204 260 204q316 0 316 -473q0 -52 -3 -61h-505q10 -361 249 -361q108 0 203 95l43 -123q-113 -98 -264 -98z" />
    <glyph glyph-name="Ydieresis" unicode="&#x178;" 
d="M725 1585q0 40 27 68t67 28t68 -28t28 -68t-28 -67t-68 -27t-67 27t-27 67zM356 1585q0 40 27.5 68t67.5 28t68 -28t28 -68t-28 -67t-68 -27t-67.5 27t-27.5 67zM713 0h-166v514l-453 817h176l365 -674l334 674h164l-420 -813v-518z" />
    <glyph glyph-name="circumflex" unicode="&#x2c6;" 
d="M317 1184l254 243h88l252 -239l-86 -82l-213 199l-213 -201z" />
    <glyph glyph-name="tilde" unicode="&#x2dc;" 
d="M504 1376q56 0 124 -29.5t107 -29.5q81 0 133 63l56 -61q-85 -125 -197 -125q-43 0 -113 30.5t-110 30.5q-88 0 -142 -67l-57 61q98 127 199 127z" />
    <glyph glyph-name="uni2000" unicode="&#x2000;" horiz-adv-x="902" 
 />
    <glyph glyph-name="uni2001" unicode="&#x2001;" horiz-adv-x="1804" 
 />
    <glyph glyph-name="uni2002" unicode="&#x2002;" horiz-adv-x="902" 
 />
    <glyph glyph-name="uni2003" unicode="&#x2003;" horiz-adv-x="1804" 
 />
    <glyph glyph-name="uni2004" unicode="&#x2004;" horiz-adv-x="601" 
 />
    <glyph glyph-name="uni2005" unicode="&#x2005;" horiz-adv-x="451" 
 />
    <glyph glyph-name="uni2006" unicode="&#x2006;" horiz-adv-x="300" 
 />
    <glyph glyph-name="uni2007" unicode="&#x2007;" horiz-adv-x="300" 
 />
    <glyph glyph-name="uni2008" unicode="&#x2008;" horiz-adv-x="225" 
 />
    <glyph glyph-name="uni2009" unicode="&#x2009;" horiz-adv-x="360" 
 />
    <glyph glyph-name="uni200A" unicode="&#x200a;" horiz-adv-x="100" 
 />
    <glyph glyph-name="uni2010" unicode="&#x2010;" 
d="M352 455v143h525v-143h-525z" />
    <glyph glyph-name="uni2011" unicode="&#x2011;" 
d="M352 455v143h525v-143h-525z" />
    <glyph glyph-name="figuredash" unicode="&#x2012;" 
d="M352 455v143h525v-143h-525z" />
    <glyph glyph-name="endash" unicode="&#x2013;" 
d="M164 473v119h901v-119h-901z" />
    <glyph glyph-name="emdash" unicode="&#x2014;" 
d="M0 473v119h1227v-119h-1227z" />
    <glyph glyph-name="quoteleft" unicode="&#x2018;" 
d="M479 911q6 125 50 288t104 255l115 -33q-51 -95 -81.5 -239.5t-35.5 -270.5h-152z" />
    <glyph glyph-name="quoteright" unicode="&#x2019;" 
d="M479 932q51 95 81.5 239.5t35.5 270.5h152q-6 -125 -50 -288t-104 -255z" />
    <glyph glyph-name="quotesinglbase" unicode="&#x201a;" 
d="M483 -336q51 97 81.5 236.5t33.5 259.5h145q-5 -121 -48.5 -277.5t-104.5 -249.5z" />
    <glyph glyph-name="quotedblleft" unicode="&#x201c;" 
d="M645 911q5 123 49.5 287t104.5 256l112 -33q-50 -96 -80.5 -242t-33.5 -268h-152zM315 911q6 125 50 288t104 255l113 -33q-51 -96 -81.5 -242t-33.5 -268h-152z" />
    <glyph glyph-name="quotedblright" unicode="&#x201d;" 
d="M645 932q51 96 81.5 242t33.5 268h151q-5 -123 -49 -287t-104 -256zM315 932q52 96 82 241t33 269h152q-5 -123 -49.5 -287t-104.5 -256z" />
    <glyph glyph-name="quotedblbase" unicode="&#x201e;" 
d="M651 -336q51 97 81.5 236.5t33.5 259.5h145q-5 -121 -48.5 -277.5t-104.5 -249.5zM315 -336q52 96 82 235t33 261h148q-6 -123 -50.5 -279t-105.5 -248z" />
    <glyph glyph-name="bullet" unicode="&#x2022;" 
d="M434 477q0 37 18 83t61 74t81 28t89 -18q50 -18 80 -61.5t30 -84.5q-1 -41 -17 -82t-60 -69t-88 -28t-89 18t-75 60.5t-30 79.5z" />
    <glyph glyph-name="ellipsis" unicode="&#x2026;" 
d="M1169 78q0 -98 -102 -98t-102 98t100 98q46 0 75 -24t29 -74zM715 78q1 -98 -101 -98t-102 98t102 98t101 -98zM262 78q0 -98 -102 -98t-103 98q0 48 28 73t75 25q102 0 102 -98z" />
    <glyph glyph-name="uni202F" unicode="&#x202f;" horiz-adv-x="360" 
 />
    <glyph glyph-name="guilsinglleft" unicode="&#x2039;" 
d="M414 479l256 473h143l-229 -465l229 -481h-143z" />
    <glyph glyph-name="guilsinglright" unicode="&#x203a;" 
d="M414 6l229 481l-229 465h141l258 -473l-258 -473h-141z" />
    <glyph glyph-name="uni205F" unicode="&#x205f;" horiz-adv-x="451" 
 />
    <glyph glyph-name="Euro" unicode="&#x20ac;" 
d="M799 1208q-163 0 -255 -82.5t-124 -248.5h551l-21 -117h-544q-3 -50 -3 -100t3 -97h512l-21 -117h-477q31 -167 124 -247t265 -80q87 0 169 22.5t130 53.5l43 -138q-146 -77 -370 -77q-462 0 -537 466h-168l20 117h135q-2 29 -2 95t4 102h-137l21 117h131
q45 230 186.5 351.5t350.5 121.5t343 -74l-53 -152q-113 84 -276 84z" />
    <glyph glyph-name="trademark" unicode="&#x2122;" 
d="M483 653v682h117l168 -381l78 -194l72 192l163 383h113v-682h-92v514l-55 -157l-158 -357h-92l-158 342l-70 168l2 -157v-353h-88zM20 1243v90h424v-90h-163v-590h-99v590h-162z" />
    <glyph glyph-name="uni25FC" unicode="&#x25fc;" horiz-adv-x="972" 
d="M0 0v973h973v-973h-973z" />
  </font>
</defs>
</svg>
